%TF.GenerationSoftware,KiCad,Pcbnew,(7.0.0)*%
%TF.CreationDate,2023-03-08T00:24:42-05:00*%
%TF.ProjectId,STM32F103,53544d33-3246-4313-9033-2e6b69636164,rev?*%
%TF.SameCoordinates,Original*%
%TF.FileFunction,Legend,Top*%
%TF.FilePolarity,Positive*%
%FSLAX46Y46*%
G04 Gerber Fmt 4.6, Leading zero omitted, Abs format (unit mm)*
G04 Created by KiCad (PCBNEW (7.0.0)) date 2023-03-08 00:24:42*
%MOMM*%
%LPD*%
G01*
G04 APERTURE LIST*
%ADD10C,0.100000*%
%ADD11C,0.150000*%
%ADD12C,0.300000*%
%ADD13C,0.400000*%
%ADD14C,0.050000*%
%ADD15C,0.120000*%
G04 APERTURE END LIST*
D10*
D11*
X177002200Y-166007200D02*
X285002200Y-166007200D01*
X285002200Y-198007200D01*
X177002200Y-198007200D01*
X177002200Y-166007200D01*
D10*
D11*
X10000000Y-10000000D02*
X287002200Y-10000000D01*
X287002200Y-200007200D01*
X10000000Y-200007200D01*
X10000000Y-10000000D01*
D10*
D11*
X12000000Y-12000000D02*
X285002200Y-12000000D01*
X285002200Y-198007200D01*
X12000000Y-198007200D01*
X12000000Y-12000000D01*
D10*
D11*
X60000000Y-12000000D02*
X60000000Y-10000000D01*
D10*
D11*
X110000000Y-12000000D02*
X110000000Y-10000000D01*
D10*
D11*
X160000000Y-12000000D02*
X160000000Y-10000000D01*
D10*
D11*
X210000000Y-12000000D02*
X210000000Y-10000000D01*
D10*
D11*
X260000000Y-12000000D02*
X260000000Y-10000000D01*
D10*
D11*
X35990476Y-11477595D02*
X35247619Y-11477595D01*
X35619047Y-11477595D02*
X35619047Y-10177595D01*
X35619047Y-10177595D02*
X35495238Y-10363309D01*
X35495238Y-10363309D02*
X35371428Y-10487119D01*
X35371428Y-10487119D02*
X35247619Y-10549023D01*
D10*
D11*
X85247619Y-10301404D02*
X85309523Y-10239500D01*
X85309523Y-10239500D02*
X85433333Y-10177595D01*
X85433333Y-10177595D02*
X85742857Y-10177595D01*
X85742857Y-10177595D02*
X85866666Y-10239500D01*
X85866666Y-10239500D02*
X85928571Y-10301404D01*
X85928571Y-10301404D02*
X85990476Y-10425214D01*
X85990476Y-10425214D02*
X85990476Y-10549023D01*
X85990476Y-10549023D02*
X85928571Y-10734738D01*
X85928571Y-10734738D02*
X85185714Y-11477595D01*
X85185714Y-11477595D02*
X85990476Y-11477595D01*
D10*
D11*
X135185714Y-10177595D02*
X135990476Y-10177595D01*
X135990476Y-10177595D02*
X135557142Y-10672833D01*
X135557142Y-10672833D02*
X135742857Y-10672833D01*
X135742857Y-10672833D02*
X135866666Y-10734738D01*
X135866666Y-10734738D02*
X135928571Y-10796642D01*
X135928571Y-10796642D02*
X135990476Y-10920452D01*
X135990476Y-10920452D02*
X135990476Y-11229976D01*
X135990476Y-11229976D02*
X135928571Y-11353785D01*
X135928571Y-11353785D02*
X135866666Y-11415690D01*
X135866666Y-11415690D02*
X135742857Y-11477595D01*
X135742857Y-11477595D02*
X135371428Y-11477595D01*
X135371428Y-11477595D02*
X135247619Y-11415690D01*
X135247619Y-11415690D02*
X135185714Y-11353785D01*
D10*
D11*
X185866666Y-10610928D02*
X185866666Y-11477595D01*
X185557142Y-10115690D02*
X185247619Y-11044261D01*
X185247619Y-11044261D02*
X186052380Y-11044261D01*
D10*
D11*
X235928571Y-10177595D02*
X235309523Y-10177595D01*
X235309523Y-10177595D02*
X235247619Y-10796642D01*
X235247619Y-10796642D02*
X235309523Y-10734738D01*
X235309523Y-10734738D02*
X235433333Y-10672833D01*
X235433333Y-10672833D02*
X235742857Y-10672833D01*
X235742857Y-10672833D02*
X235866666Y-10734738D01*
X235866666Y-10734738D02*
X235928571Y-10796642D01*
X235928571Y-10796642D02*
X235990476Y-10920452D01*
X235990476Y-10920452D02*
X235990476Y-11229976D01*
X235990476Y-11229976D02*
X235928571Y-11353785D01*
X235928571Y-11353785D02*
X235866666Y-11415690D01*
X235866666Y-11415690D02*
X235742857Y-11477595D01*
X235742857Y-11477595D02*
X235433333Y-11477595D01*
X235433333Y-11477595D02*
X235309523Y-11415690D01*
X235309523Y-11415690D02*
X235247619Y-11353785D01*
D10*
D11*
X285866666Y-10177595D02*
X285619047Y-10177595D01*
X285619047Y-10177595D02*
X285495238Y-10239500D01*
X285495238Y-10239500D02*
X285433333Y-10301404D01*
X285433333Y-10301404D02*
X285309523Y-10487119D01*
X285309523Y-10487119D02*
X285247619Y-10734738D01*
X285247619Y-10734738D02*
X285247619Y-11229976D01*
X285247619Y-11229976D02*
X285309523Y-11353785D01*
X285309523Y-11353785D02*
X285371428Y-11415690D01*
X285371428Y-11415690D02*
X285495238Y-11477595D01*
X285495238Y-11477595D02*
X285742857Y-11477595D01*
X285742857Y-11477595D02*
X285866666Y-11415690D01*
X285866666Y-11415690D02*
X285928571Y-11353785D01*
X285928571Y-11353785D02*
X285990476Y-11229976D01*
X285990476Y-11229976D02*
X285990476Y-10920452D01*
X285990476Y-10920452D02*
X285928571Y-10796642D01*
X285928571Y-10796642D02*
X285866666Y-10734738D01*
X285866666Y-10734738D02*
X285742857Y-10672833D01*
X285742857Y-10672833D02*
X285495238Y-10672833D01*
X285495238Y-10672833D02*
X285371428Y-10734738D01*
X285371428Y-10734738D02*
X285309523Y-10796642D01*
X285309523Y-10796642D02*
X285247619Y-10920452D01*
D10*
D11*
X60000000Y-198007200D02*
X60000000Y-200007200D01*
D10*
D11*
X110000000Y-198007200D02*
X110000000Y-200007200D01*
D10*
D11*
X160000000Y-198007200D02*
X160000000Y-200007200D01*
D10*
D11*
X210000000Y-198007200D02*
X210000000Y-200007200D01*
D10*
D11*
X260000000Y-198007200D02*
X260000000Y-200007200D01*
D10*
D11*
X35990476Y-199484795D02*
X35247619Y-199484795D01*
X35619047Y-199484795D02*
X35619047Y-198184795D01*
X35619047Y-198184795D02*
X35495238Y-198370509D01*
X35495238Y-198370509D02*
X35371428Y-198494319D01*
X35371428Y-198494319D02*
X35247619Y-198556223D01*
D10*
D11*
X85247619Y-198308604D02*
X85309523Y-198246700D01*
X85309523Y-198246700D02*
X85433333Y-198184795D01*
X85433333Y-198184795D02*
X85742857Y-198184795D01*
X85742857Y-198184795D02*
X85866666Y-198246700D01*
X85866666Y-198246700D02*
X85928571Y-198308604D01*
X85928571Y-198308604D02*
X85990476Y-198432414D01*
X85990476Y-198432414D02*
X85990476Y-198556223D01*
X85990476Y-198556223D02*
X85928571Y-198741938D01*
X85928571Y-198741938D02*
X85185714Y-199484795D01*
X85185714Y-199484795D02*
X85990476Y-199484795D01*
D10*
D11*
X135185714Y-198184795D02*
X135990476Y-198184795D01*
X135990476Y-198184795D02*
X135557142Y-198680033D01*
X135557142Y-198680033D02*
X135742857Y-198680033D01*
X135742857Y-198680033D02*
X135866666Y-198741938D01*
X135866666Y-198741938D02*
X135928571Y-198803842D01*
X135928571Y-198803842D02*
X135990476Y-198927652D01*
X135990476Y-198927652D02*
X135990476Y-199237176D01*
X135990476Y-199237176D02*
X135928571Y-199360985D01*
X135928571Y-199360985D02*
X135866666Y-199422890D01*
X135866666Y-199422890D02*
X135742857Y-199484795D01*
X135742857Y-199484795D02*
X135371428Y-199484795D01*
X135371428Y-199484795D02*
X135247619Y-199422890D01*
X135247619Y-199422890D02*
X135185714Y-199360985D01*
D10*
D11*
X185866666Y-198618128D02*
X185866666Y-199484795D01*
X185557142Y-198122890D02*
X185247619Y-199051461D01*
X185247619Y-199051461D02*
X186052380Y-199051461D01*
D10*
D11*
X235928571Y-198184795D02*
X235309523Y-198184795D01*
X235309523Y-198184795D02*
X235247619Y-198803842D01*
X235247619Y-198803842D02*
X235309523Y-198741938D01*
X235309523Y-198741938D02*
X235433333Y-198680033D01*
X235433333Y-198680033D02*
X235742857Y-198680033D01*
X235742857Y-198680033D02*
X235866666Y-198741938D01*
X235866666Y-198741938D02*
X235928571Y-198803842D01*
X235928571Y-198803842D02*
X235990476Y-198927652D01*
X235990476Y-198927652D02*
X235990476Y-199237176D01*
X235990476Y-199237176D02*
X235928571Y-199360985D01*
X235928571Y-199360985D02*
X235866666Y-199422890D01*
X235866666Y-199422890D02*
X235742857Y-199484795D01*
X235742857Y-199484795D02*
X235433333Y-199484795D01*
X235433333Y-199484795D02*
X235309523Y-199422890D01*
X235309523Y-199422890D02*
X235247619Y-199360985D01*
D10*
D11*
X285866666Y-198184795D02*
X285619047Y-198184795D01*
X285619047Y-198184795D02*
X285495238Y-198246700D01*
X285495238Y-198246700D02*
X285433333Y-198308604D01*
X285433333Y-198308604D02*
X285309523Y-198494319D01*
X285309523Y-198494319D02*
X285247619Y-198741938D01*
X285247619Y-198741938D02*
X285247619Y-199237176D01*
X285247619Y-199237176D02*
X285309523Y-199360985D01*
X285309523Y-199360985D02*
X285371428Y-199422890D01*
X285371428Y-199422890D02*
X285495238Y-199484795D01*
X285495238Y-199484795D02*
X285742857Y-199484795D01*
X285742857Y-199484795D02*
X285866666Y-199422890D01*
X285866666Y-199422890D02*
X285928571Y-199360985D01*
X285928571Y-199360985D02*
X285990476Y-199237176D01*
X285990476Y-199237176D02*
X285990476Y-198927652D01*
X285990476Y-198927652D02*
X285928571Y-198803842D01*
X285928571Y-198803842D02*
X285866666Y-198741938D01*
X285866666Y-198741938D02*
X285742857Y-198680033D01*
X285742857Y-198680033D02*
X285495238Y-198680033D01*
X285495238Y-198680033D02*
X285371428Y-198741938D01*
X285371428Y-198741938D02*
X285309523Y-198803842D01*
X285309523Y-198803842D02*
X285247619Y-198927652D01*
D10*
D11*
X10000000Y-60000000D02*
X12000000Y-60000000D01*
D10*
D11*
X10000000Y-110000000D02*
X12000000Y-110000000D01*
D10*
D11*
X10000000Y-160000000D02*
X12000000Y-160000000D01*
D10*
D11*
X10690476Y-35106166D02*
X11309523Y-35106166D01*
X10566666Y-35477595D02*
X10999999Y-34177595D01*
X10999999Y-34177595D02*
X11433333Y-35477595D01*
D10*
D11*
X11092857Y-84796642D02*
X11278571Y-84858547D01*
X11278571Y-84858547D02*
X11340476Y-84920452D01*
X11340476Y-84920452D02*
X11402380Y-85044261D01*
X11402380Y-85044261D02*
X11402380Y-85229976D01*
X11402380Y-85229976D02*
X11340476Y-85353785D01*
X11340476Y-85353785D02*
X11278571Y-85415690D01*
X11278571Y-85415690D02*
X11154761Y-85477595D01*
X11154761Y-85477595D02*
X10659523Y-85477595D01*
X10659523Y-85477595D02*
X10659523Y-84177595D01*
X10659523Y-84177595D02*
X11092857Y-84177595D01*
X11092857Y-84177595D02*
X11216666Y-84239500D01*
X11216666Y-84239500D02*
X11278571Y-84301404D01*
X11278571Y-84301404D02*
X11340476Y-84425214D01*
X11340476Y-84425214D02*
X11340476Y-84549023D01*
X11340476Y-84549023D02*
X11278571Y-84672833D01*
X11278571Y-84672833D02*
X11216666Y-84734738D01*
X11216666Y-84734738D02*
X11092857Y-84796642D01*
X11092857Y-84796642D02*
X10659523Y-84796642D01*
D10*
D11*
X11402380Y-135353785D02*
X11340476Y-135415690D01*
X11340476Y-135415690D02*
X11154761Y-135477595D01*
X11154761Y-135477595D02*
X11030952Y-135477595D01*
X11030952Y-135477595D02*
X10845238Y-135415690D01*
X10845238Y-135415690D02*
X10721428Y-135291880D01*
X10721428Y-135291880D02*
X10659523Y-135168071D01*
X10659523Y-135168071D02*
X10597619Y-134920452D01*
X10597619Y-134920452D02*
X10597619Y-134734738D01*
X10597619Y-134734738D02*
X10659523Y-134487119D01*
X10659523Y-134487119D02*
X10721428Y-134363309D01*
X10721428Y-134363309D02*
X10845238Y-134239500D01*
X10845238Y-134239500D02*
X11030952Y-134177595D01*
X11030952Y-134177595D02*
X11154761Y-134177595D01*
X11154761Y-134177595D02*
X11340476Y-134239500D01*
X11340476Y-134239500D02*
X11402380Y-134301404D01*
D10*
D11*
X10659523Y-185477595D02*
X10659523Y-184177595D01*
X10659523Y-184177595D02*
X10969047Y-184177595D01*
X10969047Y-184177595D02*
X11154761Y-184239500D01*
X11154761Y-184239500D02*
X11278571Y-184363309D01*
X11278571Y-184363309D02*
X11340476Y-184487119D01*
X11340476Y-184487119D02*
X11402380Y-184734738D01*
X11402380Y-184734738D02*
X11402380Y-184920452D01*
X11402380Y-184920452D02*
X11340476Y-185168071D01*
X11340476Y-185168071D02*
X11278571Y-185291880D01*
X11278571Y-185291880D02*
X11154761Y-185415690D01*
X11154761Y-185415690D02*
X10969047Y-185477595D01*
X10969047Y-185477595D02*
X10659523Y-185477595D01*
D10*
D11*
X287002200Y-60000000D02*
X285002200Y-60000000D01*
D10*
D11*
X287002200Y-110000000D02*
X285002200Y-110000000D01*
D10*
D11*
X287002200Y-160000000D02*
X285002200Y-160000000D01*
D10*
D11*
X285692676Y-35106166D02*
X286311723Y-35106166D01*
X285568866Y-35477595D02*
X286002199Y-34177595D01*
X286002199Y-34177595D02*
X286435533Y-35477595D01*
D10*
D11*
X286095057Y-84796642D02*
X286280771Y-84858547D01*
X286280771Y-84858547D02*
X286342676Y-84920452D01*
X286342676Y-84920452D02*
X286404580Y-85044261D01*
X286404580Y-85044261D02*
X286404580Y-85229976D01*
X286404580Y-85229976D02*
X286342676Y-85353785D01*
X286342676Y-85353785D02*
X286280771Y-85415690D01*
X286280771Y-85415690D02*
X286156961Y-85477595D01*
X286156961Y-85477595D02*
X285661723Y-85477595D01*
X285661723Y-85477595D02*
X285661723Y-84177595D01*
X285661723Y-84177595D02*
X286095057Y-84177595D01*
X286095057Y-84177595D02*
X286218866Y-84239500D01*
X286218866Y-84239500D02*
X286280771Y-84301404D01*
X286280771Y-84301404D02*
X286342676Y-84425214D01*
X286342676Y-84425214D02*
X286342676Y-84549023D01*
X286342676Y-84549023D02*
X286280771Y-84672833D01*
X286280771Y-84672833D02*
X286218866Y-84734738D01*
X286218866Y-84734738D02*
X286095057Y-84796642D01*
X286095057Y-84796642D02*
X285661723Y-84796642D01*
D10*
D11*
X286404580Y-135353785D02*
X286342676Y-135415690D01*
X286342676Y-135415690D02*
X286156961Y-135477595D01*
X286156961Y-135477595D02*
X286033152Y-135477595D01*
X286033152Y-135477595D02*
X285847438Y-135415690D01*
X285847438Y-135415690D02*
X285723628Y-135291880D01*
X285723628Y-135291880D02*
X285661723Y-135168071D01*
X285661723Y-135168071D02*
X285599819Y-134920452D01*
X285599819Y-134920452D02*
X285599819Y-134734738D01*
X285599819Y-134734738D02*
X285661723Y-134487119D01*
X285661723Y-134487119D02*
X285723628Y-134363309D01*
X285723628Y-134363309D02*
X285847438Y-134239500D01*
X285847438Y-134239500D02*
X286033152Y-134177595D01*
X286033152Y-134177595D02*
X286156961Y-134177595D01*
X286156961Y-134177595D02*
X286342676Y-134239500D01*
X286342676Y-134239500D02*
X286404580Y-134301404D01*
D10*
D11*
X285661723Y-185477595D02*
X285661723Y-184177595D01*
X285661723Y-184177595D02*
X285971247Y-184177595D01*
X285971247Y-184177595D02*
X286156961Y-184239500D01*
X286156961Y-184239500D02*
X286280771Y-184363309D01*
X286280771Y-184363309D02*
X286342676Y-184487119D01*
X286342676Y-184487119D02*
X286404580Y-184734738D01*
X286404580Y-184734738D02*
X286404580Y-184920452D01*
X286404580Y-184920452D02*
X286342676Y-185168071D01*
X286342676Y-185168071D02*
X286280771Y-185291880D01*
X286280771Y-185291880D02*
X286156961Y-185415690D01*
X286156961Y-185415690D02*
X285971247Y-185477595D01*
X285971247Y-185477595D02*
X285661723Y-185477595D01*
D10*
D11*
X200359342Y-193658271D02*
X200359342Y-192158271D01*
X200359342Y-192158271D02*
X200716485Y-192158271D01*
X200716485Y-192158271D02*
X200930771Y-192229700D01*
X200930771Y-192229700D02*
X201073628Y-192372557D01*
X201073628Y-192372557D02*
X201145057Y-192515414D01*
X201145057Y-192515414D02*
X201216485Y-192801128D01*
X201216485Y-192801128D02*
X201216485Y-193015414D01*
X201216485Y-193015414D02*
X201145057Y-193301128D01*
X201145057Y-193301128D02*
X201073628Y-193443985D01*
X201073628Y-193443985D02*
X200930771Y-193586842D01*
X200930771Y-193586842D02*
X200716485Y-193658271D01*
X200716485Y-193658271D02*
X200359342Y-193658271D01*
X202502200Y-193658271D02*
X202502200Y-192872557D01*
X202502200Y-192872557D02*
X202430771Y-192729700D01*
X202430771Y-192729700D02*
X202287914Y-192658271D01*
X202287914Y-192658271D02*
X202002200Y-192658271D01*
X202002200Y-192658271D02*
X201859342Y-192729700D01*
X202502200Y-193586842D02*
X202359342Y-193658271D01*
X202359342Y-193658271D02*
X202002200Y-193658271D01*
X202002200Y-193658271D02*
X201859342Y-193586842D01*
X201859342Y-193586842D02*
X201787914Y-193443985D01*
X201787914Y-193443985D02*
X201787914Y-193301128D01*
X201787914Y-193301128D02*
X201859342Y-193158271D01*
X201859342Y-193158271D02*
X202002200Y-193086842D01*
X202002200Y-193086842D02*
X202359342Y-193086842D01*
X202359342Y-193086842D02*
X202502200Y-193015414D01*
X203002200Y-192658271D02*
X203573628Y-192658271D01*
X203216485Y-192158271D02*
X203216485Y-193443985D01*
X203216485Y-193443985D02*
X203287914Y-193586842D01*
X203287914Y-193586842D02*
X203430771Y-193658271D01*
X203430771Y-193658271D02*
X203573628Y-193658271D01*
X204645057Y-193586842D02*
X204502200Y-193658271D01*
X204502200Y-193658271D02*
X204216486Y-193658271D01*
X204216486Y-193658271D02*
X204073628Y-193586842D01*
X204073628Y-193586842D02*
X204002200Y-193443985D01*
X204002200Y-193443985D02*
X204002200Y-192872557D01*
X204002200Y-192872557D02*
X204073628Y-192729700D01*
X204073628Y-192729700D02*
X204216486Y-192658271D01*
X204216486Y-192658271D02*
X204502200Y-192658271D01*
X204502200Y-192658271D02*
X204645057Y-192729700D01*
X204645057Y-192729700D02*
X204716486Y-192872557D01*
X204716486Y-192872557D02*
X204716486Y-193015414D01*
X204716486Y-193015414D02*
X204002200Y-193158271D01*
X205359342Y-193515414D02*
X205430771Y-193586842D01*
X205430771Y-193586842D02*
X205359342Y-193658271D01*
X205359342Y-193658271D02*
X205287914Y-193586842D01*
X205287914Y-193586842D02*
X205359342Y-193515414D01*
X205359342Y-193515414D02*
X205359342Y-193658271D01*
X205359342Y-192729700D02*
X205430771Y-192801128D01*
X205430771Y-192801128D02*
X205359342Y-192872557D01*
X205359342Y-192872557D02*
X205287914Y-192801128D01*
X205287914Y-192801128D02*
X205359342Y-192729700D01*
X205359342Y-192729700D02*
X205359342Y-192872557D01*
D10*
D11*
X177002200Y-194507200D02*
X285002200Y-194507200D01*
D10*
D11*
X178359342Y-196458271D02*
X178359342Y-194958271D01*
X179216485Y-196458271D02*
X178573628Y-195601128D01*
X179216485Y-194958271D02*
X178359342Y-195815414D01*
X179859342Y-196458271D02*
X179859342Y-195458271D01*
X179859342Y-194958271D02*
X179787914Y-195029700D01*
X179787914Y-195029700D02*
X179859342Y-195101128D01*
X179859342Y-195101128D02*
X179930771Y-195029700D01*
X179930771Y-195029700D02*
X179859342Y-194958271D01*
X179859342Y-194958271D02*
X179859342Y-195101128D01*
X181430771Y-196315414D02*
X181359343Y-196386842D01*
X181359343Y-196386842D02*
X181145057Y-196458271D01*
X181145057Y-196458271D02*
X181002200Y-196458271D01*
X181002200Y-196458271D02*
X180787914Y-196386842D01*
X180787914Y-196386842D02*
X180645057Y-196243985D01*
X180645057Y-196243985D02*
X180573628Y-196101128D01*
X180573628Y-196101128D02*
X180502200Y-195815414D01*
X180502200Y-195815414D02*
X180502200Y-195601128D01*
X180502200Y-195601128D02*
X180573628Y-195315414D01*
X180573628Y-195315414D02*
X180645057Y-195172557D01*
X180645057Y-195172557D02*
X180787914Y-195029700D01*
X180787914Y-195029700D02*
X181002200Y-194958271D01*
X181002200Y-194958271D02*
X181145057Y-194958271D01*
X181145057Y-194958271D02*
X181359343Y-195029700D01*
X181359343Y-195029700D02*
X181430771Y-195101128D01*
X182716486Y-196458271D02*
X182716486Y-195672557D01*
X182716486Y-195672557D02*
X182645057Y-195529700D01*
X182645057Y-195529700D02*
X182502200Y-195458271D01*
X182502200Y-195458271D02*
X182216486Y-195458271D01*
X182216486Y-195458271D02*
X182073628Y-195529700D01*
X182716486Y-196386842D02*
X182573628Y-196458271D01*
X182573628Y-196458271D02*
X182216486Y-196458271D01*
X182216486Y-196458271D02*
X182073628Y-196386842D01*
X182073628Y-196386842D02*
X182002200Y-196243985D01*
X182002200Y-196243985D02*
X182002200Y-196101128D01*
X182002200Y-196101128D02*
X182073628Y-195958271D01*
X182073628Y-195958271D02*
X182216486Y-195886842D01*
X182216486Y-195886842D02*
X182573628Y-195886842D01*
X182573628Y-195886842D02*
X182716486Y-195815414D01*
X184073629Y-196458271D02*
X184073629Y-194958271D01*
X184073629Y-196386842D02*
X183930771Y-196458271D01*
X183930771Y-196458271D02*
X183645057Y-196458271D01*
X183645057Y-196458271D02*
X183502200Y-196386842D01*
X183502200Y-196386842D02*
X183430771Y-196315414D01*
X183430771Y-196315414D02*
X183359343Y-196172557D01*
X183359343Y-196172557D02*
X183359343Y-195743985D01*
X183359343Y-195743985D02*
X183430771Y-195601128D01*
X183430771Y-195601128D02*
X183502200Y-195529700D01*
X183502200Y-195529700D02*
X183645057Y-195458271D01*
X183645057Y-195458271D02*
X183930771Y-195458271D01*
X183930771Y-195458271D02*
X184073629Y-195529700D01*
X185687914Y-195672557D02*
X186187914Y-195672557D01*
X186402200Y-196458271D02*
X185687914Y-196458271D01*
X185687914Y-196458271D02*
X185687914Y-194958271D01*
X185687914Y-194958271D02*
X186402200Y-194958271D01*
X187045057Y-196315414D02*
X187116486Y-196386842D01*
X187116486Y-196386842D02*
X187045057Y-196458271D01*
X187045057Y-196458271D02*
X186973629Y-196386842D01*
X186973629Y-196386842D02*
X187045057Y-196315414D01*
X187045057Y-196315414D02*
X187045057Y-196458271D01*
X187759343Y-196458271D02*
X187759343Y-194958271D01*
X187759343Y-194958271D02*
X188116486Y-194958271D01*
X188116486Y-194958271D02*
X188330772Y-195029700D01*
X188330772Y-195029700D02*
X188473629Y-195172557D01*
X188473629Y-195172557D02*
X188545058Y-195315414D01*
X188545058Y-195315414D02*
X188616486Y-195601128D01*
X188616486Y-195601128D02*
X188616486Y-195815414D01*
X188616486Y-195815414D02*
X188545058Y-196101128D01*
X188545058Y-196101128D02*
X188473629Y-196243985D01*
X188473629Y-196243985D02*
X188330772Y-196386842D01*
X188330772Y-196386842D02*
X188116486Y-196458271D01*
X188116486Y-196458271D02*
X187759343Y-196458271D01*
X189259343Y-196315414D02*
X189330772Y-196386842D01*
X189330772Y-196386842D02*
X189259343Y-196458271D01*
X189259343Y-196458271D02*
X189187915Y-196386842D01*
X189187915Y-196386842D02*
X189259343Y-196315414D01*
X189259343Y-196315414D02*
X189259343Y-196458271D01*
X189902201Y-196029700D02*
X190616487Y-196029700D01*
X189759344Y-196458271D02*
X190259344Y-194958271D01*
X190259344Y-194958271D02*
X190759344Y-196458271D01*
X191259343Y-196315414D02*
X191330772Y-196386842D01*
X191330772Y-196386842D02*
X191259343Y-196458271D01*
X191259343Y-196458271D02*
X191187915Y-196386842D01*
X191187915Y-196386842D02*
X191259343Y-196315414D01*
X191259343Y-196315414D02*
X191259343Y-196458271D01*
X193773629Y-196458271D02*
X193773629Y-194958271D01*
X193916487Y-195886842D02*
X194345058Y-196458271D01*
X194345058Y-195458271D02*
X193773629Y-196029700D01*
X194987915Y-196458271D02*
X194987915Y-195458271D01*
X194987915Y-194958271D02*
X194916487Y-195029700D01*
X194916487Y-195029700D02*
X194987915Y-195101128D01*
X194987915Y-195101128D02*
X195059344Y-195029700D01*
X195059344Y-195029700D02*
X194987915Y-194958271D01*
X194987915Y-194958271D02*
X194987915Y-195101128D01*
X196345059Y-196386842D02*
X196202201Y-196458271D01*
X196202201Y-196458271D02*
X195916487Y-196458271D01*
X195916487Y-196458271D02*
X195773630Y-196386842D01*
X195773630Y-196386842D02*
X195702201Y-196315414D01*
X195702201Y-196315414D02*
X195630773Y-196172557D01*
X195630773Y-196172557D02*
X195630773Y-195743985D01*
X195630773Y-195743985D02*
X195702201Y-195601128D01*
X195702201Y-195601128D02*
X195773630Y-195529700D01*
X195773630Y-195529700D02*
X195916487Y-195458271D01*
X195916487Y-195458271D02*
X196202201Y-195458271D01*
X196202201Y-195458271D02*
X196345059Y-195529700D01*
X197630773Y-196458271D02*
X197630773Y-195672557D01*
X197630773Y-195672557D02*
X197559344Y-195529700D01*
X197559344Y-195529700D02*
X197416487Y-195458271D01*
X197416487Y-195458271D02*
X197130773Y-195458271D01*
X197130773Y-195458271D02*
X196987915Y-195529700D01*
X197630773Y-196386842D02*
X197487915Y-196458271D01*
X197487915Y-196458271D02*
X197130773Y-196458271D01*
X197130773Y-196458271D02*
X196987915Y-196386842D01*
X196987915Y-196386842D02*
X196916487Y-196243985D01*
X196916487Y-196243985D02*
X196916487Y-196101128D01*
X196916487Y-196101128D02*
X196987915Y-195958271D01*
X196987915Y-195958271D02*
X197130773Y-195886842D01*
X197130773Y-195886842D02*
X197487915Y-195886842D01*
X197487915Y-195886842D02*
X197630773Y-195815414D01*
X198987916Y-196458271D02*
X198987916Y-194958271D01*
X198987916Y-196386842D02*
X198845058Y-196458271D01*
X198845058Y-196458271D02*
X198559344Y-196458271D01*
X198559344Y-196458271D02*
X198416487Y-196386842D01*
X198416487Y-196386842D02*
X198345058Y-196315414D01*
X198345058Y-196315414D02*
X198273630Y-196172557D01*
X198273630Y-196172557D02*
X198273630Y-195743985D01*
X198273630Y-195743985D02*
X198345058Y-195601128D01*
X198345058Y-195601128D02*
X198416487Y-195529700D01*
X198416487Y-195529700D02*
X198559344Y-195458271D01*
X198559344Y-195458271D02*
X198845058Y-195458271D01*
X198845058Y-195458271D02*
X198987916Y-195529700D01*
X201030773Y-197029700D02*
X200959344Y-196958271D01*
X200959344Y-196958271D02*
X200816487Y-196743985D01*
X200816487Y-196743985D02*
X200745059Y-196601128D01*
X200745059Y-196601128D02*
X200673630Y-196386842D01*
X200673630Y-196386842D02*
X200602201Y-196029700D01*
X200602201Y-196029700D02*
X200602201Y-195743985D01*
X200602201Y-195743985D02*
X200673630Y-195386842D01*
X200673630Y-195386842D02*
X200745059Y-195172557D01*
X200745059Y-195172557D02*
X200816487Y-195029700D01*
X200816487Y-195029700D02*
X200959344Y-194815414D01*
X200959344Y-194815414D02*
X201030773Y-194743985D01*
X201459344Y-194958271D02*
X202459344Y-194958271D01*
X202459344Y-194958271D02*
X201816487Y-196458271D01*
X203030772Y-196315414D02*
X203102201Y-196386842D01*
X203102201Y-196386842D02*
X203030772Y-196458271D01*
X203030772Y-196458271D02*
X202959344Y-196386842D01*
X202959344Y-196386842D02*
X203030772Y-196315414D01*
X203030772Y-196315414D02*
X203030772Y-196458271D01*
X204030773Y-194958271D02*
X204173630Y-194958271D01*
X204173630Y-194958271D02*
X204316487Y-195029700D01*
X204316487Y-195029700D02*
X204387916Y-195101128D01*
X204387916Y-195101128D02*
X204459344Y-195243985D01*
X204459344Y-195243985D02*
X204530773Y-195529700D01*
X204530773Y-195529700D02*
X204530773Y-195886842D01*
X204530773Y-195886842D02*
X204459344Y-196172557D01*
X204459344Y-196172557D02*
X204387916Y-196315414D01*
X204387916Y-196315414D02*
X204316487Y-196386842D01*
X204316487Y-196386842D02*
X204173630Y-196458271D01*
X204173630Y-196458271D02*
X204030773Y-196458271D01*
X204030773Y-196458271D02*
X203887916Y-196386842D01*
X203887916Y-196386842D02*
X203816487Y-196315414D01*
X203816487Y-196315414D02*
X203745058Y-196172557D01*
X203745058Y-196172557D02*
X203673630Y-195886842D01*
X203673630Y-195886842D02*
X203673630Y-195529700D01*
X203673630Y-195529700D02*
X203745058Y-195243985D01*
X203745058Y-195243985D02*
X203816487Y-195101128D01*
X203816487Y-195101128D02*
X203887916Y-195029700D01*
X203887916Y-195029700D02*
X204030773Y-194958271D01*
X205173629Y-196315414D02*
X205245058Y-196386842D01*
X205245058Y-196386842D02*
X205173629Y-196458271D01*
X205173629Y-196458271D02*
X205102201Y-196386842D01*
X205102201Y-196386842D02*
X205173629Y-196315414D01*
X205173629Y-196315414D02*
X205173629Y-196458271D01*
X206173630Y-194958271D02*
X206316487Y-194958271D01*
X206316487Y-194958271D02*
X206459344Y-195029700D01*
X206459344Y-195029700D02*
X206530773Y-195101128D01*
X206530773Y-195101128D02*
X206602201Y-195243985D01*
X206602201Y-195243985D02*
X206673630Y-195529700D01*
X206673630Y-195529700D02*
X206673630Y-195886842D01*
X206673630Y-195886842D02*
X206602201Y-196172557D01*
X206602201Y-196172557D02*
X206530773Y-196315414D01*
X206530773Y-196315414D02*
X206459344Y-196386842D01*
X206459344Y-196386842D02*
X206316487Y-196458271D01*
X206316487Y-196458271D02*
X206173630Y-196458271D01*
X206173630Y-196458271D02*
X206030773Y-196386842D01*
X206030773Y-196386842D02*
X205959344Y-196315414D01*
X205959344Y-196315414D02*
X205887915Y-196172557D01*
X205887915Y-196172557D02*
X205816487Y-195886842D01*
X205816487Y-195886842D02*
X205816487Y-195529700D01*
X205816487Y-195529700D02*
X205887915Y-195243985D01*
X205887915Y-195243985D02*
X205959344Y-195101128D01*
X205959344Y-195101128D02*
X206030773Y-195029700D01*
X206030773Y-195029700D02*
X206173630Y-194958271D01*
X207173629Y-197029700D02*
X207245058Y-196958271D01*
X207245058Y-196958271D02*
X207387915Y-196743985D01*
X207387915Y-196743985D02*
X207459344Y-196601128D01*
X207459344Y-196601128D02*
X207530772Y-196386842D01*
X207530772Y-196386842D02*
X207602201Y-196029700D01*
X207602201Y-196029700D02*
X207602201Y-195743985D01*
X207602201Y-195743985D02*
X207530772Y-195386842D01*
X207530772Y-195386842D02*
X207459344Y-195172557D01*
X207459344Y-195172557D02*
X207387915Y-195029700D01*
X207387915Y-195029700D02*
X207245058Y-194815414D01*
X207245058Y-194815414D02*
X207173629Y-194743985D01*
D10*
D11*
X177002200Y-191507200D02*
X285002200Y-191507200D01*
D10*
D12*
X264216485Y-193658271D02*
X263716485Y-192943985D01*
X263359342Y-193658271D02*
X263359342Y-192158271D01*
X263359342Y-192158271D02*
X263930771Y-192158271D01*
X263930771Y-192158271D02*
X264073628Y-192229700D01*
X264073628Y-192229700D02*
X264145057Y-192301128D01*
X264145057Y-192301128D02*
X264216485Y-192443985D01*
X264216485Y-192443985D02*
X264216485Y-192658271D01*
X264216485Y-192658271D02*
X264145057Y-192801128D01*
X264145057Y-192801128D02*
X264073628Y-192872557D01*
X264073628Y-192872557D02*
X263930771Y-192943985D01*
X263930771Y-192943985D02*
X263359342Y-192943985D01*
X265430771Y-193586842D02*
X265287914Y-193658271D01*
X265287914Y-193658271D02*
X265002200Y-193658271D01*
X265002200Y-193658271D02*
X264859342Y-193586842D01*
X264859342Y-193586842D02*
X264787914Y-193443985D01*
X264787914Y-193443985D02*
X264787914Y-192872557D01*
X264787914Y-192872557D02*
X264859342Y-192729700D01*
X264859342Y-192729700D02*
X265002200Y-192658271D01*
X265002200Y-192658271D02*
X265287914Y-192658271D01*
X265287914Y-192658271D02*
X265430771Y-192729700D01*
X265430771Y-192729700D02*
X265502200Y-192872557D01*
X265502200Y-192872557D02*
X265502200Y-193015414D01*
X265502200Y-193015414D02*
X264787914Y-193158271D01*
X266002199Y-192658271D02*
X266359342Y-193658271D01*
X266359342Y-193658271D02*
X266716485Y-192658271D01*
X267287913Y-193515414D02*
X267359342Y-193586842D01*
X267359342Y-193586842D02*
X267287913Y-193658271D01*
X267287913Y-193658271D02*
X267216485Y-193586842D01*
X267216485Y-193586842D02*
X267287913Y-193515414D01*
X267287913Y-193515414D02*
X267287913Y-193658271D01*
X267287913Y-192729700D02*
X267359342Y-192801128D01*
X267359342Y-192801128D02*
X267287913Y-192872557D01*
X267287913Y-192872557D02*
X267216485Y-192801128D01*
X267216485Y-192801128D02*
X267287913Y-192729700D01*
X267287913Y-192729700D02*
X267287913Y-192872557D01*
D10*
D11*
X178287914Y-193586842D02*
X178502200Y-193658271D01*
X178502200Y-193658271D02*
X178859342Y-193658271D01*
X178859342Y-193658271D02*
X179002200Y-193586842D01*
X179002200Y-193586842D02*
X179073628Y-193515414D01*
X179073628Y-193515414D02*
X179145057Y-193372557D01*
X179145057Y-193372557D02*
X179145057Y-193229700D01*
X179145057Y-193229700D02*
X179073628Y-193086842D01*
X179073628Y-193086842D02*
X179002200Y-193015414D01*
X179002200Y-193015414D02*
X178859342Y-192943985D01*
X178859342Y-192943985D02*
X178573628Y-192872557D01*
X178573628Y-192872557D02*
X178430771Y-192801128D01*
X178430771Y-192801128D02*
X178359342Y-192729700D01*
X178359342Y-192729700D02*
X178287914Y-192586842D01*
X178287914Y-192586842D02*
X178287914Y-192443985D01*
X178287914Y-192443985D02*
X178359342Y-192301128D01*
X178359342Y-192301128D02*
X178430771Y-192229700D01*
X178430771Y-192229700D02*
X178573628Y-192158271D01*
X178573628Y-192158271D02*
X178930771Y-192158271D01*
X178930771Y-192158271D02*
X179145057Y-192229700D01*
X179787913Y-193658271D02*
X179787913Y-192658271D01*
X179787913Y-192158271D02*
X179716485Y-192229700D01*
X179716485Y-192229700D02*
X179787913Y-192301128D01*
X179787913Y-192301128D02*
X179859342Y-192229700D01*
X179859342Y-192229700D02*
X179787913Y-192158271D01*
X179787913Y-192158271D02*
X179787913Y-192301128D01*
X180359342Y-192658271D02*
X181145057Y-192658271D01*
X181145057Y-192658271D02*
X180359342Y-193658271D01*
X180359342Y-193658271D02*
X181145057Y-193658271D01*
X182287914Y-193586842D02*
X182145057Y-193658271D01*
X182145057Y-193658271D02*
X181859343Y-193658271D01*
X181859343Y-193658271D02*
X181716485Y-193586842D01*
X181716485Y-193586842D02*
X181645057Y-193443985D01*
X181645057Y-193443985D02*
X181645057Y-192872557D01*
X181645057Y-192872557D02*
X181716485Y-192729700D01*
X181716485Y-192729700D02*
X181859343Y-192658271D01*
X181859343Y-192658271D02*
X182145057Y-192658271D01*
X182145057Y-192658271D02*
X182287914Y-192729700D01*
X182287914Y-192729700D02*
X182359343Y-192872557D01*
X182359343Y-192872557D02*
X182359343Y-193015414D01*
X182359343Y-193015414D02*
X181645057Y-193158271D01*
X183002199Y-193515414D02*
X183073628Y-193586842D01*
X183073628Y-193586842D02*
X183002199Y-193658271D01*
X183002199Y-193658271D02*
X182930771Y-193586842D01*
X182930771Y-193586842D02*
X183002199Y-193515414D01*
X183002199Y-193515414D02*
X183002199Y-193658271D01*
X183002199Y-192729700D02*
X183073628Y-192801128D01*
X183073628Y-192801128D02*
X183002199Y-192872557D01*
X183002199Y-192872557D02*
X182930771Y-192801128D01*
X182930771Y-192801128D02*
X183002199Y-192729700D01*
X183002199Y-192729700D02*
X183002199Y-192872557D01*
X184545057Y-193229700D02*
X185259343Y-193229700D01*
X184402200Y-193658271D02*
X184902200Y-192158271D01*
X184902200Y-192158271D02*
X185402200Y-193658271D01*
X186545057Y-192658271D02*
X186545057Y-193658271D01*
X186187914Y-192086842D02*
X185830771Y-193158271D01*
X185830771Y-193158271D02*
X186759342Y-193158271D01*
D10*
D11*
X263359342Y-196458271D02*
X263359342Y-194958271D01*
X264716486Y-196458271D02*
X264716486Y-194958271D01*
X264716486Y-196386842D02*
X264573628Y-196458271D01*
X264573628Y-196458271D02*
X264287914Y-196458271D01*
X264287914Y-196458271D02*
X264145057Y-196386842D01*
X264145057Y-196386842D02*
X264073628Y-196315414D01*
X264073628Y-196315414D02*
X264002200Y-196172557D01*
X264002200Y-196172557D02*
X264002200Y-195743985D01*
X264002200Y-195743985D02*
X264073628Y-195601128D01*
X264073628Y-195601128D02*
X264145057Y-195529700D01*
X264145057Y-195529700D02*
X264287914Y-195458271D01*
X264287914Y-195458271D02*
X264573628Y-195458271D01*
X264573628Y-195458271D02*
X264716486Y-195529700D01*
X265430771Y-196315414D02*
X265502200Y-196386842D01*
X265502200Y-196386842D02*
X265430771Y-196458271D01*
X265430771Y-196458271D02*
X265359343Y-196386842D01*
X265359343Y-196386842D02*
X265430771Y-196315414D01*
X265430771Y-196315414D02*
X265430771Y-196458271D01*
X265430771Y-195529700D02*
X265502200Y-195601128D01*
X265502200Y-195601128D02*
X265430771Y-195672557D01*
X265430771Y-195672557D02*
X265359343Y-195601128D01*
X265359343Y-195601128D02*
X265430771Y-195529700D01*
X265430771Y-195529700D02*
X265430771Y-195672557D01*
X267830772Y-196458271D02*
X266973629Y-196458271D01*
X267402200Y-196458271D02*
X267402200Y-194958271D01*
X267402200Y-194958271D02*
X267259343Y-195172557D01*
X267259343Y-195172557D02*
X267116486Y-195315414D01*
X267116486Y-195315414D02*
X266973629Y-195386842D01*
X269545057Y-194886842D02*
X268259343Y-196815414D01*
X270830772Y-196458271D02*
X269973629Y-196458271D01*
X270402200Y-196458271D02*
X270402200Y-194958271D01*
X270402200Y-194958271D02*
X270259343Y-195172557D01*
X270259343Y-195172557D02*
X270116486Y-195315414D01*
X270116486Y-195315414D02*
X269973629Y-195386842D01*
D10*
D11*
X177002200Y-187507200D02*
X285002200Y-187507200D01*
D10*
D13*
X178454580Y-188041961D02*
X179597438Y-188041961D01*
X178776009Y-190041961D02*
X179026009Y-188041961D01*
X180014105Y-190041961D02*
X180180771Y-188708628D01*
X180264105Y-188041961D02*
X180156962Y-188137200D01*
X180156962Y-188137200D02*
X180240295Y-188232438D01*
X180240295Y-188232438D02*
X180347438Y-188137200D01*
X180347438Y-188137200D02*
X180264105Y-188041961D01*
X180264105Y-188041961D02*
X180240295Y-188232438D01*
X180847438Y-188708628D02*
X181609343Y-188708628D01*
X181216486Y-188041961D02*
X181002200Y-189756247D01*
X181002200Y-189756247D02*
X181073629Y-189946723D01*
X181073629Y-189946723D02*
X181252200Y-190041961D01*
X181252200Y-190041961D02*
X181442676Y-190041961D01*
X182395057Y-190041961D02*
X182216486Y-189946723D01*
X182216486Y-189946723D02*
X182145057Y-189756247D01*
X182145057Y-189756247D02*
X182359343Y-188041961D01*
X183930771Y-189946723D02*
X183728390Y-190041961D01*
X183728390Y-190041961D02*
X183347438Y-190041961D01*
X183347438Y-190041961D02*
X183168867Y-189946723D01*
X183168867Y-189946723D02*
X183097438Y-189756247D01*
X183097438Y-189756247D02*
X183192676Y-188994342D01*
X183192676Y-188994342D02*
X183311724Y-188803866D01*
X183311724Y-188803866D02*
X183514105Y-188708628D01*
X183514105Y-188708628D02*
X183895057Y-188708628D01*
X183895057Y-188708628D02*
X184073628Y-188803866D01*
X184073628Y-188803866D02*
X184145057Y-188994342D01*
X184145057Y-188994342D02*
X184121247Y-189184819D01*
X184121247Y-189184819D02*
X183145057Y-189375295D01*
X184895057Y-189851485D02*
X184978391Y-189946723D01*
X184978391Y-189946723D02*
X184871248Y-190041961D01*
X184871248Y-190041961D02*
X184787914Y-189946723D01*
X184787914Y-189946723D02*
X184895057Y-189851485D01*
X184895057Y-189851485D02*
X184871248Y-190041961D01*
X185026010Y-188803866D02*
X185109343Y-188899104D01*
X185109343Y-188899104D02*
X185002200Y-188994342D01*
X185002200Y-188994342D02*
X184918867Y-188899104D01*
X184918867Y-188899104D02*
X185026010Y-188803866D01*
X185026010Y-188803866D02*
X185002200Y-188994342D01*
D10*
D11*
X178859342Y-185472557D02*
X178359342Y-185472557D01*
X178359342Y-186258271D02*
X178359342Y-184758271D01*
X178359342Y-184758271D02*
X179073628Y-184758271D01*
X179645056Y-186258271D02*
X179645056Y-185258271D01*
X179645056Y-184758271D02*
X179573628Y-184829700D01*
X179573628Y-184829700D02*
X179645056Y-184901128D01*
X179645056Y-184901128D02*
X179716485Y-184829700D01*
X179716485Y-184829700D02*
X179645056Y-184758271D01*
X179645056Y-184758271D02*
X179645056Y-184901128D01*
X180573628Y-186258271D02*
X180430771Y-186186842D01*
X180430771Y-186186842D02*
X180359342Y-186043985D01*
X180359342Y-186043985D02*
X180359342Y-184758271D01*
X181716485Y-186186842D02*
X181573628Y-186258271D01*
X181573628Y-186258271D02*
X181287914Y-186258271D01*
X181287914Y-186258271D02*
X181145056Y-186186842D01*
X181145056Y-186186842D02*
X181073628Y-186043985D01*
X181073628Y-186043985D02*
X181073628Y-185472557D01*
X181073628Y-185472557D02*
X181145056Y-185329700D01*
X181145056Y-185329700D02*
X181287914Y-185258271D01*
X181287914Y-185258271D02*
X181573628Y-185258271D01*
X181573628Y-185258271D02*
X181716485Y-185329700D01*
X181716485Y-185329700D02*
X181787914Y-185472557D01*
X181787914Y-185472557D02*
X181787914Y-185615414D01*
X181787914Y-185615414D02*
X181073628Y-185758271D01*
X182430770Y-186115414D02*
X182502199Y-186186842D01*
X182502199Y-186186842D02*
X182430770Y-186258271D01*
X182430770Y-186258271D02*
X182359342Y-186186842D01*
X182359342Y-186186842D02*
X182430770Y-186115414D01*
X182430770Y-186115414D02*
X182430770Y-186258271D01*
X182430770Y-185329700D02*
X182502199Y-185401128D01*
X182502199Y-185401128D02*
X182430770Y-185472557D01*
X182430770Y-185472557D02*
X182359342Y-185401128D01*
X182359342Y-185401128D02*
X182430770Y-185329700D01*
X182430770Y-185329700D02*
X182430770Y-185472557D01*
X183973628Y-186186842D02*
X184187914Y-186258271D01*
X184187914Y-186258271D02*
X184545056Y-186258271D01*
X184545056Y-186258271D02*
X184687914Y-186186842D01*
X184687914Y-186186842D02*
X184759342Y-186115414D01*
X184759342Y-186115414D02*
X184830771Y-185972557D01*
X184830771Y-185972557D02*
X184830771Y-185829700D01*
X184830771Y-185829700D02*
X184759342Y-185686842D01*
X184759342Y-185686842D02*
X184687914Y-185615414D01*
X184687914Y-185615414D02*
X184545056Y-185543985D01*
X184545056Y-185543985D02*
X184259342Y-185472557D01*
X184259342Y-185472557D02*
X184116485Y-185401128D01*
X184116485Y-185401128D02*
X184045056Y-185329700D01*
X184045056Y-185329700D02*
X183973628Y-185186842D01*
X183973628Y-185186842D02*
X183973628Y-185043985D01*
X183973628Y-185043985D02*
X184045056Y-184901128D01*
X184045056Y-184901128D02*
X184116485Y-184829700D01*
X184116485Y-184829700D02*
X184259342Y-184758271D01*
X184259342Y-184758271D02*
X184616485Y-184758271D01*
X184616485Y-184758271D02*
X184830771Y-184829700D01*
X185259342Y-184758271D02*
X186116485Y-184758271D01*
X185687913Y-186258271D02*
X185687913Y-184758271D01*
X186616484Y-186258271D02*
X186616484Y-184758271D01*
X186616484Y-184758271D02*
X187116484Y-185829700D01*
X187116484Y-185829700D02*
X187616484Y-184758271D01*
X187616484Y-184758271D02*
X187616484Y-186258271D01*
X188187913Y-184758271D02*
X189116485Y-184758271D01*
X189116485Y-184758271D02*
X188616485Y-185329700D01*
X188616485Y-185329700D02*
X188830770Y-185329700D01*
X188830770Y-185329700D02*
X188973628Y-185401128D01*
X188973628Y-185401128D02*
X189045056Y-185472557D01*
X189045056Y-185472557D02*
X189116485Y-185615414D01*
X189116485Y-185615414D02*
X189116485Y-185972557D01*
X189116485Y-185972557D02*
X189045056Y-186115414D01*
X189045056Y-186115414D02*
X188973628Y-186186842D01*
X188973628Y-186186842D02*
X188830770Y-186258271D01*
X188830770Y-186258271D02*
X188402199Y-186258271D01*
X188402199Y-186258271D02*
X188259342Y-186186842D01*
X188259342Y-186186842D02*
X188187913Y-186115414D01*
X189687913Y-184901128D02*
X189759341Y-184829700D01*
X189759341Y-184829700D02*
X189902199Y-184758271D01*
X189902199Y-184758271D02*
X190259341Y-184758271D01*
X190259341Y-184758271D02*
X190402199Y-184829700D01*
X190402199Y-184829700D02*
X190473627Y-184901128D01*
X190473627Y-184901128D02*
X190545056Y-185043985D01*
X190545056Y-185043985D02*
X190545056Y-185186842D01*
X190545056Y-185186842D02*
X190473627Y-185401128D01*
X190473627Y-185401128D02*
X189616484Y-186258271D01*
X189616484Y-186258271D02*
X190545056Y-186258271D01*
X191687912Y-185472557D02*
X191187912Y-185472557D01*
X191187912Y-186258271D02*
X191187912Y-184758271D01*
X191187912Y-184758271D02*
X191902198Y-184758271D01*
X193259341Y-186258271D02*
X192402198Y-186258271D01*
X192830769Y-186258271D02*
X192830769Y-184758271D01*
X192830769Y-184758271D02*
X192687912Y-184972557D01*
X192687912Y-184972557D02*
X192545055Y-185115414D01*
X192545055Y-185115414D02*
X192402198Y-185186842D01*
X194187912Y-184758271D02*
X194330769Y-184758271D01*
X194330769Y-184758271D02*
X194473626Y-184829700D01*
X194473626Y-184829700D02*
X194545055Y-184901128D01*
X194545055Y-184901128D02*
X194616483Y-185043985D01*
X194616483Y-185043985D02*
X194687912Y-185329700D01*
X194687912Y-185329700D02*
X194687912Y-185686842D01*
X194687912Y-185686842D02*
X194616483Y-185972557D01*
X194616483Y-185972557D02*
X194545055Y-186115414D01*
X194545055Y-186115414D02*
X194473626Y-186186842D01*
X194473626Y-186186842D02*
X194330769Y-186258271D01*
X194330769Y-186258271D02*
X194187912Y-186258271D01*
X194187912Y-186258271D02*
X194045055Y-186186842D01*
X194045055Y-186186842D02*
X193973626Y-186115414D01*
X193973626Y-186115414D02*
X193902197Y-185972557D01*
X193902197Y-185972557D02*
X193830769Y-185686842D01*
X193830769Y-185686842D02*
X193830769Y-185329700D01*
X193830769Y-185329700D02*
X193902197Y-185043985D01*
X193902197Y-185043985D02*
X193973626Y-184901128D01*
X193973626Y-184901128D02*
X194045055Y-184829700D01*
X194045055Y-184829700D02*
X194187912Y-184758271D01*
X195187911Y-184758271D02*
X196116483Y-184758271D01*
X196116483Y-184758271D02*
X195616483Y-185329700D01*
X195616483Y-185329700D02*
X195830768Y-185329700D01*
X195830768Y-185329700D02*
X195973626Y-185401128D01*
X195973626Y-185401128D02*
X196045054Y-185472557D01*
X196045054Y-185472557D02*
X196116483Y-185615414D01*
X196116483Y-185615414D02*
X196116483Y-185972557D01*
X196116483Y-185972557D02*
X196045054Y-186115414D01*
X196045054Y-186115414D02*
X195973626Y-186186842D01*
X195973626Y-186186842D02*
X195830768Y-186258271D01*
X195830768Y-186258271D02*
X195402197Y-186258271D01*
X195402197Y-186258271D02*
X195259340Y-186186842D01*
X195259340Y-186186842D02*
X195187911Y-186115414D01*
X196759339Y-186115414D02*
X196830768Y-186186842D01*
X196830768Y-186186842D02*
X196759339Y-186258271D01*
X196759339Y-186258271D02*
X196687911Y-186186842D01*
X196687911Y-186186842D02*
X196759339Y-186115414D01*
X196759339Y-186115414D02*
X196759339Y-186258271D01*
X197473625Y-186258271D02*
X197473625Y-184758271D01*
X197616483Y-185686842D02*
X198045054Y-186258271D01*
X198045054Y-185258271D02*
X197473625Y-185829700D01*
X198687911Y-186258271D02*
X198687911Y-185258271D01*
X198687911Y-184758271D02*
X198616483Y-184829700D01*
X198616483Y-184829700D02*
X198687911Y-184901128D01*
X198687911Y-184901128D02*
X198759340Y-184829700D01*
X198759340Y-184829700D02*
X198687911Y-184758271D01*
X198687911Y-184758271D02*
X198687911Y-184901128D01*
X200045055Y-186186842D02*
X199902197Y-186258271D01*
X199902197Y-186258271D02*
X199616483Y-186258271D01*
X199616483Y-186258271D02*
X199473626Y-186186842D01*
X199473626Y-186186842D02*
X199402197Y-186115414D01*
X199402197Y-186115414D02*
X199330769Y-185972557D01*
X199330769Y-185972557D02*
X199330769Y-185543985D01*
X199330769Y-185543985D02*
X199402197Y-185401128D01*
X199402197Y-185401128D02*
X199473626Y-185329700D01*
X199473626Y-185329700D02*
X199616483Y-185258271D01*
X199616483Y-185258271D02*
X199902197Y-185258271D01*
X199902197Y-185258271D02*
X200045055Y-185329700D01*
X201330769Y-186258271D02*
X201330769Y-185472557D01*
X201330769Y-185472557D02*
X201259340Y-185329700D01*
X201259340Y-185329700D02*
X201116483Y-185258271D01*
X201116483Y-185258271D02*
X200830769Y-185258271D01*
X200830769Y-185258271D02*
X200687911Y-185329700D01*
X201330769Y-186186842D02*
X201187911Y-186258271D01*
X201187911Y-186258271D02*
X200830769Y-186258271D01*
X200830769Y-186258271D02*
X200687911Y-186186842D01*
X200687911Y-186186842D02*
X200616483Y-186043985D01*
X200616483Y-186043985D02*
X200616483Y-185901128D01*
X200616483Y-185901128D02*
X200687911Y-185758271D01*
X200687911Y-185758271D02*
X200830769Y-185686842D01*
X200830769Y-185686842D02*
X201187911Y-185686842D01*
X201187911Y-185686842D02*
X201330769Y-185615414D01*
X202687912Y-186258271D02*
X202687912Y-184758271D01*
X202687912Y-186186842D02*
X202545054Y-186258271D01*
X202545054Y-186258271D02*
X202259340Y-186258271D01*
X202259340Y-186258271D02*
X202116483Y-186186842D01*
X202116483Y-186186842D02*
X202045054Y-186115414D01*
X202045054Y-186115414D02*
X201973626Y-185972557D01*
X201973626Y-185972557D02*
X201973626Y-185543985D01*
X201973626Y-185543985D02*
X202045054Y-185401128D01*
X202045054Y-185401128D02*
X202116483Y-185329700D01*
X202116483Y-185329700D02*
X202259340Y-185258271D01*
X202259340Y-185258271D02*
X202545054Y-185258271D01*
X202545054Y-185258271D02*
X202687912Y-185329700D01*
X203045055Y-186401128D02*
X204187912Y-186401128D01*
X204545054Y-185258271D02*
X204545054Y-186758271D01*
X204545054Y-185329700D02*
X204687912Y-185258271D01*
X204687912Y-185258271D02*
X204973626Y-185258271D01*
X204973626Y-185258271D02*
X205116483Y-185329700D01*
X205116483Y-185329700D02*
X205187912Y-185401128D01*
X205187912Y-185401128D02*
X205259340Y-185543985D01*
X205259340Y-185543985D02*
X205259340Y-185972557D01*
X205259340Y-185972557D02*
X205187912Y-186115414D01*
X205187912Y-186115414D02*
X205116483Y-186186842D01*
X205116483Y-186186842D02*
X204973626Y-186258271D01*
X204973626Y-186258271D02*
X204687912Y-186258271D01*
X204687912Y-186258271D02*
X204545054Y-186186842D01*
X206545055Y-186186842D02*
X206402197Y-186258271D01*
X206402197Y-186258271D02*
X206116483Y-186258271D01*
X206116483Y-186258271D02*
X205973626Y-186186842D01*
X205973626Y-186186842D02*
X205902197Y-186115414D01*
X205902197Y-186115414D02*
X205830769Y-185972557D01*
X205830769Y-185972557D02*
X205830769Y-185543985D01*
X205830769Y-185543985D02*
X205902197Y-185401128D01*
X205902197Y-185401128D02*
X205973626Y-185329700D01*
X205973626Y-185329700D02*
X206116483Y-185258271D01*
X206116483Y-185258271D02*
X206402197Y-185258271D01*
X206402197Y-185258271D02*
X206545055Y-185329700D01*
X207187911Y-186258271D02*
X207187911Y-184758271D01*
X207187911Y-185329700D02*
X207330769Y-185258271D01*
X207330769Y-185258271D02*
X207616483Y-185258271D01*
X207616483Y-185258271D02*
X207759340Y-185329700D01*
X207759340Y-185329700D02*
X207830769Y-185401128D01*
X207830769Y-185401128D02*
X207902197Y-185543985D01*
X207902197Y-185543985D02*
X207902197Y-185972557D01*
X207902197Y-185972557D02*
X207830769Y-186115414D01*
X207830769Y-186115414D02*
X207759340Y-186186842D01*
X207759340Y-186186842D02*
X207616483Y-186258271D01*
X207616483Y-186258271D02*
X207330769Y-186258271D01*
X207330769Y-186258271D02*
X207187911Y-186186842D01*
D10*
D11*
X177002200Y-181507200D02*
X285002200Y-181507200D01*
D10*
D11*
X178287914Y-183486842D02*
X178502200Y-183558271D01*
X178502200Y-183558271D02*
X178859342Y-183558271D01*
X178859342Y-183558271D02*
X179002200Y-183486842D01*
X179002200Y-183486842D02*
X179073628Y-183415414D01*
X179073628Y-183415414D02*
X179145057Y-183272557D01*
X179145057Y-183272557D02*
X179145057Y-183129700D01*
X179145057Y-183129700D02*
X179073628Y-182986842D01*
X179073628Y-182986842D02*
X179002200Y-182915414D01*
X179002200Y-182915414D02*
X178859342Y-182843985D01*
X178859342Y-182843985D02*
X178573628Y-182772557D01*
X178573628Y-182772557D02*
X178430771Y-182701128D01*
X178430771Y-182701128D02*
X178359342Y-182629700D01*
X178359342Y-182629700D02*
X178287914Y-182486842D01*
X178287914Y-182486842D02*
X178287914Y-182343985D01*
X178287914Y-182343985D02*
X178359342Y-182201128D01*
X178359342Y-182201128D02*
X178430771Y-182129700D01*
X178430771Y-182129700D02*
X178573628Y-182058271D01*
X178573628Y-182058271D02*
X178930771Y-182058271D01*
X178930771Y-182058271D02*
X179145057Y-182129700D01*
X179787913Y-183558271D02*
X179787913Y-182058271D01*
X180430771Y-183558271D02*
X180430771Y-182772557D01*
X180430771Y-182772557D02*
X180359342Y-182629700D01*
X180359342Y-182629700D02*
X180216485Y-182558271D01*
X180216485Y-182558271D02*
X180002199Y-182558271D01*
X180002199Y-182558271D02*
X179859342Y-182629700D01*
X179859342Y-182629700D02*
X179787913Y-182701128D01*
X181716485Y-183486842D02*
X181573628Y-183558271D01*
X181573628Y-183558271D02*
X181287914Y-183558271D01*
X181287914Y-183558271D02*
X181145056Y-183486842D01*
X181145056Y-183486842D02*
X181073628Y-183343985D01*
X181073628Y-183343985D02*
X181073628Y-182772557D01*
X181073628Y-182772557D02*
X181145056Y-182629700D01*
X181145056Y-182629700D02*
X181287914Y-182558271D01*
X181287914Y-182558271D02*
X181573628Y-182558271D01*
X181573628Y-182558271D02*
X181716485Y-182629700D01*
X181716485Y-182629700D02*
X181787914Y-182772557D01*
X181787914Y-182772557D02*
X181787914Y-182915414D01*
X181787914Y-182915414D02*
X181073628Y-183058271D01*
X183002199Y-183486842D02*
X182859342Y-183558271D01*
X182859342Y-183558271D02*
X182573628Y-183558271D01*
X182573628Y-183558271D02*
X182430770Y-183486842D01*
X182430770Y-183486842D02*
X182359342Y-183343985D01*
X182359342Y-183343985D02*
X182359342Y-182772557D01*
X182359342Y-182772557D02*
X182430770Y-182629700D01*
X182430770Y-182629700D02*
X182573628Y-182558271D01*
X182573628Y-182558271D02*
X182859342Y-182558271D01*
X182859342Y-182558271D02*
X183002199Y-182629700D01*
X183002199Y-182629700D02*
X183073628Y-182772557D01*
X183073628Y-182772557D02*
X183073628Y-182915414D01*
X183073628Y-182915414D02*
X182359342Y-183058271D01*
X183502199Y-182558271D02*
X184073627Y-182558271D01*
X183716484Y-182058271D02*
X183716484Y-183343985D01*
X183716484Y-183343985D02*
X183787913Y-183486842D01*
X183787913Y-183486842D02*
X183930770Y-183558271D01*
X183930770Y-183558271D02*
X184073627Y-183558271D01*
X184573627Y-183415414D02*
X184645056Y-183486842D01*
X184645056Y-183486842D02*
X184573627Y-183558271D01*
X184573627Y-183558271D02*
X184502199Y-183486842D01*
X184502199Y-183486842D02*
X184573627Y-183415414D01*
X184573627Y-183415414D02*
X184573627Y-183558271D01*
X184573627Y-182629700D02*
X184645056Y-182701128D01*
X184645056Y-182701128D02*
X184573627Y-182772557D01*
X184573627Y-182772557D02*
X184502199Y-182701128D01*
X184502199Y-182701128D02*
X184573627Y-182629700D01*
X184573627Y-182629700D02*
X184573627Y-182772557D01*
D10*
D12*
D10*
D11*
D10*
D11*
D10*
D11*
D10*
D11*
D10*
D11*
X197002200Y-191507200D02*
X197002200Y-194507200D01*
D10*
D11*
X261002200Y-191507200D02*
X261002200Y-198007200D01*
D14*
%TO.C,C3*%
X150506666Y-92464428D02*
X150497142Y-92473952D01*
X150497142Y-92473952D02*
X150468571Y-92483476D01*
X150468571Y-92483476D02*
X150449523Y-92483476D01*
X150449523Y-92483476D02*
X150420952Y-92473952D01*
X150420952Y-92473952D02*
X150401904Y-92454904D01*
X150401904Y-92454904D02*
X150392381Y-92435857D01*
X150392381Y-92435857D02*
X150382857Y-92397761D01*
X150382857Y-92397761D02*
X150382857Y-92369190D01*
X150382857Y-92369190D02*
X150392381Y-92331095D01*
X150392381Y-92331095D02*
X150401904Y-92312047D01*
X150401904Y-92312047D02*
X150420952Y-92293000D01*
X150420952Y-92293000D02*
X150449523Y-92283476D01*
X150449523Y-92283476D02*
X150468571Y-92283476D01*
X150468571Y-92283476D02*
X150497142Y-92293000D01*
X150497142Y-92293000D02*
X150506666Y-92302523D01*
X150573333Y-92283476D02*
X150697142Y-92283476D01*
X150697142Y-92283476D02*
X150630476Y-92359666D01*
X150630476Y-92359666D02*
X150659047Y-92359666D01*
X150659047Y-92359666D02*
X150678095Y-92369190D01*
X150678095Y-92369190D02*
X150687619Y-92378714D01*
X150687619Y-92378714D02*
X150697142Y-92397761D01*
X150697142Y-92397761D02*
X150697142Y-92445380D01*
X150697142Y-92445380D02*
X150687619Y-92464428D01*
X150687619Y-92464428D02*
X150678095Y-92473952D01*
X150678095Y-92473952D02*
X150659047Y-92483476D01*
X150659047Y-92483476D02*
X150601904Y-92483476D01*
X150601904Y-92483476D02*
X150582857Y-92473952D01*
X150582857Y-92473952D02*
X150573333Y-92464428D01*
%TO.C,D1*%
X141663475Y-115952618D02*
X141463475Y-115952618D01*
X141463475Y-115952618D02*
X141463475Y-115904999D01*
X141463475Y-115904999D02*
X141472999Y-115876428D01*
X141472999Y-115876428D02*
X141492046Y-115857380D01*
X141492046Y-115857380D02*
X141511094Y-115847857D01*
X141511094Y-115847857D02*
X141549189Y-115838333D01*
X141549189Y-115838333D02*
X141577760Y-115838333D01*
X141577760Y-115838333D02*
X141615856Y-115847857D01*
X141615856Y-115847857D02*
X141634903Y-115857380D01*
X141634903Y-115857380D02*
X141653951Y-115876428D01*
X141653951Y-115876428D02*
X141663475Y-115904999D01*
X141663475Y-115904999D02*
X141663475Y-115952618D01*
X141663475Y-115647857D02*
X141663475Y-115762142D01*
X141663475Y-115704999D02*
X141463475Y-115704999D01*
X141463475Y-115704999D02*
X141492046Y-115724047D01*
X141492046Y-115724047D02*
X141511094Y-115743095D01*
X141511094Y-115743095D02*
X141520618Y-115762142D01*
%TO.C,C9*%
X143656666Y-91324428D02*
X143647142Y-91333952D01*
X143647142Y-91333952D02*
X143618571Y-91343476D01*
X143618571Y-91343476D02*
X143599523Y-91343476D01*
X143599523Y-91343476D02*
X143570952Y-91333952D01*
X143570952Y-91333952D02*
X143551904Y-91314904D01*
X143551904Y-91314904D02*
X143542381Y-91295857D01*
X143542381Y-91295857D02*
X143532857Y-91257761D01*
X143532857Y-91257761D02*
X143532857Y-91229190D01*
X143532857Y-91229190D02*
X143542381Y-91191095D01*
X143542381Y-91191095D02*
X143551904Y-91172047D01*
X143551904Y-91172047D02*
X143570952Y-91153000D01*
X143570952Y-91153000D02*
X143599523Y-91143476D01*
X143599523Y-91143476D02*
X143618571Y-91143476D01*
X143618571Y-91143476D02*
X143647142Y-91153000D01*
X143647142Y-91153000D02*
X143656666Y-91162523D01*
X143751904Y-91343476D02*
X143790000Y-91343476D01*
X143790000Y-91343476D02*
X143809047Y-91333952D01*
X143809047Y-91333952D02*
X143818571Y-91324428D01*
X143818571Y-91324428D02*
X143837619Y-91295857D01*
X143837619Y-91295857D02*
X143847142Y-91257761D01*
X143847142Y-91257761D02*
X143847142Y-91181571D01*
X143847142Y-91181571D02*
X143837619Y-91162523D01*
X143837619Y-91162523D02*
X143828095Y-91153000D01*
X143828095Y-91153000D02*
X143809047Y-91143476D01*
X143809047Y-91143476D02*
X143770952Y-91143476D01*
X143770952Y-91143476D02*
X143751904Y-91153000D01*
X143751904Y-91153000D02*
X143742381Y-91162523D01*
X143742381Y-91162523D02*
X143732857Y-91181571D01*
X143732857Y-91181571D02*
X143732857Y-91229190D01*
X143732857Y-91229190D02*
X143742381Y-91248238D01*
X143742381Y-91248238D02*
X143751904Y-91257761D01*
X143751904Y-91257761D02*
X143770952Y-91267285D01*
X143770952Y-91267285D02*
X143809047Y-91267285D01*
X143809047Y-91267285D02*
X143828095Y-91257761D01*
X143828095Y-91257761D02*
X143837619Y-91248238D01*
X143837619Y-91248238D02*
X143847142Y-91229190D01*
%TO.C,C6*%
X153134428Y-96053333D02*
X153143952Y-96062857D01*
X153143952Y-96062857D02*
X153153476Y-96091428D01*
X153153476Y-96091428D02*
X153153476Y-96110476D01*
X153153476Y-96110476D02*
X153143952Y-96139047D01*
X153143952Y-96139047D02*
X153124904Y-96158095D01*
X153124904Y-96158095D02*
X153105857Y-96167618D01*
X153105857Y-96167618D02*
X153067761Y-96177142D01*
X153067761Y-96177142D02*
X153039190Y-96177142D01*
X153039190Y-96177142D02*
X153001095Y-96167618D01*
X153001095Y-96167618D02*
X152982047Y-96158095D01*
X152982047Y-96158095D02*
X152963000Y-96139047D01*
X152963000Y-96139047D02*
X152953476Y-96110476D01*
X152953476Y-96110476D02*
X152953476Y-96091428D01*
X152953476Y-96091428D02*
X152963000Y-96062857D01*
X152963000Y-96062857D02*
X152972523Y-96053333D01*
X152953476Y-95881904D02*
X152953476Y-95919999D01*
X152953476Y-95919999D02*
X152963000Y-95939047D01*
X152963000Y-95939047D02*
X152972523Y-95948571D01*
X152972523Y-95948571D02*
X153001095Y-95967618D01*
X153001095Y-95967618D02*
X153039190Y-95977142D01*
X153039190Y-95977142D02*
X153115380Y-95977142D01*
X153115380Y-95977142D02*
X153134428Y-95967618D01*
X153134428Y-95967618D02*
X153143952Y-95958095D01*
X153143952Y-95958095D02*
X153153476Y-95939047D01*
X153153476Y-95939047D02*
X153153476Y-95900952D01*
X153153476Y-95900952D02*
X153143952Y-95881904D01*
X153143952Y-95881904D02*
X153134428Y-95872380D01*
X153134428Y-95872380D02*
X153115380Y-95862857D01*
X153115380Y-95862857D02*
X153067761Y-95862857D01*
X153067761Y-95862857D02*
X153048714Y-95872380D01*
X153048714Y-95872380D02*
X153039190Y-95881904D01*
X153039190Y-95881904D02*
X153029666Y-95900952D01*
X153029666Y-95900952D02*
X153029666Y-95939047D01*
X153029666Y-95939047D02*
X153039190Y-95958095D01*
X153039190Y-95958095D02*
X153048714Y-95967618D01*
X153048714Y-95967618D02*
X153067761Y-95977142D01*
%TO.C,R2*%
X156593476Y-90353333D02*
X156498238Y-90419999D01*
X156593476Y-90467618D02*
X156393476Y-90467618D01*
X156393476Y-90467618D02*
X156393476Y-90391428D01*
X156393476Y-90391428D02*
X156403000Y-90372380D01*
X156403000Y-90372380D02*
X156412523Y-90362857D01*
X156412523Y-90362857D02*
X156431571Y-90353333D01*
X156431571Y-90353333D02*
X156460142Y-90353333D01*
X156460142Y-90353333D02*
X156479190Y-90362857D01*
X156479190Y-90362857D02*
X156488714Y-90372380D01*
X156488714Y-90372380D02*
X156498238Y-90391428D01*
X156498238Y-90391428D02*
X156498238Y-90467618D01*
X156412523Y-90277142D02*
X156403000Y-90267618D01*
X156403000Y-90267618D02*
X156393476Y-90248571D01*
X156393476Y-90248571D02*
X156393476Y-90200952D01*
X156393476Y-90200952D02*
X156403000Y-90181904D01*
X156403000Y-90181904D02*
X156412523Y-90172380D01*
X156412523Y-90172380D02*
X156431571Y-90162857D01*
X156431571Y-90162857D02*
X156450619Y-90162857D01*
X156450619Y-90162857D02*
X156479190Y-90172380D01*
X156479190Y-90172380D02*
X156593476Y-90286666D01*
X156593476Y-90286666D02*
X156593476Y-90162857D01*
D11*
%TO.C,J3*%
X161876666Y-118337380D02*
X161876666Y-119051666D01*
X161876666Y-119051666D02*
X161829047Y-119194523D01*
X161829047Y-119194523D02*
X161733809Y-119289761D01*
X161733809Y-119289761D02*
X161590952Y-119337380D01*
X161590952Y-119337380D02*
X161495714Y-119337380D01*
X162257619Y-118337380D02*
X162876666Y-118337380D01*
X162876666Y-118337380D02*
X162543333Y-118718333D01*
X162543333Y-118718333D02*
X162686190Y-118718333D01*
X162686190Y-118718333D02*
X162781428Y-118765952D01*
X162781428Y-118765952D02*
X162829047Y-118813571D01*
X162829047Y-118813571D02*
X162876666Y-118908809D01*
X162876666Y-118908809D02*
X162876666Y-119146904D01*
X162876666Y-119146904D02*
X162829047Y-119242142D01*
X162829047Y-119242142D02*
X162781428Y-119289761D01*
X162781428Y-119289761D02*
X162686190Y-119337380D01*
X162686190Y-119337380D02*
X162400476Y-119337380D01*
X162400476Y-119337380D02*
X162305238Y-119289761D01*
X162305238Y-119289761D02*
X162257619Y-119242142D01*
%TO.C,R1*%
X141113333Y-119157380D02*
X140780000Y-118681190D01*
X140541905Y-119157380D02*
X140541905Y-118157380D01*
X140541905Y-118157380D02*
X140922857Y-118157380D01*
X140922857Y-118157380D02*
X141018095Y-118205000D01*
X141018095Y-118205000D02*
X141065714Y-118252619D01*
X141065714Y-118252619D02*
X141113333Y-118347857D01*
X141113333Y-118347857D02*
X141113333Y-118490714D01*
X141113333Y-118490714D02*
X141065714Y-118585952D01*
X141065714Y-118585952D02*
X141018095Y-118633571D01*
X141018095Y-118633571D02*
X140922857Y-118681190D01*
X140922857Y-118681190D02*
X140541905Y-118681190D01*
X142065714Y-119157380D02*
X141494286Y-119157380D01*
X141780000Y-119157380D02*
X141780000Y-118157380D01*
X141780000Y-118157380D02*
X141684762Y-118300238D01*
X141684762Y-118300238D02*
X141589524Y-118395476D01*
X141589524Y-118395476D02*
X141494286Y-118443095D01*
D14*
%TO.C,C7*%
X150846666Y-93314428D02*
X150837142Y-93323952D01*
X150837142Y-93323952D02*
X150808571Y-93333476D01*
X150808571Y-93333476D02*
X150789523Y-93333476D01*
X150789523Y-93333476D02*
X150760952Y-93323952D01*
X150760952Y-93323952D02*
X150741904Y-93304904D01*
X150741904Y-93304904D02*
X150732381Y-93285857D01*
X150732381Y-93285857D02*
X150722857Y-93247761D01*
X150722857Y-93247761D02*
X150722857Y-93219190D01*
X150722857Y-93219190D02*
X150732381Y-93181095D01*
X150732381Y-93181095D02*
X150741904Y-93162047D01*
X150741904Y-93162047D02*
X150760952Y-93143000D01*
X150760952Y-93143000D02*
X150789523Y-93133476D01*
X150789523Y-93133476D02*
X150808571Y-93133476D01*
X150808571Y-93133476D02*
X150837142Y-93143000D01*
X150837142Y-93143000D02*
X150846666Y-93152523D01*
X150913333Y-93133476D02*
X151046666Y-93133476D01*
X151046666Y-93133476D02*
X150960952Y-93333476D01*
D11*
%TO.C,J1*%
X160126666Y-102042380D02*
X160126666Y-102756666D01*
X160126666Y-102756666D02*
X160079047Y-102899523D01*
X160079047Y-102899523D02*
X159983809Y-102994761D01*
X159983809Y-102994761D02*
X159840952Y-103042380D01*
X159840952Y-103042380D02*
X159745714Y-103042380D01*
X161126666Y-103042380D02*
X160555238Y-103042380D01*
X160840952Y-103042380D02*
X160840952Y-102042380D01*
X160840952Y-102042380D02*
X160745714Y-102185238D01*
X160745714Y-102185238D02*
X160650476Y-102280476D01*
X160650476Y-102280476D02*
X160555238Y-102328095D01*
D14*
%TO.C,FB1*%
X143708714Y-89866666D02*
X143708714Y-89933332D01*
X143813476Y-89933332D02*
X143613476Y-89933332D01*
X143613476Y-89933332D02*
X143613476Y-89838094D01*
X143708714Y-89695237D02*
X143718238Y-89666665D01*
X143718238Y-89666665D02*
X143727761Y-89657142D01*
X143727761Y-89657142D02*
X143746809Y-89647618D01*
X143746809Y-89647618D02*
X143775380Y-89647618D01*
X143775380Y-89647618D02*
X143794428Y-89657142D01*
X143794428Y-89657142D02*
X143803952Y-89666665D01*
X143803952Y-89666665D02*
X143813476Y-89685713D01*
X143813476Y-89685713D02*
X143813476Y-89761903D01*
X143813476Y-89761903D02*
X143613476Y-89761903D01*
X143613476Y-89761903D02*
X143613476Y-89695237D01*
X143613476Y-89695237D02*
X143623000Y-89676189D01*
X143623000Y-89676189D02*
X143632523Y-89666665D01*
X143632523Y-89666665D02*
X143651571Y-89657142D01*
X143651571Y-89657142D02*
X143670619Y-89657142D01*
X143670619Y-89657142D02*
X143689666Y-89666665D01*
X143689666Y-89666665D02*
X143699190Y-89676189D01*
X143699190Y-89676189D02*
X143708714Y-89695237D01*
X143708714Y-89695237D02*
X143708714Y-89761903D01*
X143813476Y-89457142D02*
X143813476Y-89571427D01*
X143813476Y-89514284D02*
X143613476Y-89514284D01*
X143613476Y-89514284D02*
X143642047Y-89533332D01*
X143642047Y-89533332D02*
X143661095Y-89552380D01*
X143661095Y-89552380D02*
X143670619Y-89571427D01*
%TO.C,C4*%
X140434428Y-103143333D02*
X140443952Y-103152857D01*
X140443952Y-103152857D02*
X140453476Y-103181428D01*
X140453476Y-103181428D02*
X140453476Y-103200476D01*
X140453476Y-103200476D02*
X140443952Y-103229047D01*
X140443952Y-103229047D02*
X140424904Y-103248095D01*
X140424904Y-103248095D02*
X140405857Y-103257618D01*
X140405857Y-103257618D02*
X140367761Y-103267142D01*
X140367761Y-103267142D02*
X140339190Y-103267142D01*
X140339190Y-103267142D02*
X140301095Y-103257618D01*
X140301095Y-103257618D02*
X140282047Y-103248095D01*
X140282047Y-103248095D02*
X140263000Y-103229047D01*
X140263000Y-103229047D02*
X140253476Y-103200476D01*
X140253476Y-103200476D02*
X140253476Y-103181428D01*
X140253476Y-103181428D02*
X140263000Y-103152857D01*
X140263000Y-103152857D02*
X140272523Y-103143333D01*
X140320142Y-102971904D02*
X140453476Y-102971904D01*
X140243952Y-103019523D02*
X140386809Y-103067142D01*
X140386809Y-103067142D02*
X140386809Y-102943333D01*
%TO.C,U2*%
X149933476Y-103682380D02*
X150095380Y-103682380D01*
X150095380Y-103682380D02*
X150114428Y-103672857D01*
X150114428Y-103672857D02*
X150123952Y-103663333D01*
X150123952Y-103663333D02*
X150133476Y-103644285D01*
X150133476Y-103644285D02*
X150133476Y-103606190D01*
X150133476Y-103606190D02*
X150123952Y-103587142D01*
X150123952Y-103587142D02*
X150114428Y-103577619D01*
X150114428Y-103577619D02*
X150095380Y-103568095D01*
X150095380Y-103568095D02*
X149933476Y-103568095D01*
X149952523Y-103482380D02*
X149943000Y-103472856D01*
X149943000Y-103472856D02*
X149933476Y-103453809D01*
X149933476Y-103453809D02*
X149933476Y-103406190D01*
X149933476Y-103406190D02*
X149943000Y-103387142D01*
X149943000Y-103387142D02*
X149952523Y-103377618D01*
X149952523Y-103377618D02*
X149971571Y-103368095D01*
X149971571Y-103368095D02*
X149990619Y-103368095D01*
X149990619Y-103368095D02*
X150019190Y-103377618D01*
X150019190Y-103377618D02*
X150133476Y-103491904D01*
X150133476Y-103491904D02*
X150133476Y-103368095D01*
%TO.C,C8*%
X145146666Y-93394428D02*
X145137142Y-93403952D01*
X145137142Y-93403952D02*
X145108571Y-93413476D01*
X145108571Y-93413476D02*
X145089523Y-93413476D01*
X145089523Y-93413476D02*
X145060952Y-93403952D01*
X145060952Y-93403952D02*
X145041904Y-93384904D01*
X145041904Y-93384904D02*
X145032381Y-93365857D01*
X145032381Y-93365857D02*
X145022857Y-93327761D01*
X145022857Y-93327761D02*
X145022857Y-93299190D01*
X145022857Y-93299190D02*
X145032381Y-93261095D01*
X145032381Y-93261095D02*
X145041904Y-93242047D01*
X145041904Y-93242047D02*
X145060952Y-93223000D01*
X145060952Y-93223000D02*
X145089523Y-93213476D01*
X145089523Y-93213476D02*
X145108571Y-93213476D01*
X145108571Y-93213476D02*
X145137142Y-93223000D01*
X145137142Y-93223000D02*
X145146666Y-93232523D01*
X145260952Y-93299190D02*
X145241904Y-93289666D01*
X145241904Y-93289666D02*
X145232381Y-93280142D01*
X145232381Y-93280142D02*
X145222857Y-93261095D01*
X145222857Y-93261095D02*
X145222857Y-93251571D01*
X145222857Y-93251571D02*
X145232381Y-93232523D01*
X145232381Y-93232523D02*
X145241904Y-93223000D01*
X145241904Y-93223000D02*
X145260952Y-93213476D01*
X145260952Y-93213476D02*
X145299047Y-93213476D01*
X145299047Y-93213476D02*
X145318095Y-93223000D01*
X145318095Y-93223000D02*
X145327619Y-93232523D01*
X145327619Y-93232523D02*
X145337142Y-93251571D01*
X145337142Y-93251571D02*
X145337142Y-93261095D01*
X145337142Y-93261095D02*
X145327619Y-93280142D01*
X145327619Y-93280142D02*
X145318095Y-93289666D01*
X145318095Y-93289666D02*
X145299047Y-93299190D01*
X145299047Y-93299190D02*
X145260952Y-93299190D01*
X145260952Y-93299190D02*
X145241904Y-93308714D01*
X145241904Y-93308714D02*
X145232381Y-93318238D01*
X145232381Y-93318238D02*
X145222857Y-93337285D01*
X145222857Y-93337285D02*
X145222857Y-93375380D01*
X145222857Y-93375380D02*
X145232381Y-93394428D01*
X145232381Y-93394428D02*
X145241904Y-93403952D01*
X145241904Y-93403952D02*
X145260952Y-93413476D01*
X145260952Y-93413476D02*
X145299047Y-93413476D01*
X145299047Y-93413476D02*
X145318095Y-93403952D01*
X145318095Y-93403952D02*
X145327619Y-93394428D01*
X145327619Y-93394428D02*
X145337142Y-93375380D01*
X145337142Y-93375380D02*
X145337142Y-93337285D01*
X145337142Y-93337285D02*
X145327619Y-93318238D01*
X145327619Y-93318238D02*
X145318095Y-93308714D01*
X145318095Y-93308714D02*
X145299047Y-93299190D01*
%TO.C,C12*%
X151071428Y-90574428D02*
X151061904Y-90583952D01*
X151061904Y-90583952D02*
X151033333Y-90593476D01*
X151033333Y-90593476D02*
X151014285Y-90593476D01*
X151014285Y-90593476D02*
X150985714Y-90583952D01*
X150985714Y-90583952D02*
X150966666Y-90564904D01*
X150966666Y-90564904D02*
X150957143Y-90545857D01*
X150957143Y-90545857D02*
X150947619Y-90507761D01*
X150947619Y-90507761D02*
X150947619Y-90479190D01*
X150947619Y-90479190D02*
X150957143Y-90441095D01*
X150957143Y-90441095D02*
X150966666Y-90422047D01*
X150966666Y-90422047D02*
X150985714Y-90403000D01*
X150985714Y-90403000D02*
X151014285Y-90393476D01*
X151014285Y-90393476D02*
X151033333Y-90393476D01*
X151033333Y-90393476D02*
X151061904Y-90403000D01*
X151061904Y-90403000D02*
X151071428Y-90412523D01*
X151261904Y-90593476D02*
X151147619Y-90593476D01*
X151204762Y-90593476D02*
X151204762Y-90393476D01*
X151204762Y-90393476D02*
X151185714Y-90422047D01*
X151185714Y-90422047D02*
X151166666Y-90441095D01*
X151166666Y-90441095D02*
X151147619Y-90450619D01*
X151338095Y-90412523D02*
X151347619Y-90403000D01*
X151347619Y-90403000D02*
X151366666Y-90393476D01*
X151366666Y-90393476D02*
X151414285Y-90393476D01*
X151414285Y-90393476D02*
X151433333Y-90403000D01*
X151433333Y-90403000D02*
X151442857Y-90412523D01*
X151442857Y-90412523D02*
X151452380Y-90431571D01*
X151452380Y-90431571D02*
X151452380Y-90450619D01*
X151452380Y-90450619D02*
X151442857Y-90479190D01*
X151442857Y-90479190D02*
X151328571Y-90593476D01*
X151328571Y-90593476D02*
X151452380Y-90593476D01*
D11*
%TO.C,U1*%
X134938095Y-118107380D02*
X134938095Y-118916904D01*
X134938095Y-118916904D02*
X134985714Y-119012142D01*
X134985714Y-119012142D02*
X135033333Y-119059761D01*
X135033333Y-119059761D02*
X135128571Y-119107380D01*
X135128571Y-119107380D02*
X135319047Y-119107380D01*
X135319047Y-119107380D02*
X135414285Y-119059761D01*
X135414285Y-119059761D02*
X135461904Y-119012142D01*
X135461904Y-119012142D02*
X135509523Y-118916904D01*
X135509523Y-118916904D02*
X135509523Y-118107380D01*
X136509523Y-119107380D02*
X135938095Y-119107380D01*
X136223809Y-119107380D02*
X136223809Y-118107380D01*
X136223809Y-118107380D02*
X136128571Y-118250238D01*
X136128571Y-118250238D02*
X136033333Y-118345476D01*
X136033333Y-118345476D02*
X135938095Y-118393095D01*
%TO.C,J4*%
X134916666Y-77347380D02*
X134916666Y-78061666D01*
X134916666Y-78061666D02*
X134869047Y-78204523D01*
X134869047Y-78204523D02*
X134773809Y-78299761D01*
X134773809Y-78299761D02*
X134630952Y-78347380D01*
X134630952Y-78347380D02*
X134535714Y-78347380D01*
X135821428Y-77680714D02*
X135821428Y-78347380D01*
X135583333Y-77299761D02*
X135345238Y-78014047D01*
X135345238Y-78014047D02*
X135964285Y-78014047D01*
%TO.C,Y1*%
X148263809Y-85521190D02*
X148263809Y-85997380D01*
X147930476Y-84997380D02*
X148263809Y-85521190D01*
X148263809Y-85521190D02*
X148597142Y-84997380D01*
X149454285Y-85997380D02*
X148882857Y-85997380D01*
X149168571Y-85997380D02*
X149168571Y-84997380D01*
X149168571Y-84997380D02*
X149073333Y-85140238D01*
X149073333Y-85140238D02*
X148978095Y-85235476D01*
X148978095Y-85235476D02*
X148882857Y-85283095D01*
D14*
%TO.C,C1*%
X139506666Y-110184428D02*
X139497142Y-110193952D01*
X139497142Y-110193952D02*
X139468571Y-110203476D01*
X139468571Y-110203476D02*
X139449523Y-110203476D01*
X139449523Y-110203476D02*
X139420952Y-110193952D01*
X139420952Y-110193952D02*
X139401904Y-110174904D01*
X139401904Y-110174904D02*
X139392381Y-110155857D01*
X139392381Y-110155857D02*
X139382857Y-110117761D01*
X139382857Y-110117761D02*
X139382857Y-110089190D01*
X139382857Y-110089190D02*
X139392381Y-110051095D01*
X139392381Y-110051095D02*
X139401904Y-110032047D01*
X139401904Y-110032047D02*
X139420952Y-110013000D01*
X139420952Y-110013000D02*
X139449523Y-110003476D01*
X139449523Y-110003476D02*
X139468571Y-110003476D01*
X139468571Y-110003476D02*
X139497142Y-110013000D01*
X139497142Y-110013000D02*
X139506666Y-110022523D01*
X139697142Y-110203476D02*
X139582857Y-110203476D01*
X139640000Y-110203476D02*
X139640000Y-110003476D01*
X139640000Y-110003476D02*
X139620952Y-110032047D01*
X139620952Y-110032047D02*
X139601904Y-110051095D01*
X139601904Y-110051095D02*
X139582857Y-110060619D01*
D11*
%TO.C,R3*%
X148233333Y-109467380D02*
X147900000Y-108991190D01*
X147661905Y-109467380D02*
X147661905Y-108467380D01*
X147661905Y-108467380D02*
X148042857Y-108467380D01*
X148042857Y-108467380D02*
X148138095Y-108515000D01*
X148138095Y-108515000D02*
X148185714Y-108562619D01*
X148185714Y-108562619D02*
X148233333Y-108657857D01*
X148233333Y-108657857D02*
X148233333Y-108800714D01*
X148233333Y-108800714D02*
X148185714Y-108895952D01*
X148185714Y-108895952D02*
X148138095Y-108943571D01*
X148138095Y-108943571D02*
X148042857Y-108991190D01*
X148042857Y-108991190D02*
X147661905Y-108991190D01*
X148566667Y-108467380D02*
X149185714Y-108467380D01*
X149185714Y-108467380D02*
X148852381Y-108848333D01*
X148852381Y-108848333D02*
X148995238Y-108848333D01*
X148995238Y-108848333D02*
X149090476Y-108895952D01*
X149090476Y-108895952D02*
X149138095Y-108943571D01*
X149138095Y-108943571D02*
X149185714Y-109038809D01*
X149185714Y-109038809D02*
X149185714Y-109276904D01*
X149185714Y-109276904D02*
X149138095Y-109372142D01*
X149138095Y-109372142D02*
X149090476Y-109419761D01*
X149090476Y-109419761D02*
X148995238Y-109467380D01*
X148995238Y-109467380D02*
X148709524Y-109467380D01*
X148709524Y-109467380D02*
X148614286Y-109419761D01*
X148614286Y-109419761D02*
X148566667Y-109372142D01*
D14*
%TO.C,C13*%
X148311428Y-91154428D02*
X148301904Y-91163952D01*
X148301904Y-91163952D02*
X148273333Y-91173476D01*
X148273333Y-91173476D02*
X148254285Y-91173476D01*
X148254285Y-91173476D02*
X148225714Y-91163952D01*
X148225714Y-91163952D02*
X148206666Y-91144904D01*
X148206666Y-91144904D02*
X148197143Y-91125857D01*
X148197143Y-91125857D02*
X148187619Y-91087761D01*
X148187619Y-91087761D02*
X148187619Y-91059190D01*
X148187619Y-91059190D02*
X148197143Y-91021095D01*
X148197143Y-91021095D02*
X148206666Y-91002047D01*
X148206666Y-91002047D02*
X148225714Y-90983000D01*
X148225714Y-90983000D02*
X148254285Y-90973476D01*
X148254285Y-90973476D02*
X148273333Y-90973476D01*
X148273333Y-90973476D02*
X148301904Y-90983000D01*
X148301904Y-90983000D02*
X148311428Y-90992523D01*
X148501904Y-91173476D02*
X148387619Y-91173476D01*
X148444762Y-91173476D02*
X148444762Y-90973476D01*
X148444762Y-90973476D02*
X148425714Y-91002047D01*
X148425714Y-91002047D02*
X148406666Y-91021095D01*
X148406666Y-91021095D02*
X148387619Y-91030619D01*
X148568571Y-90973476D02*
X148692380Y-90973476D01*
X148692380Y-90973476D02*
X148625714Y-91049666D01*
X148625714Y-91049666D02*
X148654285Y-91049666D01*
X148654285Y-91049666D02*
X148673333Y-91059190D01*
X148673333Y-91059190D02*
X148682857Y-91068714D01*
X148682857Y-91068714D02*
X148692380Y-91087761D01*
X148692380Y-91087761D02*
X148692380Y-91135380D01*
X148692380Y-91135380D02*
X148682857Y-91154428D01*
X148682857Y-91154428D02*
X148673333Y-91163952D01*
X148673333Y-91163952D02*
X148654285Y-91173476D01*
X148654285Y-91173476D02*
X148597142Y-91173476D01*
X148597142Y-91173476D02*
X148578095Y-91163952D01*
X148578095Y-91163952D02*
X148568571Y-91154428D01*
%TO.C,C2*%
X142634428Y-114563333D02*
X142643952Y-114572857D01*
X142643952Y-114572857D02*
X142653476Y-114601428D01*
X142653476Y-114601428D02*
X142653476Y-114620476D01*
X142653476Y-114620476D02*
X142643952Y-114649047D01*
X142643952Y-114649047D02*
X142624904Y-114668095D01*
X142624904Y-114668095D02*
X142605857Y-114677618D01*
X142605857Y-114677618D02*
X142567761Y-114687142D01*
X142567761Y-114687142D02*
X142539190Y-114687142D01*
X142539190Y-114687142D02*
X142501095Y-114677618D01*
X142501095Y-114677618D02*
X142482047Y-114668095D01*
X142482047Y-114668095D02*
X142463000Y-114649047D01*
X142463000Y-114649047D02*
X142453476Y-114620476D01*
X142453476Y-114620476D02*
X142453476Y-114601428D01*
X142453476Y-114601428D02*
X142463000Y-114572857D01*
X142463000Y-114572857D02*
X142472523Y-114563333D01*
X142472523Y-114487142D02*
X142463000Y-114477618D01*
X142463000Y-114477618D02*
X142453476Y-114458571D01*
X142453476Y-114458571D02*
X142453476Y-114410952D01*
X142453476Y-114410952D02*
X142463000Y-114391904D01*
X142463000Y-114391904D02*
X142472523Y-114382380D01*
X142472523Y-114382380D02*
X142491571Y-114372857D01*
X142491571Y-114372857D02*
X142510619Y-114372857D01*
X142510619Y-114372857D02*
X142539190Y-114382380D01*
X142539190Y-114382380D02*
X142653476Y-114496666D01*
X142653476Y-114496666D02*
X142653476Y-114372857D01*
%TO.C,C5*%
X149856666Y-105394428D02*
X149847142Y-105403952D01*
X149847142Y-105403952D02*
X149818571Y-105413476D01*
X149818571Y-105413476D02*
X149799523Y-105413476D01*
X149799523Y-105413476D02*
X149770952Y-105403952D01*
X149770952Y-105403952D02*
X149751904Y-105384904D01*
X149751904Y-105384904D02*
X149742381Y-105365857D01*
X149742381Y-105365857D02*
X149732857Y-105327761D01*
X149732857Y-105327761D02*
X149732857Y-105299190D01*
X149732857Y-105299190D02*
X149742381Y-105261095D01*
X149742381Y-105261095D02*
X149751904Y-105242047D01*
X149751904Y-105242047D02*
X149770952Y-105223000D01*
X149770952Y-105223000D02*
X149799523Y-105213476D01*
X149799523Y-105213476D02*
X149818571Y-105213476D01*
X149818571Y-105213476D02*
X149847142Y-105223000D01*
X149847142Y-105223000D02*
X149856666Y-105232523D01*
X150037619Y-105213476D02*
X149942381Y-105213476D01*
X149942381Y-105213476D02*
X149932857Y-105308714D01*
X149932857Y-105308714D02*
X149942381Y-105299190D01*
X149942381Y-105299190D02*
X149961428Y-105289666D01*
X149961428Y-105289666D02*
X150009047Y-105289666D01*
X150009047Y-105289666D02*
X150028095Y-105299190D01*
X150028095Y-105299190D02*
X150037619Y-105308714D01*
X150037619Y-105308714D02*
X150047142Y-105327761D01*
X150047142Y-105327761D02*
X150047142Y-105375380D01*
X150047142Y-105375380D02*
X150037619Y-105394428D01*
X150037619Y-105394428D02*
X150028095Y-105403952D01*
X150028095Y-105403952D02*
X150009047Y-105413476D01*
X150009047Y-105413476D02*
X149961428Y-105413476D01*
X149961428Y-105413476D02*
X149942381Y-105403952D01*
X149942381Y-105403952D02*
X149932857Y-105394428D01*
D11*
%TO.C,SW1*%
X149656667Y-80629761D02*
X149799524Y-80677380D01*
X149799524Y-80677380D02*
X150037619Y-80677380D01*
X150037619Y-80677380D02*
X150132857Y-80629761D01*
X150132857Y-80629761D02*
X150180476Y-80582142D01*
X150180476Y-80582142D02*
X150228095Y-80486904D01*
X150228095Y-80486904D02*
X150228095Y-80391666D01*
X150228095Y-80391666D02*
X150180476Y-80296428D01*
X150180476Y-80296428D02*
X150132857Y-80248809D01*
X150132857Y-80248809D02*
X150037619Y-80201190D01*
X150037619Y-80201190D02*
X149847143Y-80153571D01*
X149847143Y-80153571D02*
X149751905Y-80105952D01*
X149751905Y-80105952D02*
X149704286Y-80058333D01*
X149704286Y-80058333D02*
X149656667Y-79963095D01*
X149656667Y-79963095D02*
X149656667Y-79867857D01*
X149656667Y-79867857D02*
X149704286Y-79772619D01*
X149704286Y-79772619D02*
X149751905Y-79725000D01*
X149751905Y-79725000D02*
X149847143Y-79677380D01*
X149847143Y-79677380D02*
X150085238Y-79677380D01*
X150085238Y-79677380D02*
X150228095Y-79725000D01*
X150561429Y-79677380D02*
X150799524Y-80677380D01*
X150799524Y-80677380D02*
X150990000Y-79963095D01*
X150990000Y-79963095D02*
X151180476Y-80677380D01*
X151180476Y-80677380D02*
X151418572Y-79677380D01*
X152323333Y-80677380D02*
X151751905Y-80677380D01*
X152037619Y-80677380D02*
X152037619Y-79677380D01*
X152037619Y-79677380D02*
X151942381Y-79820238D01*
X151942381Y-79820238D02*
X151847143Y-79915476D01*
X151847143Y-79915476D02*
X151751905Y-79963095D01*
D14*
%TO.C,C10*%
X146164428Y-88718571D02*
X146173952Y-88728095D01*
X146173952Y-88728095D02*
X146183476Y-88756666D01*
X146183476Y-88756666D02*
X146183476Y-88775714D01*
X146183476Y-88775714D02*
X146173952Y-88804285D01*
X146173952Y-88804285D02*
X146154904Y-88823333D01*
X146154904Y-88823333D02*
X146135857Y-88832856D01*
X146135857Y-88832856D02*
X146097761Y-88842380D01*
X146097761Y-88842380D02*
X146069190Y-88842380D01*
X146069190Y-88842380D02*
X146031095Y-88832856D01*
X146031095Y-88832856D02*
X146012047Y-88823333D01*
X146012047Y-88823333D02*
X145993000Y-88804285D01*
X145993000Y-88804285D02*
X145983476Y-88775714D01*
X145983476Y-88775714D02*
X145983476Y-88756666D01*
X145983476Y-88756666D02*
X145993000Y-88728095D01*
X145993000Y-88728095D02*
X146002523Y-88718571D01*
X146183476Y-88528095D02*
X146183476Y-88642380D01*
X146183476Y-88585237D02*
X145983476Y-88585237D01*
X145983476Y-88585237D02*
X146012047Y-88604285D01*
X146012047Y-88604285D02*
X146031095Y-88623333D01*
X146031095Y-88623333D02*
X146040619Y-88642380D01*
X145983476Y-88404285D02*
X145983476Y-88385238D01*
X145983476Y-88385238D02*
X145993000Y-88366190D01*
X145993000Y-88366190D02*
X146002523Y-88356666D01*
X146002523Y-88356666D02*
X146021571Y-88347142D01*
X146021571Y-88347142D02*
X146059666Y-88337619D01*
X146059666Y-88337619D02*
X146107285Y-88337619D01*
X146107285Y-88337619D02*
X146145380Y-88347142D01*
X146145380Y-88347142D02*
X146164428Y-88356666D01*
X146164428Y-88356666D02*
X146173952Y-88366190D01*
X146173952Y-88366190D02*
X146183476Y-88385238D01*
X146183476Y-88385238D02*
X146183476Y-88404285D01*
X146183476Y-88404285D02*
X146173952Y-88423333D01*
X146173952Y-88423333D02*
X146164428Y-88432857D01*
X146164428Y-88432857D02*
X146145380Y-88442380D01*
X146145380Y-88442380D02*
X146107285Y-88451904D01*
X146107285Y-88451904D02*
X146059666Y-88451904D01*
X146059666Y-88451904D02*
X146021571Y-88442380D01*
X146021571Y-88442380D02*
X146002523Y-88432857D01*
X146002523Y-88432857D02*
X145993000Y-88423333D01*
X145993000Y-88423333D02*
X145983476Y-88404285D01*
%TO.C,C11*%
X145984428Y-91508571D02*
X145993952Y-91518095D01*
X145993952Y-91518095D02*
X146003476Y-91546666D01*
X146003476Y-91546666D02*
X146003476Y-91565714D01*
X146003476Y-91565714D02*
X145993952Y-91594285D01*
X145993952Y-91594285D02*
X145974904Y-91613333D01*
X145974904Y-91613333D02*
X145955857Y-91622856D01*
X145955857Y-91622856D02*
X145917761Y-91632380D01*
X145917761Y-91632380D02*
X145889190Y-91632380D01*
X145889190Y-91632380D02*
X145851095Y-91622856D01*
X145851095Y-91622856D02*
X145832047Y-91613333D01*
X145832047Y-91613333D02*
X145813000Y-91594285D01*
X145813000Y-91594285D02*
X145803476Y-91565714D01*
X145803476Y-91565714D02*
X145803476Y-91546666D01*
X145803476Y-91546666D02*
X145813000Y-91518095D01*
X145813000Y-91518095D02*
X145822523Y-91508571D01*
X146003476Y-91318095D02*
X146003476Y-91432380D01*
X146003476Y-91375237D02*
X145803476Y-91375237D01*
X145803476Y-91375237D02*
X145832047Y-91394285D01*
X145832047Y-91394285D02*
X145851095Y-91413333D01*
X145851095Y-91413333D02*
X145860619Y-91432380D01*
X146003476Y-91127619D02*
X146003476Y-91241904D01*
X146003476Y-91184761D02*
X145803476Y-91184761D01*
X145803476Y-91184761D02*
X145832047Y-91203809D01*
X145832047Y-91203809D02*
X145851095Y-91222857D01*
X145851095Y-91222857D02*
X145860619Y-91241904D01*
D11*
%TO.C,J2*%
X150846666Y-111287380D02*
X150846666Y-112001666D01*
X150846666Y-112001666D02*
X150799047Y-112144523D01*
X150799047Y-112144523D02*
X150703809Y-112239761D01*
X150703809Y-112239761D02*
X150560952Y-112287380D01*
X150560952Y-112287380D02*
X150465714Y-112287380D01*
X151275238Y-111382619D02*
X151322857Y-111335000D01*
X151322857Y-111335000D02*
X151418095Y-111287380D01*
X151418095Y-111287380D02*
X151656190Y-111287380D01*
X151656190Y-111287380D02*
X151751428Y-111335000D01*
X151751428Y-111335000D02*
X151799047Y-111382619D01*
X151799047Y-111382619D02*
X151846666Y-111477857D01*
X151846666Y-111477857D02*
X151846666Y-111573095D01*
X151846666Y-111573095D02*
X151799047Y-111715952D01*
X151799047Y-111715952D02*
X151227619Y-112287380D01*
X151227619Y-112287380D02*
X151846666Y-112287380D01*
D15*
%TO.C,C3*%
X149487836Y-92410000D02*
X149272164Y-92410000D01*
X149487836Y-91690000D02*
X149272164Y-91690000D01*
D10*
%TO.C,D1*%
X142600000Y-116550000D02*
G75*
G03*
X142600000Y-116550000I-50000J0D01*
G01*
D15*
%TO.C,C9*%
X144752164Y-91700000D02*
X144967836Y-91700000D01*
X144752164Y-90980000D02*
X144967836Y-90980000D01*
%TO.C,C6*%
X152700000Y-96102164D02*
X152700000Y-96317836D01*
X151980000Y-96102164D02*
X151980000Y-96317836D01*
%TO.C,R2*%
X155440000Y-90196359D02*
X155440000Y-90503641D01*
X156200000Y-90196359D02*
X156200000Y-90503641D01*
%TO.C,J3*%
X164905000Y-118410000D02*
X163575000Y-118410000D01*
X166235000Y-115810000D02*
X166235000Y-77650000D01*
X163575000Y-115810000D02*
X163575000Y-77650000D01*
X166235000Y-115810000D02*
X163575000Y-115810000D01*
X166235000Y-77650000D02*
X163575000Y-77650000D01*
X163575000Y-118410000D02*
X163575000Y-117080000D01*
%TO.C,R1*%
X141433641Y-118000000D02*
X141126359Y-118000000D01*
X141433641Y-117240000D02*
X141126359Y-117240000D01*
%TO.C,C7*%
X149747836Y-92870000D02*
X149532164Y-92870000D01*
X149747836Y-93590000D02*
X149532164Y-93590000D01*
%TO.C,J1*%
X158970000Y-101095000D02*
X158970000Y-98495000D01*
X156310000Y-101095000D02*
X156310000Y-98495000D01*
X158970000Y-98495000D02*
X156310000Y-98495000D01*
X158970000Y-102365000D02*
X158970000Y-103695000D01*
X158970000Y-103695000D02*
X157640000Y-103695000D01*
X158970000Y-101095000D02*
X156310000Y-101095000D01*
%TO.C,C4*%
X141070000Y-102007836D02*
X141070000Y-101792164D01*
X140350000Y-102007836D02*
X140350000Y-101792164D01*
%TO.C,U2*%
X142980000Y-95820000D02*
X142980000Y-95370000D01*
X150200000Y-102140000D02*
X150200000Y-102590000D01*
X142980000Y-102140000D02*
X142980000Y-102590000D01*
X150200000Y-95820000D02*
X150200000Y-95370000D01*
X142980000Y-95370000D02*
X143430000Y-95370000D01*
X150200000Y-102590000D02*
X149750000Y-102590000D01*
X142980000Y-102590000D02*
X143430000Y-102590000D01*
X150200000Y-95370000D02*
X149750000Y-95370000D01*
X149750000Y-95370000D02*
X149750000Y-94080000D01*
%TO.C,C8*%
X144992164Y-92320000D02*
X145207836Y-92320000D01*
X144992164Y-93040000D02*
X145207836Y-93040000D01*
%TO.C,C12*%
X149812164Y-90860000D02*
X150027836Y-90860000D01*
X149812164Y-90140000D02*
X150027836Y-90140000D01*
%TO.C,U1*%
X133790000Y-117650000D02*
X133790000Y-116390000D01*
X139800000Y-117650000D02*
X133790000Y-117650000D01*
X133790000Y-110830000D02*
X133790000Y-112090000D01*
X137550000Y-110830000D02*
X133790000Y-110830000D01*
%TO.C,J4*%
X132495000Y-77600000D02*
X133825000Y-77600000D01*
X133825000Y-77600000D02*
X133825000Y-78930000D01*
X131165000Y-80200000D02*
X131165000Y-108200000D01*
X131165000Y-80200000D02*
X133825000Y-80200000D01*
X133825000Y-80200000D02*
X133825000Y-108200000D01*
X131165000Y-108200000D02*
X133825000Y-108200000D01*
%TO.C,Y1*%
X146740000Y-86430000D02*
X146740000Y-89730000D01*
X146740000Y-89730000D02*
X150740000Y-89730000D01*
%TO.C,C1*%
X138497836Y-110420000D02*
X138282164Y-110420000D01*
X138497836Y-109700000D02*
X138282164Y-109700000D01*
%TO.C,R3*%
X149093641Y-110580000D02*
X148786359Y-110580000D01*
X149093641Y-109820000D02*
X148786359Y-109820000D01*
%TO.C,C13*%
X147927836Y-90110000D02*
X147712164Y-90110000D01*
X147927836Y-90830000D02*
X147712164Y-90830000D01*
%TO.C,C2*%
X141240000Y-115492164D02*
X141240000Y-115707836D01*
X140520000Y-115492164D02*
X140520000Y-115707836D01*
%TO.C,C5*%
X149917836Y-104310000D02*
X149702164Y-104310000D01*
X149917836Y-105030000D02*
X149702164Y-105030000D01*
%TO.C,SW1*%
X157280000Y-75525000D02*
X157280000Y-76815000D01*
X160030000Y-76815000D02*
X154330000Y-76815000D01*
X158780000Y-79665000D02*
X157080000Y-79665000D01*
X160630000Y-78615000D02*
X160630000Y-77825000D01*
X155780000Y-79665000D02*
X155580000Y-79665000D01*
X158580000Y-75525000D02*
X158380000Y-75315000D01*
X158380000Y-75315000D02*
X157480000Y-75315000D01*
X153730000Y-77825000D02*
X153730000Y-78615000D01*
X157280000Y-75525000D02*
X157480000Y-75315000D01*
X158580000Y-76815000D02*
X158580000Y-75525000D01*
%TO.C,C10*%
X145500000Y-89782164D02*
X145500000Y-89997836D01*
X146220000Y-89782164D02*
X146220000Y-89997836D01*
%TO.C,C11*%
X146190000Y-92107836D02*
X146190000Y-91892164D01*
X146910000Y-92107836D02*
X146910000Y-91892164D01*
D11*
%TO.C,J2*%
X146690000Y-113135000D02*
X146690000Y-113560000D01*
X144340000Y-119260000D02*
X144640000Y-119260000D01*
X152340000Y-119260000D02*
X152640000Y-119260000D01*
X152640000Y-119260000D02*
X152640000Y-119110000D01*
X146690000Y-113560000D02*
X145690000Y-113560000D01*
X144340000Y-119110000D02*
X144340000Y-119260000D01*
X152640000Y-116710000D02*
X152640000Y-115310000D01*
X144640000Y-119260000D02*
X144640000Y-119710000D01*
X147415000Y-113135000D02*
X146690000Y-113135000D01*
X144340000Y-115310000D02*
X144340000Y-116710000D01*
X152340000Y-119710000D02*
X152340000Y-119260000D01*
X150290000Y-113560000D02*
X151290000Y-113560000D01*
%TD*%
M02*
