M48
; DRILL file {KiCad (7.0.0)} date Wed Mar  8 00:24:58 2023
; FORMAT={-:-/ absolute / inch / decimal}
; #@! TF.CreationDate,2023-03-08T00:24:58-05:00
; #@! TF.GenerationSoftware,Kicad,Pcbnew,(7.0.0)
; #@! TF.FileFunction,Plated,1,2,PTH
FMAT,2
INCH
; #@! TA.AperFunction,Plated,PTH,ViaDrill
T1C0.0118
; #@! TA.AperFunction,Plated,PTH,ViaDrill
T2C0.0157
; #@! TA.AperFunction,Plated,PTH,ComponentDrill
T3C0.0217
; #@! TA.AperFunction,Plated,PTH,ComponentDrill
T4C0.0335
; #@! TA.AperFunction,Plated,PTH,ComponentDrill
T5C0.0394
%
G90
G05
T1
X5.1748Y-4.3197
X5.3157Y-3.4252
X5.3256Y-3.9264
X5.3358Y-3.0882
X5.3843Y-4.3276
X5.3969Y-4.5882
X5.5146Y-3.9961
X5.548Y-4.5992
X5.5768Y-3.6976
X5.5866Y-4.3476
X5.6016Y-4.5055
X5.6118Y-4.1823
X5.6189Y-3.5496
X5.6705Y-3.9524
X5.7114Y-4.1976
X5.7118Y-3.4685
X5.7142Y-3.7921
X5.739Y-4.2154
X5.739Y-4.3614
X5.7449Y-3.6213
X5.7551Y-3.2114
X5.776Y-4.2069
X5.778Y-4.3146
X5.7988Y-4.1819
X5.8059Y-3.6031
X5.8374Y-4.6161
X5.8406Y-3.6591
X5.844Y-4.0072
X5.8449Y-3.2854
X5.8764Y-3.9524
X5.8827Y-4.1484
X5.8835Y-4.3874
X5.9484Y-3.0551
X6.0063Y-3.9618
X6.0327Y-3.9428
X6.0408Y-3.8345
X6.0453Y-3.793
X6.0728Y-3.922
X6.1118Y-3.9134
X6.1173Y-3.8824
X6.1846Y-4.3594
X6.2315Y-3.1496
X6.3264Y-4.6724
X6.3531Y-3.9665
X6.3941Y-3.0752
T2
X5.3961Y-4.0331
X5.4236Y-3.9925
X5.4406Y-3.8949
X5.4512Y-4.0217
X5.4787Y-4.0513
X5.6596Y-3.8988
X5.7178Y-3.8838
X5.7453Y-3.8323
X5.7728Y-3.7894
X5.9598Y-3.4917
X6.2327Y-3.2909
T5
X5.2163Y-3.1075
X5.2163Y-3.2075
X5.2163Y-3.3075
X5.2163Y-3.4075
X5.2163Y-3.5075
X5.2163Y-3.6075
X5.2163Y-3.7075
X5.2163Y-3.8075
X5.2163Y-3.9075
X5.2163Y-4.0075
X5.2163Y-4.1075
X5.2163Y-4.2075
X6.2063Y-3.9301
X6.2063Y-4.0301
X6.4923Y-3.1094
X6.4923Y-3.2094
X6.4923Y-3.3094
X6.4923Y-3.4094
X6.4923Y-3.5094
X6.4923Y-3.6094
X6.4923Y-3.7094
X6.4923Y-3.8094
X6.4923Y-3.9094
X6.4923Y-4.0094
X6.4923Y-4.1094
X6.4923Y-4.2094
X6.4923Y-4.3094
X6.4923Y-4.4094
X6.4923Y-4.5094
X6.4923Y-4.6094
T3
G00X5.6935Y-4.6293
M15
G01X5.6935Y-4.6549
M16
G05
G00X5.9986Y-4.6293
M15
G01X5.9986Y-4.6549
M16
G05
T4
G00X5.6994Y-4.4817
M15
G01X5.6994Y-4.5033
M16
G05
G00X5.9927Y-4.4817
M15
G01X5.9927Y-4.5033
M16
G05
T0
M30
