%TF.GenerationSoftware,KiCad,Pcbnew,(7.0.0)*%
%TF.CreationDate,2023-03-08T00:24:42-05:00*%
%TF.ProjectId,STM32F103,53544d33-3246-4313-9033-2e6b69636164,rev?*%
%TF.SameCoordinates,Original*%
%TF.FileFunction,Copper,L2,Bot*%
%TF.FilePolarity,Positive*%
%FSLAX46Y46*%
G04 Gerber Fmt 4.6, Leading zero omitted, Abs format (unit mm)*
G04 Created by KiCad (PCBNEW (7.0.0)) date 2023-03-08 00:24:42*
%MOMM*%
%LPD*%
G01*
G04 APERTURE LIST*
%ADD10C,0.100000*%
%ADD11C,0.150000*%
%ADD12C,0.300000*%
%ADD13C,0.400000*%
%TA.AperFunction,ComponentPad*%
%ADD14R,1.700000X1.700000*%
%TD*%
%TA.AperFunction,ComponentPad*%
%ADD15O,1.700000X1.700000*%
%TD*%
%TA.AperFunction,ComponentPad*%
%ADD16O,1.150000X1.800000*%
%TD*%
%TA.AperFunction,ComponentPad*%
%ADD17O,1.450000X2.000000*%
%TD*%
%TA.AperFunction,ViaPad*%
%ADD18C,0.600000*%
%TD*%
%TA.AperFunction,ViaPad*%
%ADD19C,0.800000*%
%TD*%
%TA.AperFunction,Conductor*%
%ADD20C,0.200000*%
%TD*%
%TA.AperFunction,Conductor*%
%ADD21C,0.300000*%
%TD*%
G04 APERTURE END LIST*
D10*
D11*
X177002200Y-166007200D02*
X285002200Y-166007200D01*
X285002200Y-198007200D01*
X177002200Y-198007200D01*
X177002200Y-166007200D01*
D10*
D11*
X10000000Y-10000000D02*
X287002200Y-10000000D01*
X287002200Y-200007200D01*
X10000000Y-200007200D01*
X10000000Y-10000000D01*
D10*
D11*
X12000000Y-12000000D02*
X285002200Y-12000000D01*
X285002200Y-198007200D01*
X12000000Y-198007200D01*
X12000000Y-12000000D01*
D10*
D11*
X60000000Y-12000000D02*
X60000000Y-10000000D01*
D10*
D11*
X110000000Y-12000000D02*
X110000000Y-10000000D01*
D10*
D11*
X160000000Y-12000000D02*
X160000000Y-10000000D01*
D10*
D11*
X210000000Y-12000000D02*
X210000000Y-10000000D01*
D10*
D11*
X260000000Y-12000000D02*
X260000000Y-10000000D01*
D10*
D11*
X35990476Y-11477595D02*
X35247619Y-11477595D01*
X35619047Y-11477595D02*
X35619047Y-10177595D01*
X35619047Y-10177595D02*
X35495238Y-10363309D01*
X35495238Y-10363309D02*
X35371428Y-10487119D01*
X35371428Y-10487119D02*
X35247619Y-10549023D01*
D10*
D11*
X85247619Y-10301404D02*
X85309523Y-10239500D01*
X85309523Y-10239500D02*
X85433333Y-10177595D01*
X85433333Y-10177595D02*
X85742857Y-10177595D01*
X85742857Y-10177595D02*
X85866666Y-10239500D01*
X85866666Y-10239500D02*
X85928571Y-10301404D01*
X85928571Y-10301404D02*
X85990476Y-10425214D01*
X85990476Y-10425214D02*
X85990476Y-10549023D01*
X85990476Y-10549023D02*
X85928571Y-10734738D01*
X85928571Y-10734738D02*
X85185714Y-11477595D01*
X85185714Y-11477595D02*
X85990476Y-11477595D01*
D10*
D11*
X135185714Y-10177595D02*
X135990476Y-10177595D01*
X135990476Y-10177595D02*
X135557142Y-10672833D01*
X135557142Y-10672833D02*
X135742857Y-10672833D01*
X135742857Y-10672833D02*
X135866666Y-10734738D01*
X135866666Y-10734738D02*
X135928571Y-10796642D01*
X135928571Y-10796642D02*
X135990476Y-10920452D01*
X135990476Y-10920452D02*
X135990476Y-11229976D01*
X135990476Y-11229976D02*
X135928571Y-11353785D01*
X135928571Y-11353785D02*
X135866666Y-11415690D01*
X135866666Y-11415690D02*
X135742857Y-11477595D01*
X135742857Y-11477595D02*
X135371428Y-11477595D01*
X135371428Y-11477595D02*
X135247619Y-11415690D01*
X135247619Y-11415690D02*
X135185714Y-11353785D01*
D10*
D11*
X185866666Y-10610928D02*
X185866666Y-11477595D01*
X185557142Y-10115690D02*
X185247619Y-11044261D01*
X185247619Y-11044261D02*
X186052380Y-11044261D01*
D10*
D11*
X235928571Y-10177595D02*
X235309523Y-10177595D01*
X235309523Y-10177595D02*
X235247619Y-10796642D01*
X235247619Y-10796642D02*
X235309523Y-10734738D01*
X235309523Y-10734738D02*
X235433333Y-10672833D01*
X235433333Y-10672833D02*
X235742857Y-10672833D01*
X235742857Y-10672833D02*
X235866666Y-10734738D01*
X235866666Y-10734738D02*
X235928571Y-10796642D01*
X235928571Y-10796642D02*
X235990476Y-10920452D01*
X235990476Y-10920452D02*
X235990476Y-11229976D01*
X235990476Y-11229976D02*
X235928571Y-11353785D01*
X235928571Y-11353785D02*
X235866666Y-11415690D01*
X235866666Y-11415690D02*
X235742857Y-11477595D01*
X235742857Y-11477595D02*
X235433333Y-11477595D01*
X235433333Y-11477595D02*
X235309523Y-11415690D01*
X235309523Y-11415690D02*
X235247619Y-11353785D01*
D10*
D11*
X285866666Y-10177595D02*
X285619047Y-10177595D01*
X285619047Y-10177595D02*
X285495238Y-10239500D01*
X285495238Y-10239500D02*
X285433333Y-10301404D01*
X285433333Y-10301404D02*
X285309523Y-10487119D01*
X285309523Y-10487119D02*
X285247619Y-10734738D01*
X285247619Y-10734738D02*
X285247619Y-11229976D01*
X285247619Y-11229976D02*
X285309523Y-11353785D01*
X285309523Y-11353785D02*
X285371428Y-11415690D01*
X285371428Y-11415690D02*
X285495238Y-11477595D01*
X285495238Y-11477595D02*
X285742857Y-11477595D01*
X285742857Y-11477595D02*
X285866666Y-11415690D01*
X285866666Y-11415690D02*
X285928571Y-11353785D01*
X285928571Y-11353785D02*
X285990476Y-11229976D01*
X285990476Y-11229976D02*
X285990476Y-10920452D01*
X285990476Y-10920452D02*
X285928571Y-10796642D01*
X285928571Y-10796642D02*
X285866666Y-10734738D01*
X285866666Y-10734738D02*
X285742857Y-10672833D01*
X285742857Y-10672833D02*
X285495238Y-10672833D01*
X285495238Y-10672833D02*
X285371428Y-10734738D01*
X285371428Y-10734738D02*
X285309523Y-10796642D01*
X285309523Y-10796642D02*
X285247619Y-10920452D01*
D10*
D11*
X60000000Y-198007200D02*
X60000000Y-200007200D01*
D10*
D11*
X110000000Y-198007200D02*
X110000000Y-200007200D01*
D10*
D11*
X160000000Y-198007200D02*
X160000000Y-200007200D01*
D10*
D11*
X210000000Y-198007200D02*
X210000000Y-200007200D01*
D10*
D11*
X260000000Y-198007200D02*
X260000000Y-200007200D01*
D10*
D11*
X35990476Y-199484795D02*
X35247619Y-199484795D01*
X35619047Y-199484795D02*
X35619047Y-198184795D01*
X35619047Y-198184795D02*
X35495238Y-198370509D01*
X35495238Y-198370509D02*
X35371428Y-198494319D01*
X35371428Y-198494319D02*
X35247619Y-198556223D01*
D10*
D11*
X85247619Y-198308604D02*
X85309523Y-198246700D01*
X85309523Y-198246700D02*
X85433333Y-198184795D01*
X85433333Y-198184795D02*
X85742857Y-198184795D01*
X85742857Y-198184795D02*
X85866666Y-198246700D01*
X85866666Y-198246700D02*
X85928571Y-198308604D01*
X85928571Y-198308604D02*
X85990476Y-198432414D01*
X85990476Y-198432414D02*
X85990476Y-198556223D01*
X85990476Y-198556223D02*
X85928571Y-198741938D01*
X85928571Y-198741938D02*
X85185714Y-199484795D01*
X85185714Y-199484795D02*
X85990476Y-199484795D01*
D10*
D11*
X135185714Y-198184795D02*
X135990476Y-198184795D01*
X135990476Y-198184795D02*
X135557142Y-198680033D01*
X135557142Y-198680033D02*
X135742857Y-198680033D01*
X135742857Y-198680033D02*
X135866666Y-198741938D01*
X135866666Y-198741938D02*
X135928571Y-198803842D01*
X135928571Y-198803842D02*
X135990476Y-198927652D01*
X135990476Y-198927652D02*
X135990476Y-199237176D01*
X135990476Y-199237176D02*
X135928571Y-199360985D01*
X135928571Y-199360985D02*
X135866666Y-199422890D01*
X135866666Y-199422890D02*
X135742857Y-199484795D01*
X135742857Y-199484795D02*
X135371428Y-199484795D01*
X135371428Y-199484795D02*
X135247619Y-199422890D01*
X135247619Y-199422890D02*
X135185714Y-199360985D01*
D10*
D11*
X185866666Y-198618128D02*
X185866666Y-199484795D01*
X185557142Y-198122890D02*
X185247619Y-199051461D01*
X185247619Y-199051461D02*
X186052380Y-199051461D01*
D10*
D11*
X235928571Y-198184795D02*
X235309523Y-198184795D01*
X235309523Y-198184795D02*
X235247619Y-198803842D01*
X235247619Y-198803842D02*
X235309523Y-198741938D01*
X235309523Y-198741938D02*
X235433333Y-198680033D01*
X235433333Y-198680033D02*
X235742857Y-198680033D01*
X235742857Y-198680033D02*
X235866666Y-198741938D01*
X235866666Y-198741938D02*
X235928571Y-198803842D01*
X235928571Y-198803842D02*
X235990476Y-198927652D01*
X235990476Y-198927652D02*
X235990476Y-199237176D01*
X235990476Y-199237176D02*
X235928571Y-199360985D01*
X235928571Y-199360985D02*
X235866666Y-199422890D01*
X235866666Y-199422890D02*
X235742857Y-199484795D01*
X235742857Y-199484795D02*
X235433333Y-199484795D01*
X235433333Y-199484795D02*
X235309523Y-199422890D01*
X235309523Y-199422890D02*
X235247619Y-199360985D01*
D10*
D11*
X285866666Y-198184795D02*
X285619047Y-198184795D01*
X285619047Y-198184795D02*
X285495238Y-198246700D01*
X285495238Y-198246700D02*
X285433333Y-198308604D01*
X285433333Y-198308604D02*
X285309523Y-198494319D01*
X285309523Y-198494319D02*
X285247619Y-198741938D01*
X285247619Y-198741938D02*
X285247619Y-199237176D01*
X285247619Y-199237176D02*
X285309523Y-199360985D01*
X285309523Y-199360985D02*
X285371428Y-199422890D01*
X285371428Y-199422890D02*
X285495238Y-199484795D01*
X285495238Y-199484795D02*
X285742857Y-199484795D01*
X285742857Y-199484795D02*
X285866666Y-199422890D01*
X285866666Y-199422890D02*
X285928571Y-199360985D01*
X285928571Y-199360985D02*
X285990476Y-199237176D01*
X285990476Y-199237176D02*
X285990476Y-198927652D01*
X285990476Y-198927652D02*
X285928571Y-198803842D01*
X285928571Y-198803842D02*
X285866666Y-198741938D01*
X285866666Y-198741938D02*
X285742857Y-198680033D01*
X285742857Y-198680033D02*
X285495238Y-198680033D01*
X285495238Y-198680033D02*
X285371428Y-198741938D01*
X285371428Y-198741938D02*
X285309523Y-198803842D01*
X285309523Y-198803842D02*
X285247619Y-198927652D01*
D10*
D11*
X10000000Y-60000000D02*
X12000000Y-60000000D01*
D10*
D11*
X10000000Y-110000000D02*
X12000000Y-110000000D01*
D10*
D11*
X10000000Y-160000000D02*
X12000000Y-160000000D01*
D10*
D11*
X10690476Y-35106166D02*
X11309523Y-35106166D01*
X10566666Y-35477595D02*
X10999999Y-34177595D01*
X10999999Y-34177595D02*
X11433333Y-35477595D01*
D10*
D11*
X11092857Y-84796642D02*
X11278571Y-84858547D01*
X11278571Y-84858547D02*
X11340476Y-84920452D01*
X11340476Y-84920452D02*
X11402380Y-85044261D01*
X11402380Y-85044261D02*
X11402380Y-85229976D01*
X11402380Y-85229976D02*
X11340476Y-85353785D01*
X11340476Y-85353785D02*
X11278571Y-85415690D01*
X11278571Y-85415690D02*
X11154761Y-85477595D01*
X11154761Y-85477595D02*
X10659523Y-85477595D01*
X10659523Y-85477595D02*
X10659523Y-84177595D01*
X10659523Y-84177595D02*
X11092857Y-84177595D01*
X11092857Y-84177595D02*
X11216666Y-84239500D01*
X11216666Y-84239500D02*
X11278571Y-84301404D01*
X11278571Y-84301404D02*
X11340476Y-84425214D01*
X11340476Y-84425214D02*
X11340476Y-84549023D01*
X11340476Y-84549023D02*
X11278571Y-84672833D01*
X11278571Y-84672833D02*
X11216666Y-84734738D01*
X11216666Y-84734738D02*
X11092857Y-84796642D01*
X11092857Y-84796642D02*
X10659523Y-84796642D01*
D10*
D11*
X11402380Y-135353785D02*
X11340476Y-135415690D01*
X11340476Y-135415690D02*
X11154761Y-135477595D01*
X11154761Y-135477595D02*
X11030952Y-135477595D01*
X11030952Y-135477595D02*
X10845238Y-135415690D01*
X10845238Y-135415690D02*
X10721428Y-135291880D01*
X10721428Y-135291880D02*
X10659523Y-135168071D01*
X10659523Y-135168071D02*
X10597619Y-134920452D01*
X10597619Y-134920452D02*
X10597619Y-134734738D01*
X10597619Y-134734738D02*
X10659523Y-134487119D01*
X10659523Y-134487119D02*
X10721428Y-134363309D01*
X10721428Y-134363309D02*
X10845238Y-134239500D01*
X10845238Y-134239500D02*
X11030952Y-134177595D01*
X11030952Y-134177595D02*
X11154761Y-134177595D01*
X11154761Y-134177595D02*
X11340476Y-134239500D01*
X11340476Y-134239500D02*
X11402380Y-134301404D01*
D10*
D11*
X10659523Y-185477595D02*
X10659523Y-184177595D01*
X10659523Y-184177595D02*
X10969047Y-184177595D01*
X10969047Y-184177595D02*
X11154761Y-184239500D01*
X11154761Y-184239500D02*
X11278571Y-184363309D01*
X11278571Y-184363309D02*
X11340476Y-184487119D01*
X11340476Y-184487119D02*
X11402380Y-184734738D01*
X11402380Y-184734738D02*
X11402380Y-184920452D01*
X11402380Y-184920452D02*
X11340476Y-185168071D01*
X11340476Y-185168071D02*
X11278571Y-185291880D01*
X11278571Y-185291880D02*
X11154761Y-185415690D01*
X11154761Y-185415690D02*
X10969047Y-185477595D01*
X10969047Y-185477595D02*
X10659523Y-185477595D01*
D10*
D11*
X287002200Y-60000000D02*
X285002200Y-60000000D01*
D10*
D11*
X287002200Y-110000000D02*
X285002200Y-110000000D01*
D10*
D11*
X287002200Y-160000000D02*
X285002200Y-160000000D01*
D10*
D11*
X285692676Y-35106166D02*
X286311723Y-35106166D01*
X285568866Y-35477595D02*
X286002199Y-34177595D01*
X286002199Y-34177595D02*
X286435533Y-35477595D01*
D10*
D11*
X286095057Y-84796642D02*
X286280771Y-84858547D01*
X286280771Y-84858547D02*
X286342676Y-84920452D01*
X286342676Y-84920452D02*
X286404580Y-85044261D01*
X286404580Y-85044261D02*
X286404580Y-85229976D01*
X286404580Y-85229976D02*
X286342676Y-85353785D01*
X286342676Y-85353785D02*
X286280771Y-85415690D01*
X286280771Y-85415690D02*
X286156961Y-85477595D01*
X286156961Y-85477595D02*
X285661723Y-85477595D01*
X285661723Y-85477595D02*
X285661723Y-84177595D01*
X285661723Y-84177595D02*
X286095057Y-84177595D01*
X286095057Y-84177595D02*
X286218866Y-84239500D01*
X286218866Y-84239500D02*
X286280771Y-84301404D01*
X286280771Y-84301404D02*
X286342676Y-84425214D01*
X286342676Y-84425214D02*
X286342676Y-84549023D01*
X286342676Y-84549023D02*
X286280771Y-84672833D01*
X286280771Y-84672833D02*
X286218866Y-84734738D01*
X286218866Y-84734738D02*
X286095057Y-84796642D01*
X286095057Y-84796642D02*
X285661723Y-84796642D01*
D10*
D11*
X286404580Y-135353785D02*
X286342676Y-135415690D01*
X286342676Y-135415690D02*
X286156961Y-135477595D01*
X286156961Y-135477595D02*
X286033152Y-135477595D01*
X286033152Y-135477595D02*
X285847438Y-135415690D01*
X285847438Y-135415690D02*
X285723628Y-135291880D01*
X285723628Y-135291880D02*
X285661723Y-135168071D01*
X285661723Y-135168071D02*
X285599819Y-134920452D01*
X285599819Y-134920452D02*
X285599819Y-134734738D01*
X285599819Y-134734738D02*
X285661723Y-134487119D01*
X285661723Y-134487119D02*
X285723628Y-134363309D01*
X285723628Y-134363309D02*
X285847438Y-134239500D01*
X285847438Y-134239500D02*
X286033152Y-134177595D01*
X286033152Y-134177595D02*
X286156961Y-134177595D01*
X286156961Y-134177595D02*
X286342676Y-134239500D01*
X286342676Y-134239500D02*
X286404580Y-134301404D01*
D10*
D11*
X285661723Y-185477595D02*
X285661723Y-184177595D01*
X285661723Y-184177595D02*
X285971247Y-184177595D01*
X285971247Y-184177595D02*
X286156961Y-184239500D01*
X286156961Y-184239500D02*
X286280771Y-184363309D01*
X286280771Y-184363309D02*
X286342676Y-184487119D01*
X286342676Y-184487119D02*
X286404580Y-184734738D01*
X286404580Y-184734738D02*
X286404580Y-184920452D01*
X286404580Y-184920452D02*
X286342676Y-185168071D01*
X286342676Y-185168071D02*
X286280771Y-185291880D01*
X286280771Y-185291880D02*
X286156961Y-185415690D01*
X286156961Y-185415690D02*
X285971247Y-185477595D01*
X285971247Y-185477595D02*
X285661723Y-185477595D01*
D10*
D11*
X200359342Y-193658271D02*
X200359342Y-192158271D01*
X200359342Y-192158271D02*
X200716485Y-192158271D01*
X200716485Y-192158271D02*
X200930771Y-192229700D01*
X200930771Y-192229700D02*
X201073628Y-192372557D01*
X201073628Y-192372557D02*
X201145057Y-192515414D01*
X201145057Y-192515414D02*
X201216485Y-192801128D01*
X201216485Y-192801128D02*
X201216485Y-193015414D01*
X201216485Y-193015414D02*
X201145057Y-193301128D01*
X201145057Y-193301128D02*
X201073628Y-193443985D01*
X201073628Y-193443985D02*
X200930771Y-193586842D01*
X200930771Y-193586842D02*
X200716485Y-193658271D01*
X200716485Y-193658271D02*
X200359342Y-193658271D01*
X202502200Y-193658271D02*
X202502200Y-192872557D01*
X202502200Y-192872557D02*
X202430771Y-192729700D01*
X202430771Y-192729700D02*
X202287914Y-192658271D01*
X202287914Y-192658271D02*
X202002200Y-192658271D01*
X202002200Y-192658271D02*
X201859342Y-192729700D01*
X202502200Y-193586842D02*
X202359342Y-193658271D01*
X202359342Y-193658271D02*
X202002200Y-193658271D01*
X202002200Y-193658271D02*
X201859342Y-193586842D01*
X201859342Y-193586842D02*
X201787914Y-193443985D01*
X201787914Y-193443985D02*
X201787914Y-193301128D01*
X201787914Y-193301128D02*
X201859342Y-193158271D01*
X201859342Y-193158271D02*
X202002200Y-193086842D01*
X202002200Y-193086842D02*
X202359342Y-193086842D01*
X202359342Y-193086842D02*
X202502200Y-193015414D01*
X203002200Y-192658271D02*
X203573628Y-192658271D01*
X203216485Y-192158271D02*
X203216485Y-193443985D01*
X203216485Y-193443985D02*
X203287914Y-193586842D01*
X203287914Y-193586842D02*
X203430771Y-193658271D01*
X203430771Y-193658271D02*
X203573628Y-193658271D01*
X204645057Y-193586842D02*
X204502200Y-193658271D01*
X204502200Y-193658271D02*
X204216486Y-193658271D01*
X204216486Y-193658271D02*
X204073628Y-193586842D01*
X204073628Y-193586842D02*
X204002200Y-193443985D01*
X204002200Y-193443985D02*
X204002200Y-192872557D01*
X204002200Y-192872557D02*
X204073628Y-192729700D01*
X204073628Y-192729700D02*
X204216486Y-192658271D01*
X204216486Y-192658271D02*
X204502200Y-192658271D01*
X204502200Y-192658271D02*
X204645057Y-192729700D01*
X204645057Y-192729700D02*
X204716486Y-192872557D01*
X204716486Y-192872557D02*
X204716486Y-193015414D01*
X204716486Y-193015414D02*
X204002200Y-193158271D01*
X205359342Y-193515414D02*
X205430771Y-193586842D01*
X205430771Y-193586842D02*
X205359342Y-193658271D01*
X205359342Y-193658271D02*
X205287914Y-193586842D01*
X205287914Y-193586842D02*
X205359342Y-193515414D01*
X205359342Y-193515414D02*
X205359342Y-193658271D01*
X205359342Y-192729700D02*
X205430771Y-192801128D01*
X205430771Y-192801128D02*
X205359342Y-192872557D01*
X205359342Y-192872557D02*
X205287914Y-192801128D01*
X205287914Y-192801128D02*
X205359342Y-192729700D01*
X205359342Y-192729700D02*
X205359342Y-192872557D01*
D10*
D11*
X177002200Y-194507200D02*
X285002200Y-194507200D01*
D10*
D11*
X178359342Y-196458271D02*
X178359342Y-194958271D01*
X179216485Y-196458271D02*
X178573628Y-195601128D01*
X179216485Y-194958271D02*
X178359342Y-195815414D01*
X179859342Y-196458271D02*
X179859342Y-195458271D01*
X179859342Y-194958271D02*
X179787914Y-195029700D01*
X179787914Y-195029700D02*
X179859342Y-195101128D01*
X179859342Y-195101128D02*
X179930771Y-195029700D01*
X179930771Y-195029700D02*
X179859342Y-194958271D01*
X179859342Y-194958271D02*
X179859342Y-195101128D01*
X181430771Y-196315414D02*
X181359343Y-196386842D01*
X181359343Y-196386842D02*
X181145057Y-196458271D01*
X181145057Y-196458271D02*
X181002200Y-196458271D01*
X181002200Y-196458271D02*
X180787914Y-196386842D01*
X180787914Y-196386842D02*
X180645057Y-196243985D01*
X180645057Y-196243985D02*
X180573628Y-196101128D01*
X180573628Y-196101128D02*
X180502200Y-195815414D01*
X180502200Y-195815414D02*
X180502200Y-195601128D01*
X180502200Y-195601128D02*
X180573628Y-195315414D01*
X180573628Y-195315414D02*
X180645057Y-195172557D01*
X180645057Y-195172557D02*
X180787914Y-195029700D01*
X180787914Y-195029700D02*
X181002200Y-194958271D01*
X181002200Y-194958271D02*
X181145057Y-194958271D01*
X181145057Y-194958271D02*
X181359343Y-195029700D01*
X181359343Y-195029700D02*
X181430771Y-195101128D01*
X182716486Y-196458271D02*
X182716486Y-195672557D01*
X182716486Y-195672557D02*
X182645057Y-195529700D01*
X182645057Y-195529700D02*
X182502200Y-195458271D01*
X182502200Y-195458271D02*
X182216486Y-195458271D01*
X182216486Y-195458271D02*
X182073628Y-195529700D01*
X182716486Y-196386842D02*
X182573628Y-196458271D01*
X182573628Y-196458271D02*
X182216486Y-196458271D01*
X182216486Y-196458271D02*
X182073628Y-196386842D01*
X182073628Y-196386842D02*
X182002200Y-196243985D01*
X182002200Y-196243985D02*
X182002200Y-196101128D01*
X182002200Y-196101128D02*
X182073628Y-195958271D01*
X182073628Y-195958271D02*
X182216486Y-195886842D01*
X182216486Y-195886842D02*
X182573628Y-195886842D01*
X182573628Y-195886842D02*
X182716486Y-195815414D01*
X184073629Y-196458271D02*
X184073629Y-194958271D01*
X184073629Y-196386842D02*
X183930771Y-196458271D01*
X183930771Y-196458271D02*
X183645057Y-196458271D01*
X183645057Y-196458271D02*
X183502200Y-196386842D01*
X183502200Y-196386842D02*
X183430771Y-196315414D01*
X183430771Y-196315414D02*
X183359343Y-196172557D01*
X183359343Y-196172557D02*
X183359343Y-195743985D01*
X183359343Y-195743985D02*
X183430771Y-195601128D01*
X183430771Y-195601128D02*
X183502200Y-195529700D01*
X183502200Y-195529700D02*
X183645057Y-195458271D01*
X183645057Y-195458271D02*
X183930771Y-195458271D01*
X183930771Y-195458271D02*
X184073629Y-195529700D01*
X185687914Y-195672557D02*
X186187914Y-195672557D01*
X186402200Y-196458271D02*
X185687914Y-196458271D01*
X185687914Y-196458271D02*
X185687914Y-194958271D01*
X185687914Y-194958271D02*
X186402200Y-194958271D01*
X187045057Y-196315414D02*
X187116486Y-196386842D01*
X187116486Y-196386842D02*
X187045057Y-196458271D01*
X187045057Y-196458271D02*
X186973629Y-196386842D01*
X186973629Y-196386842D02*
X187045057Y-196315414D01*
X187045057Y-196315414D02*
X187045057Y-196458271D01*
X187759343Y-196458271D02*
X187759343Y-194958271D01*
X187759343Y-194958271D02*
X188116486Y-194958271D01*
X188116486Y-194958271D02*
X188330772Y-195029700D01*
X188330772Y-195029700D02*
X188473629Y-195172557D01*
X188473629Y-195172557D02*
X188545058Y-195315414D01*
X188545058Y-195315414D02*
X188616486Y-195601128D01*
X188616486Y-195601128D02*
X188616486Y-195815414D01*
X188616486Y-195815414D02*
X188545058Y-196101128D01*
X188545058Y-196101128D02*
X188473629Y-196243985D01*
X188473629Y-196243985D02*
X188330772Y-196386842D01*
X188330772Y-196386842D02*
X188116486Y-196458271D01*
X188116486Y-196458271D02*
X187759343Y-196458271D01*
X189259343Y-196315414D02*
X189330772Y-196386842D01*
X189330772Y-196386842D02*
X189259343Y-196458271D01*
X189259343Y-196458271D02*
X189187915Y-196386842D01*
X189187915Y-196386842D02*
X189259343Y-196315414D01*
X189259343Y-196315414D02*
X189259343Y-196458271D01*
X189902201Y-196029700D02*
X190616487Y-196029700D01*
X189759344Y-196458271D02*
X190259344Y-194958271D01*
X190259344Y-194958271D02*
X190759344Y-196458271D01*
X191259343Y-196315414D02*
X191330772Y-196386842D01*
X191330772Y-196386842D02*
X191259343Y-196458271D01*
X191259343Y-196458271D02*
X191187915Y-196386842D01*
X191187915Y-196386842D02*
X191259343Y-196315414D01*
X191259343Y-196315414D02*
X191259343Y-196458271D01*
X193773629Y-196458271D02*
X193773629Y-194958271D01*
X193916487Y-195886842D02*
X194345058Y-196458271D01*
X194345058Y-195458271D02*
X193773629Y-196029700D01*
X194987915Y-196458271D02*
X194987915Y-195458271D01*
X194987915Y-194958271D02*
X194916487Y-195029700D01*
X194916487Y-195029700D02*
X194987915Y-195101128D01*
X194987915Y-195101128D02*
X195059344Y-195029700D01*
X195059344Y-195029700D02*
X194987915Y-194958271D01*
X194987915Y-194958271D02*
X194987915Y-195101128D01*
X196345059Y-196386842D02*
X196202201Y-196458271D01*
X196202201Y-196458271D02*
X195916487Y-196458271D01*
X195916487Y-196458271D02*
X195773630Y-196386842D01*
X195773630Y-196386842D02*
X195702201Y-196315414D01*
X195702201Y-196315414D02*
X195630773Y-196172557D01*
X195630773Y-196172557D02*
X195630773Y-195743985D01*
X195630773Y-195743985D02*
X195702201Y-195601128D01*
X195702201Y-195601128D02*
X195773630Y-195529700D01*
X195773630Y-195529700D02*
X195916487Y-195458271D01*
X195916487Y-195458271D02*
X196202201Y-195458271D01*
X196202201Y-195458271D02*
X196345059Y-195529700D01*
X197630773Y-196458271D02*
X197630773Y-195672557D01*
X197630773Y-195672557D02*
X197559344Y-195529700D01*
X197559344Y-195529700D02*
X197416487Y-195458271D01*
X197416487Y-195458271D02*
X197130773Y-195458271D01*
X197130773Y-195458271D02*
X196987915Y-195529700D01*
X197630773Y-196386842D02*
X197487915Y-196458271D01*
X197487915Y-196458271D02*
X197130773Y-196458271D01*
X197130773Y-196458271D02*
X196987915Y-196386842D01*
X196987915Y-196386842D02*
X196916487Y-196243985D01*
X196916487Y-196243985D02*
X196916487Y-196101128D01*
X196916487Y-196101128D02*
X196987915Y-195958271D01*
X196987915Y-195958271D02*
X197130773Y-195886842D01*
X197130773Y-195886842D02*
X197487915Y-195886842D01*
X197487915Y-195886842D02*
X197630773Y-195815414D01*
X198987916Y-196458271D02*
X198987916Y-194958271D01*
X198987916Y-196386842D02*
X198845058Y-196458271D01*
X198845058Y-196458271D02*
X198559344Y-196458271D01*
X198559344Y-196458271D02*
X198416487Y-196386842D01*
X198416487Y-196386842D02*
X198345058Y-196315414D01*
X198345058Y-196315414D02*
X198273630Y-196172557D01*
X198273630Y-196172557D02*
X198273630Y-195743985D01*
X198273630Y-195743985D02*
X198345058Y-195601128D01*
X198345058Y-195601128D02*
X198416487Y-195529700D01*
X198416487Y-195529700D02*
X198559344Y-195458271D01*
X198559344Y-195458271D02*
X198845058Y-195458271D01*
X198845058Y-195458271D02*
X198987916Y-195529700D01*
X201030773Y-197029700D02*
X200959344Y-196958271D01*
X200959344Y-196958271D02*
X200816487Y-196743985D01*
X200816487Y-196743985D02*
X200745059Y-196601128D01*
X200745059Y-196601128D02*
X200673630Y-196386842D01*
X200673630Y-196386842D02*
X200602201Y-196029700D01*
X200602201Y-196029700D02*
X200602201Y-195743985D01*
X200602201Y-195743985D02*
X200673630Y-195386842D01*
X200673630Y-195386842D02*
X200745059Y-195172557D01*
X200745059Y-195172557D02*
X200816487Y-195029700D01*
X200816487Y-195029700D02*
X200959344Y-194815414D01*
X200959344Y-194815414D02*
X201030773Y-194743985D01*
X201459344Y-194958271D02*
X202459344Y-194958271D01*
X202459344Y-194958271D02*
X201816487Y-196458271D01*
X203030772Y-196315414D02*
X203102201Y-196386842D01*
X203102201Y-196386842D02*
X203030772Y-196458271D01*
X203030772Y-196458271D02*
X202959344Y-196386842D01*
X202959344Y-196386842D02*
X203030772Y-196315414D01*
X203030772Y-196315414D02*
X203030772Y-196458271D01*
X204030773Y-194958271D02*
X204173630Y-194958271D01*
X204173630Y-194958271D02*
X204316487Y-195029700D01*
X204316487Y-195029700D02*
X204387916Y-195101128D01*
X204387916Y-195101128D02*
X204459344Y-195243985D01*
X204459344Y-195243985D02*
X204530773Y-195529700D01*
X204530773Y-195529700D02*
X204530773Y-195886842D01*
X204530773Y-195886842D02*
X204459344Y-196172557D01*
X204459344Y-196172557D02*
X204387916Y-196315414D01*
X204387916Y-196315414D02*
X204316487Y-196386842D01*
X204316487Y-196386842D02*
X204173630Y-196458271D01*
X204173630Y-196458271D02*
X204030773Y-196458271D01*
X204030773Y-196458271D02*
X203887916Y-196386842D01*
X203887916Y-196386842D02*
X203816487Y-196315414D01*
X203816487Y-196315414D02*
X203745058Y-196172557D01*
X203745058Y-196172557D02*
X203673630Y-195886842D01*
X203673630Y-195886842D02*
X203673630Y-195529700D01*
X203673630Y-195529700D02*
X203745058Y-195243985D01*
X203745058Y-195243985D02*
X203816487Y-195101128D01*
X203816487Y-195101128D02*
X203887916Y-195029700D01*
X203887916Y-195029700D02*
X204030773Y-194958271D01*
X205173629Y-196315414D02*
X205245058Y-196386842D01*
X205245058Y-196386842D02*
X205173629Y-196458271D01*
X205173629Y-196458271D02*
X205102201Y-196386842D01*
X205102201Y-196386842D02*
X205173629Y-196315414D01*
X205173629Y-196315414D02*
X205173629Y-196458271D01*
X206173630Y-194958271D02*
X206316487Y-194958271D01*
X206316487Y-194958271D02*
X206459344Y-195029700D01*
X206459344Y-195029700D02*
X206530773Y-195101128D01*
X206530773Y-195101128D02*
X206602201Y-195243985D01*
X206602201Y-195243985D02*
X206673630Y-195529700D01*
X206673630Y-195529700D02*
X206673630Y-195886842D01*
X206673630Y-195886842D02*
X206602201Y-196172557D01*
X206602201Y-196172557D02*
X206530773Y-196315414D01*
X206530773Y-196315414D02*
X206459344Y-196386842D01*
X206459344Y-196386842D02*
X206316487Y-196458271D01*
X206316487Y-196458271D02*
X206173630Y-196458271D01*
X206173630Y-196458271D02*
X206030773Y-196386842D01*
X206030773Y-196386842D02*
X205959344Y-196315414D01*
X205959344Y-196315414D02*
X205887915Y-196172557D01*
X205887915Y-196172557D02*
X205816487Y-195886842D01*
X205816487Y-195886842D02*
X205816487Y-195529700D01*
X205816487Y-195529700D02*
X205887915Y-195243985D01*
X205887915Y-195243985D02*
X205959344Y-195101128D01*
X205959344Y-195101128D02*
X206030773Y-195029700D01*
X206030773Y-195029700D02*
X206173630Y-194958271D01*
X207173629Y-197029700D02*
X207245058Y-196958271D01*
X207245058Y-196958271D02*
X207387915Y-196743985D01*
X207387915Y-196743985D02*
X207459344Y-196601128D01*
X207459344Y-196601128D02*
X207530772Y-196386842D01*
X207530772Y-196386842D02*
X207602201Y-196029700D01*
X207602201Y-196029700D02*
X207602201Y-195743985D01*
X207602201Y-195743985D02*
X207530772Y-195386842D01*
X207530772Y-195386842D02*
X207459344Y-195172557D01*
X207459344Y-195172557D02*
X207387915Y-195029700D01*
X207387915Y-195029700D02*
X207245058Y-194815414D01*
X207245058Y-194815414D02*
X207173629Y-194743985D01*
D10*
D11*
X177002200Y-191507200D02*
X285002200Y-191507200D01*
D10*
D12*
X264216485Y-193658271D02*
X263716485Y-192943985D01*
X263359342Y-193658271D02*
X263359342Y-192158271D01*
X263359342Y-192158271D02*
X263930771Y-192158271D01*
X263930771Y-192158271D02*
X264073628Y-192229700D01*
X264073628Y-192229700D02*
X264145057Y-192301128D01*
X264145057Y-192301128D02*
X264216485Y-192443985D01*
X264216485Y-192443985D02*
X264216485Y-192658271D01*
X264216485Y-192658271D02*
X264145057Y-192801128D01*
X264145057Y-192801128D02*
X264073628Y-192872557D01*
X264073628Y-192872557D02*
X263930771Y-192943985D01*
X263930771Y-192943985D02*
X263359342Y-192943985D01*
X265430771Y-193586842D02*
X265287914Y-193658271D01*
X265287914Y-193658271D02*
X265002200Y-193658271D01*
X265002200Y-193658271D02*
X264859342Y-193586842D01*
X264859342Y-193586842D02*
X264787914Y-193443985D01*
X264787914Y-193443985D02*
X264787914Y-192872557D01*
X264787914Y-192872557D02*
X264859342Y-192729700D01*
X264859342Y-192729700D02*
X265002200Y-192658271D01*
X265002200Y-192658271D02*
X265287914Y-192658271D01*
X265287914Y-192658271D02*
X265430771Y-192729700D01*
X265430771Y-192729700D02*
X265502200Y-192872557D01*
X265502200Y-192872557D02*
X265502200Y-193015414D01*
X265502200Y-193015414D02*
X264787914Y-193158271D01*
X266002199Y-192658271D02*
X266359342Y-193658271D01*
X266359342Y-193658271D02*
X266716485Y-192658271D01*
X267287913Y-193515414D02*
X267359342Y-193586842D01*
X267359342Y-193586842D02*
X267287913Y-193658271D01*
X267287913Y-193658271D02*
X267216485Y-193586842D01*
X267216485Y-193586842D02*
X267287913Y-193515414D01*
X267287913Y-193515414D02*
X267287913Y-193658271D01*
X267287913Y-192729700D02*
X267359342Y-192801128D01*
X267359342Y-192801128D02*
X267287913Y-192872557D01*
X267287913Y-192872557D02*
X267216485Y-192801128D01*
X267216485Y-192801128D02*
X267287913Y-192729700D01*
X267287913Y-192729700D02*
X267287913Y-192872557D01*
D10*
D11*
X178287914Y-193586842D02*
X178502200Y-193658271D01*
X178502200Y-193658271D02*
X178859342Y-193658271D01*
X178859342Y-193658271D02*
X179002200Y-193586842D01*
X179002200Y-193586842D02*
X179073628Y-193515414D01*
X179073628Y-193515414D02*
X179145057Y-193372557D01*
X179145057Y-193372557D02*
X179145057Y-193229700D01*
X179145057Y-193229700D02*
X179073628Y-193086842D01*
X179073628Y-193086842D02*
X179002200Y-193015414D01*
X179002200Y-193015414D02*
X178859342Y-192943985D01*
X178859342Y-192943985D02*
X178573628Y-192872557D01*
X178573628Y-192872557D02*
X178430771Y-192801128D01*
X178430771Y-192801128D02*
X178359342Y-192729700D01*
X178359342Y-192729700D02*
X178287914Y-192586842D01*
X178287914Y-192586842D02*
X178287914Y-192443985D01*
X178287914Y-192443985D02*
X178359342Y-192301128D01*
X178359342Y-192301128D02*
X178430771Y-192229700D01*
X178430771Y-192229700D02*
X178573628Y-192158271D01*
X178573628Y-192158271D02*
X178930771Y-192158271D01*
X178930771Y-192158271D02*
X179145057Y-192229700D01*
X179787913Y-193658271D02*
X179787913Y-192658271D01*
X179787913Y-192158271D02*
X179716485Y-192229700D01*
X179716485Y-192229700D02*
X179787913Y-192301128D01*
X179787913Y-192301128D02*
X179859342Y-192229700D01*
X179859342Y-192229700D02*
X179787913Y-192158271D01*
X179787913Y-192158271D02*
X179787913Y-192301128D01*
X180359342Y-192658271D02*
X181145057Y-192658271D01*
X181145057Y-192658271D02*
X180359342Y-193658271D01*
X180359342Y-193658271D02*
X181145057Y-193658271D01*
X182287914Y-193586842D02*
X182145057Y-193658271D01*
X182145057Y-193658271D02*
X181859343Y-193658271D01*
X181859343Y-193658271D02*
X181716485Y-193586842D01*
X181716485Y-193586842D02*
X181645057Y-193443985D01*
X181645057Y-193443985D02*
X181645057Y-192872557D01*
X181645057Y-192872557D02*
X181716485Y-192729700D01*
X181716485Y-192729700D02*
X181859343Y-192658271D01*
X181859343Y-192658271D02*
X182145057Y-192658271D01*
X182145057Y-192658271D02*
X182287914Y-192729700D01*
X182287914Y-192729700D02*
X182359343Y-192872557D01*
X182359343Y-192872557D02*
X182359343Y-193015414D01*
X182359343Y-193015414D02*
X181645057Y-193158271D01*
X183002199Y-193515414D02*
X183073628Y-193586842D01*
X183073628Y-193586842D02*
X183002199Y-193658271D01*
X183002199Y-193658271D02*
X182930771Y-193586842D01*
X182930771Y-193586842D02*
X183002199Y-193515414D01*
X183002199Y-193515414D02*
X183002199Y-193658271D01*
X183002199Y-192729700D02*
X183073628Y-192801128D01*
X183073628Y-192801128D02*
X183002199Y-192872557D01*
X183002199Y-192872557D02*
X182930771Y-192801128D01*
X182930771Y-192801128D02*
X183002199Y-192729700D01*
X183002199Y-192729700D02*
X183002199Y-192872557D01*
X184545057Y-193229700D02*
X185259343Y-193229700D01*
X184402200Y-193658271D02*
X184902200Y-192158271D01*
X184902200Y-192158271D02*
X185402200Y-193658271D01*
X186545057Y-192658271D02*
X186545057Y-193658271D01*
X186187914Y-192086842D02*
X185830771Y-193158271D01*
X185830771Y-193158271D02*
X186759342Y-193158271D01*
D10*
D11*
X263359342Y-196458271D02*
X263359342Y-194958271D01*
X264716486Y-196458271D02*
X264716486Y-194958271D01*
X264716486Y-196386842D02*
X264573628Y-196458271D01*
X264573628Y-196458271D02*
X264287914Y-196458271D01*
X264287914Y-196458271D02*
X264145057Y-196386842D01*
X264145057Y-196386842D02*
X264073628Y-196315414D01*
X264073628Y-196315414D02*
X264002200Y-196172557D01*
X264002200Y-196172557D02*
X264002200Y-195743985D01*
X264002200Y-195743985D02*
X264073628Y-195601128D01*
X264073628Y-195601128D02*
X264145057Y-195529700D01*
X264145057Y-195529700D02*
X264287914Y-195458271D01*
X264287914Y-195458271D02*
X264573628Y-195458271D01*
X264573628Y-195458271D02*
X264716486Y-195529700D01*
X265430771Y-196315414D02*
X265502200Y-196386842D01*
X265502200Y-196386842D02*
X265430771Y-196458271D01*
X265430771Y-196458271D02*
X265359343Y-196386842D01*
X265359343Y-196386842D02*
X265430771Y-196315414D01*
X265430771Y-196315414D02*
X265430771Y-196458271D01*
X265430771Y-195529700D02*
X265502200Y-195601128D01*
X265502200Y-195601128D02*
X265430771Y-195672557D01*
X265430771Y-195672557D02*
X265359343Y-195601128D01*
X265359343Y-195601128D02*
X265430771Y-195529700D01*
X265430771Y-195529700D02*
X265430771Y-195672557D01*
X267830772Y-196458271D02*
X266973629Y-196458271D01*
X267402200Y-196458271D02*
X267402200Y-194958271D01*
X267402200Y-194958271D02*
X267259343Y-195172557D01*
X267259343Y-195172557D02*
X267116486Y-195315414D01*
X267116486Y-195315414D02*
X266973629Y-195386842D01*
X269545057Y-194886842D02*
X268259343Y-196815414D01*
X270830772Y-196458271D02*
X269973629Y-196458271D01*
X270402200Y-196458271D02*
X270402200Y-194958271D01*
X270402200Y-194958271D02*
X270259343Y-195172557D01*
X270259343Y-195172557D02*
X270116486Y-195315414D01*
X270116486Y-195315414D02*
X269973629Y-195386842D01*
D10*
D11*
X177002200Y-187507200D02*
X285002200Y-187507200D01*
D10*
D13*
X178454580Y-188041961D02*
X179597438Y-188041961D01*
X178776009Y-190041961D02*
X179026009Y-188041961D01*
X180014105Y-190041961D02*
X180180771Y-188708628D01*
X180264105Y-188041961D02*
X180156962Y-188137200D01*
X180156962Y-188137200D02*
X180240295Y-188232438D01*
X180240295Y-188232438D02*
X180347438Y-188137200D01*
X180347438Y-188137200D02*
X180264105Y-188041961D01*
X180264105Y-188041961D02*
X180240295Y-188232438D01*
X180847438Y-188708628D02*
X181609343Y-188708628D01*
X181216486Y-188041961D02*
X181002200Y-189756247D01*
X181002200Y-189756247D02*
X181073629Y-189946723D01*
X181073629Y-189946723D02*
X181252200Y-190041961D01*
X181252200Y-190041961D02*
X181442676Y-190041961D01*
X182395057Y-190041961D02*
X182216486Y-189946723D01*
X182216486Y-189946723D02*
X182145057Y-189756247D01*
X182145057Y-189756247D02*
X182359343Y-188041961D01*
X183930771Y-189946723D02*
X183728390Y-190041961D01*
X183728390Y-190041961D02*
X183347438Y-190041961D01*
X183347438Y-190041961D02*
X183168867Y-189946723D01*
X183168867Y-189946723D02*
X183097438Y-189756247D01*
X183097438Y-189756247D02*
X183192676Y-188994342D01*
X183192676Y-188994342D02*
X183311724Y-188803866D01*
X183311724Y-188803866D02*
X183514105Y-188708628D01*
X183514105Y-188708628D02*
X183895057Y-188708628D01*
X183895057Y-188708628D02*
X184073628Y-188803866D01*
X184073628Y-188803866D02*
X184145057Y-188994342D01*
X184145057Y-188994342D02*
X184121247Y-189184819D01*
X184121247Y-189184819D02*
X183145057Y-189375295D01*
X184895057Y-189851485D02*
X184978391Y-189946723D01*
X184978391Y-189946723D02*
X184871248Y-190041961D01*
X184871248Y-190041961D02*
X184787914Y-189946723D01*
X184787914Y-189946723D02*
X184895057Y-189851485D01*
X184895057Y-189851485D02*
X184871248Y-190041961D01*
X185026010Y-188803866D02*
X185109343Y-188899104D01*
X185109343Y-188899104D02*
X185002200Y-188994342D01*
X185002200Y-188994342D02*
X184918867Y-188899104D01*
X184918867Y-188899104D02*
X185026010Y-188803866D01*
X185026010Y-188803866D02*
X185002200Y-188994342D01*
D10*
D11*
X178859342Y-185472557D02*
X178359342Y-185472557D01*
X178359342Y-186258271D02*
X178359342Y-184758271D01*
X178359342Y-184758271D02*
X179073628Y-184758271D01*
X179645056Y-186258271D02*
X179645056Y-185258271D01*
X179645056Y-184758271D02*
X179573628Y-184829700D01*
X179573628Y-184829700D02*
X179645056Y-184901128D01*
X179645056Y-184901128D02*
X179716485Y-184829700D01*
X179716485Y-184829700D02*
X179645056Y-184758271D01*
X179645056Y-184758271D02*
X179645056Y-184901128D01*
X180573628Y-186258271D02*
X180430771Y-186186842D01*
X180430771Y-186186842D02*
X180359342Y-186043985D01*
X180359342Y-186043985D02*
X180359342Y-184758271D01*
X181716485Y-186186842D02*
X181573628Y-186258271D01*
X181573628Y-186258271D02*
X181287914Y-186258271D01*
X181287914Y-186258271D02*
X181145056Y-186186842D01*
X181145056Y-186186842D02*
X181073628Y-186043985D01*
X181073628Y-186043985D02*
X181073628Y-185472557D01*
X181073628Y-185472557D02*
X181145056Y-185329700D01*
X181145056Y-185329700D02*
X181287914Y-185258271D01*
X181287914Y-185258271D02*
X181573628Y-185258271D01*
X181573628Y-185258271D02*
X181716485Y-185329700D01*
X181716485Y-185329700D02*
X181787914Y-185472557D01*
X181787914Y-185472557D02*
X181787914Y-185615414D01*
X181787914Y-185615414D02*
X181073628Y-185758271D01*
X182430770Y-186115414D02*
X182502199Y-186186842D01*
X182502199Y-186186842D02*
X182430770Y-186258271D01*
X182430770Y-186258271D02*
X182359342Y-186186842D01*
X182359342Y-186186842D02*
X182430770Y-186115414D01*
X182430770Y-186115414D02*
X182430770Y-186258271D01*
X182430770Y-185329700D02*
X182502199Y-185401128D01*
X182502199Y-185401128D02*
X182430770Y-185472557D01*
X182430770Y-185472557D02*
X182359342Y-185401128D01*
X182359342Y-185401128D02*
X182430770Y-185329700D01*
X182430770Y-185329700D02*
X182430770Y-185472557D01*
X183973628Y-186186842D02*
X184187914Y-186258271D01*
X184187914Y-186258271D02*
X184545056Y-186258271D01*
X184545056Y-186258271D02*
X184687914Y-186186842D01*
X184687914Y-186186842D02*
X184759342Y-186115414D01*
X184759342Y-186115414D02*
X184830771Y-185972557D01*
X184830771Y-185972557D02*
X184830771Y-185829700D01*
X184830771Y-185829700D02*
X184759342Y-185686842D01*
X184759342Y-185686842D02*
X184687914Y-185615414D01*
X184687914Y-185615414D02*
X184545056Y-185543985D01*
X184545056Y-185543985D02*
X184259342Y-185472557D01*
X184259342Y-185472557D02*
X184116485Y-185401128D01*
X184116485Y-185401128D02*
X184045056Y-185329700D01*
X184045056Y-185329700D02*
X183973628Y-185186842D01*
X183973628Y-185186842D02*
X183973628Y-185043985D01*
X183973628Y-185043985D02*
X184045056Y-184901128D01*
X184045056Y-184901128D02*
X184116485Y-184829700D01*
X184116485Y-184829700D02*
X184259342Y-184758271D01*
X184259342Y-184758271D02*
X184616485Y-184758271D01*
X184616485Y-184758271D02*
X184830771Y-184829700D01*
X185259342Y-184758271D02*
X186116485Y-184758271D01*
X185687913Y-186258271D02*
X185687913Y-184758271D01*
X186616484Y-186258271D02*
X186616484Y-184758271D01*
X186616484Y-184758271D02*
X187116484Y-185829700D01*
X187116484Y-185829700D02*
X187616484Y-184758271D01*
X187616484Y-184758271D02*
X187616484Y-186258271D01*
X188187913Y-184758271D02*
X189116485Y-184758271D01*
X189116485Y-184758271D02*
X188616485Y-185329700D01*
X188616485Y-185329700D02*
X188830770Y-185329700D01*
X188830770Y-185329700D02*
X188973628Y-185401128D01*
X188973628Y-185401128D02*
X189045056Y-185472557D01*
X189045056Y-185472557D02*
X189116485Y-185615414D01*
X189116485Y-185615414D02*
X189116485Y-185972557D01*
X189116485Y-185972557D02*
X189045056Y-186115414D01*
X189045056Y-186115414D02*
X188973628Y-186186842D01*
X188973628Y-186186842D02*
X188830770Y-186258271D01*
X188830770Y-186258271D02*
X188402199Y-186258271D01*
X188402199Y-186258271D02*
X188259342Y-186186842D01*
X188259342Y-186186842D02*
X188187913Y-186115414D01*
X189687913Y-184901128D02*
X189759341Y-184829700D01*
X189759341Y-184829700D02*
X189902199Y-184758271D01*
X189902199Y-184758271D02*
X190259341Y-184758271D01*
X190259341Y-184758271D02*
X190402199Y-184829700D01*
X190402199Y-184829700D02*
X190473627Y-184901128D01*
X190473627Y-184901128D02*
X190545056Y-185043985D01*
X190545056Y-185043985D02*
X190545056Y-185186842D01*
X190545056Y-185186842D02*
X190473627Y-185401128D01*
X190473627Y-185401128D02*
X189616484Y-186258271D01*
X189616484Y-186258271D02*
X190545056Y-186258271D01*
X191687912Y-185472557D02*
X191187912Y-185472557D01*
X191187912Y-186258271D02*
X191187912Y-184758271D01*
X191187912Y-184758271D02*
X191902198Y-184758271D01*
X193259341Y-186258271D02*
X192402198Y-186258271D01*
X192830769Y-186258271D02*
X192830769Y-184758271D01*
X192830769Y-184758271D02*
X192687912Y-184972557D01*
X192687912Y-184972557D02*
X192545055Y-185115414D01*
X192545055Y-185115414D02*
X192402198Y-185186842D01*
X194187912Y-184758271D02*
X194330769Y-184758271D01*
X194330769Y-184758271D02*
X194473626Y-184829700D01*
X194473626Y-184829700D02*
X194545055Y-184901128D01*
X194545055Y-184901128D02*
X194616483Y-185043985D01*
X194616483Y-185043985D02*
X194687912Y-185329700D01*
X194687912Y-185329700D02*
X194687912Y-185686842D01*
X194687912Y-185686842D02*
X194616483Y-185972557D01*
X194616483Y-185972557D02*
X194545055Y-186115414D01*
X194545055Y-186115414D02*
X194473626Y-186186842D01*
X194473626Y-186186842D02*
X194330769Y-186258271D01*
X194330769Y-186258271D02*
X194187912Y-186258271D01*
X194187912Y-186258271D02*
X194045055Y-186186842D01*
X194045055Y-186186842D02*
X193973626Y-186115414D01*
X193973626Y-186115414D02*
X193902197Y-185972557D01*
X193902197Y-185972557D02*
X193830769Y-185686842D01*
X193830769Y-185686842D02*
X193830769Y-185329700D01*
X193830769Y-185329700D02*
X193902197Y-185043985D01*
X193902197Y-185043985D02*
X193973626Y-184901128D01*
X193973626Y-184901128D02*
X194045055Y-184829700D01*
X194045055Y-184829700D02*
X194187912Y-184758271D01*
X195187911Y-184758271D02*
X196116483Y-184758271D01*
X196116483Y-184758271D02*
X195616483Y-185329700D01*
X195616483Y-185329700D02*
X195830768Y-185329700D01*
X195830768Y-185329700D02*
X195973626Y-185401128D01*
X195973626Y-185401128D02*
X196045054Y-185472557D01*
X196045054Y-185472557D02*
X196116483Y-185615414D01*
X196116483Y-185615414D02*
X196116483Y-185972557D01*
X196116483Y-185972557D02*
X196045054Y-186115414D01*
X196045054Y-186115414D02*
X195973626Y-186186842D01*
X195973626Y-186186842D02*
X195830768Y-186258271D01*
X195830768Y-186258271D02*
X195402197Y-186258271D01*
X195402197Y-186258271D02*
X195259340Y-186186842D01*
X195259340Y-186186842D02*
X195187911Y-186115414D01*
X196759339Y-186115414D02*
X196830768Y-186186842D01*
X196830768Y-186186842D02*
X196759339Y-186258271D01*
X196759339Y-186258271D02*
X196687911Y-186186842D01*
X196687911Y-186186842D02*
X196759339Y-186115414D01*
X196759339Y-186115414D02*
X196759339Y-186258271D01*
X197473625Y-186258271D02*
X197473625Y-184758271D01*
X197616483Y-185686842D02*
X198045054Y-186258271D01*
X198045054Y-185258271D02*
X197473625Y-185829700D01*
X198687911Y-186258271D02*
X198687911Y-185258271D01*
X198687911Y-184758271D02*
X198616483Y-184829700D01*
X198616483Y-184829700D02*
X198687911Y-184901128D01*
X198687911Y-184901128D02*
X198759340Y-184829700D01*
X198759340Y-184829700D02*
X198687911Y-184758271D01*
X198687911Y-184758271D02*
X198687911Y-184901128D01*
X200045055Y-186186842D02*
X199902197Y-186258271D01*
X199902197Y-186258271D02*
X199616483Y-186258271D01*
X199616483Y-186258271D02*
X199473626Y-186186842D01*
X199473626Y-186186842D02*
X199402197Y-186115414D01*
X199402197Y-186115414D02*
X199330769Y-185972557D01*
X199330769Y-185972557D02*
X199330769Y-185543985D01*
X199330769Y-185543985D02*
X199402197Y-185401128D01*
X199402197Y-185401128D02*
X199473626Y-185329700D01*
X199473626Y-185329700D02*
X199616483Y-185258271D01*
X199616483Y-185258271D02*
X199902197Y-185258271D01*
X199902197Y-185258271D02*
X200045055Y-185329700D01*
X201330769Y-186258271D02*
X201330769Y-185472557D01*
X201330769Y-185472557D02*
X201259340Y-185329700D01*
X201259340Y-185329700D02*
X201116483Y-185258271D01*
X201116483Y-185258271D02*
X200830769Y-185258271D01*
X200830769Y-185258271D02*
X200687911Y-185329700D01*
X201330769Y-186186842D02*
X201187911Y-186258271D01*
X201187911Y-186258271D02*
X200830769Y-186258271D01*
X200830769Y-186258271D02*
X200687911Y-186186842D01*
X200687911Y-186186842D02*
X200616483Y-186043985D01*
X200616483Y-186043985D02*
X200616483Y-185901128D01*
X200616483Y-185901128D02*
X200687911Y-185758271D01*
X200687911Y-185758271D02*
X200830769Y-185686842D01*
X200830769Y-185686842D02*
X201187911Y-185686842D01*
X201187911Y-185686842D02*
X201330769Y-185615414D01*
X202687912Y-186258271D02*
X202687912Y-184758271D01*
X202687912Y-186186842D02*
X202545054Y-186258271D01*
X202545054Y-186258271D02*
X202259340Y-186258271D01*
X202259340Y-186258271D02*
X202116483Y-186186842D01*
X202116483Y-186186842D02*
X202045054Y-186115414D01*
X202045054Y-186115414D02*
X201973626Y-185972557D01*
X201973626Y-185972557D02*
X201973626Y-185543985D01*
X201973626Y-185543985D02*
X202045054Y-185401128D01*
X202045054Y-185401128D02*
X202116483Y-185329700D01*
X202116483Y-185329700D02*
X202259340Y-185258271D01*
X202259340Y-185258271D02*
X202545054Y-185258271D01*
X202545054Y-185258271D02*
X202687912Y-185329700D01*
X203045055Y-186401128D02*
X204187912Y-186401128D01*
X204545054Y-185258271D02*
X204545054Y-186758271D01*
X204545054Y-185329700D02*
X204687912Y-185258271D01*
X204687912Y-185258271D02*
X204973626Y-185258271D01*
X204973626Y-185258271D02*
X205116483Y-185329700D01*
X205116483Y-185329700D02*
X205187912Y-185401128D01*
X205187912Y-185401128D02*
X205259340Y-185543985D01*
X205259340Y-185543985D02*
X205259340Y-185972557D01*
X205259340Y-185972557D02*
X205187912Y-186115414D01*
X205187912Y-186115414D02*
X205116483Y-186186842D01*
X205116483Y-186186842D02*
X204973626Y-186258271D01*
X204973626Y-186258271D02*
X204687912Y-186258271D01*
X204687912Y-186258271D02*
X204545054Y-186186842D01*
X206545055Y-186186842D02*
X206402197Y-186258271D01*
X206402197Y-186258271D02*
X206116483Y-186258271D01*
X206116483Y-186258271D02*
X205973626Y-186186842D01*
X205973626Y-186186842D02*
X205902197Y-186115414D01*
X205902197Y-186115414D02*
X205830769Y-185972557D01*
X205830769Y-185972557D02*
X205830769Y-185543985D01*
X205830769Y-185543985D02*
X205902197Y-185401128D01*
X205902197Y-185401128D02*
X205973626Y-185329700D01*
X205973626Y-185329700D02*
X206116483Y-185258271D01*
X206116483Y-185258271D02*
X206402197Y-185258271D01*
X206402197Y-185258271D02*
X206545055Y-185329700D01*
X207187911Y-186258271D02*
X207187911Y-184758271D01*
X207187911Y-185329700D02*
X207330769Y-185258271D01*
X207330769Y-185258271D02*
X207616483Y-185258271D01*
X207616483Y-185258271D02*
X207759340Y-185329700D01*
X207759340Y-185329700D02*
X207830769Y-185401128D01*
X207830769Y-185401128D02*
X207902197Y-185543985D01*
X207902197Y-185543985D02*
X207902197Y-185972557D01*
X207902197Y-185972557D02*
X207830769Y-186115414D01*
X207830769Y-186115414D02*
X207759340Y-186186842D01*
X207759340Y-186186842D02*
X207616483Y-186258271D01*
X207616483Y-186258271D02*
X207330769Y-186258271D01*
X207330769Y-186258271D02*
X207187911Y-186186842D01*
D10*
D11*
X177002200Y-181507200D02*
X285002200Y-181507200D01*
D10*
D11*
X178287914Y-183486842D02*
X178502200Y-183558271D01*
X178502200Y-183558271D02*
X178859342Y-183558271D01*
X178859342Y-183558271D02*
X179002200Y-183486842D01*
X179002200Y-183486842D02*
X179073628Y-183415414D01*
X179073628Y-183415414D02*
X179145057Y-183272557D01*
X179145057Y-183272557D02*
X179145057Y-183129700D01*
X179145057Y-183129700D02*
X179073628Y-182986842D01*
X179073628Y-182986842D02*
X179002200Y-182915414D01*
X179002200Y-182915414D02*
X178859342Y-182843985D01*
X178859342Y-182843985D02*
X178573628Y-182772557D01*
X178573628Y-182772557D02*
X178430771Y-182701128D01*
X178430771Y-182701128D02*
X178359342Y-182629700D01*
X178359342Y-182629700D02*
X178287914Y-182486842D01*
X178287914Y-182486842D02*
X178287914Y-182343985D01*
X178287914Y-182343985D02*
X178359342Y-182201128D01*
X178359342Y-182201128D02*
X178430771Y-182129700D01*
X178430771Y-182129700D02*
X178573628Y-182058271D01*
X178573628Y-182058271D02*
X178930771Y-182058271D01*
X178930771Y-182058271D02*
X179145057Y-182129700D01*
X179787913Y-183558271D02*
X179787913Y-182058271D01*
X180430771Y-183558271D02*
X180430771Y-182772557D01*
X180430771Y-182772557D02*
X180359342Y-182629700D01*
X180359342Y-182629700D02*
X180216485Y-182558271D01*
X180216485Y-182558271D02*
X180002199Y-182558271D01*
X180002199Y-182558271D02*
X179859342Y-182629700D01*
X179859342Y-182629700D02*
X179787913Y-182701128D01*
X181716485Y-183486842D02*
X181573628Y-183558271D01*
X181573628Y-183558271D02*
X181287914Y-183558271D01*
X181287914Y-183558271D02*
X181145056Y-183486842D01*
X181145056Y-183486842D02*
X181073628Y-183343985D01*
X181073628Y-183343985D02*
X181073628Y-182772557D01*
X181073628Y-182772557D02*
X181145056Y-182629700D01*
X181145056Y-182629700D02*
X181287914Y-182558271D01*
X181287914Y-182558271D02*
X181573628Y-182558271D01*
X181573628Y-182558271D02*
X181716485Y-182629700D01*
X181716485Y-182629700D02*
X181787914Y-182772557D01*
X181787914Y-182772557D02*
X181787914Y-182915414D01*
X181787914Y-182915414D02*
X181073628Y-183058271D01*
X183002199Y-183486842D02*
X182859342Y-183558271D01*
X182859342Y-183558271D02*
X182573628Y-183558271D01*
X182573628Y-183558271D02*
X182430770Y-183486842D01*
X182430770Y-183486842D02*
X182359342Y-183343985D01*
X182359342Y-183343985D02*
X182359342Y-182772557D01*
X182359342Y-182772557D02*
X182430770Y-182629700D01*
X182430770Y-182629700D02*
X182573628Y-182558271D01*
X182573628Y-182558271D02*
X182859342Y-182558271D01*
X182859342Y-182558271D02*
X183002199Y-182629700D01*
X183002199Y-182629700D02*
X183073628Y-182772557D01*
X183073628Y-182772557D02*
X183073628Y-182915414D01*
X183073628Y-182915414D02*
X182359342Y-183058271D01*
X183502199Y-182558271D02*
X184073627Y-182558271D01*
X183716484Y-182058271D02*
X183716484Y-183343985D01*
X183716484Y-183343985D02*
X183787913Y-183486842D01*
X183787913Y-183486842D02*
X183930770Y-183558271D01*
X183930770Y-183558271D02*
X184073627Y-183558271D01*
X184573627Y-183415414D02*
X184645056Y-183486842D01*
X184645056Y-183486842D02*
X184573627Y-183558271D01*
X184573627Y-183558271D02*
X184502199Y-183486842D01*
X184502199Y-183486842D02*
X184573627Y-183415414D01*
X184573627Y-183415414D02*
X184573627Y-183558271D01*
X184573627Y-182629700D02*
X184645056Y-182701128D01*
X184645056Y-182701128D02*
X184573627Y-182772557D01*
X184573627Y-182772557D02*
X184502199Y-182701128D01*
X184502199Y-182701128D02*
X184573627Y-182629700D01*
X184573627Y-182629700D02*
X184573627Y-182772557D01*
D10*
D12*
D10*
D11*
D10*
D11*
D10*
D11*
D10*
D11*
D10*
D11*
X197002200Y-191507200D02*
X197002200Y-194507200D01*
D10*
D11*
X261002200Y-191507200D02*
X261002200Y-198007200D01*
D14*
%TO.P,J3,1,Pin_1*%
%TO.N,PB0*%
X164904999Y-117079999D03*
D15*
%TO.P,J3,2,Pin_2*%
%TO.N,PB1*%
X164904999Y-114539999D03*
%TO.P,J3,3,Pin_3*%
%TO.N,PB2*%
X164904999Y-111999999D03*
%TO.P,J3,4,Pin_4*%
%TO.N,PB3*%
X164904999Y-109459999D03*
%TO.P,J3,5,Pin_5*%
%TO.N,PB4*%
X164904999Y-106919999D03*
%TO.P,J3,6,Pin_6*%
%TO.N,PB5*%
X164904999Y-104379999D03*
%TO.P,J3,7,Pin_7*%
%TO.N,PB6*%
X164904999Y-101839999D03*
%TO.P,J3,8,Pin_8*%
%TO.N,PB7*%
X164904999Y-99299999D03*
%TO.P,J3,9,Pin_9*%
%TO.N,PB8*%
X164904999Y-96759999D03*
%TO.P,J3,10,Pin_10*%
%TO.N,PB9*%
X164904999Y-94219999D03*
%TO.P,J3,11,Pin_11*%
%TO.N,PB10*%
X164904999Y-91679999D03*
%TO.P,J3,12,Pin_12*%
%TO.N,PB11*%
X164904999Y-89139999D03*
%TO.P,J3,13,Pin_13*%
%TO.N,PB12*%
X164904999Y-86599999D03*
%TO.P,J3,14,Pin_14*%
%TO.N,PB13*%
X164904999Y-84059999D03*
%TO.P,J3,15,Pin_15*%
%TO.N,PB14*%
X164904999Y-81519999D03*
%TO.P,J3,16,Pin_16*%
%TO.N,PB15*%
X164904999Y-78979999D03*
%TD*%
D14*
%TO.P,J1,1,Pin_1*%
%TO.N,SWDIO*%
X157639999Y-102364999D03*
D15*
%TO.P,J1,2,Pin_2*%
%TO.N,SWCLK*%
X157639999Y-99824999D03*
%TD*%
D14*
%TO.P,J4,1,Pin_1*%
%TO.N,PA0*%
X132494999Y-78929999D03*
D15*
%TO.P,J4,2,Pin_2*%
%TO.N,PA1*%
X132494999Y-81469999D03*
%TO.P,J4,3,Pin_3*%
%TO.N,PA2*%
X132494999Y-84009999D03*
%TO.P,J4,4,Pin_4*%
%TO.N,PA3*%
X132494999Y-86549999D03*
%TO.P,J4,5,Pin_5*%
%TO.N,PA4*%
X132494999Y-89089999D03*
%TO.P,J4,6,Pin_6*%
%TO.N,PA5*%
X132494999Y-91629999D03*
%TO.P,J4,7,Pin_7*%
%TO.N,PA6*%
X132494999Y-94169999D03*
%TO.P,J4,8,Pin_8*%
%TO.N,PA7*%
X132494999Y-96709999D03*
%TO.P,J4,9,Pin_9*%
%TO.N,PA8*%
X132494999Y-99249999D03*
%TO.P,J4,10,Pin_10*%
%TO.N,PA9*%
X132494999Y-101789999D03*
%TO.P,J4,11,Pin_11*%
%TO.N,PA10*%
X132494999Y-104329999D03*
%TO.P,J4,12,Pin_12*%
%TO.N,PA11*%
X132494999Y-106869999D03*
%TD*%
D16*
%TO.P,J2,6,Shield*%
%TO.N,GND*%
X144614999Y-117909999D03*
D17*
X144764999Y-114109999D03*
D16*
X152364999Y-117909999D03*
D17*
X152214999Y-114109999D03*
%TD*%
D18*
%TO.N,GND*%
X148460000Y-83450000D03*
X157090000Y-110730000D03*
X147470000Y-91520000D03*
X162410000Y-78110000D03*
X148437708Y-101782292D03*
X148270000Y-117250000D03*
X148350000Y-92940000D03*
X141900000Y-110430000D03*
X140920000Y-116820000D03*
X141650000Y-93920000D03*
X145920000Y-91980000D03*
X142720000Y-90160000D03*
X149260000Y-100390000D03*
X135270000Y-99730000D03*
X135530000Y-78440000D03*
X149420000Y-105370000D03*
X144030000Y-100390000D03*
D19*
X151380000Y-88690000D03*
X158310000Y-83590000D03*
D18*
X161370000Y-100750000D03*
X160690000Y-118680000D03*
X137080000Y-116540000D03*
X131440000Y-109720000D03*
X136760000Y-109920000D03*
X145140000Y-96320000D03*
X146180000Y-81570000D03*
X151090000Y-77600000D03*
X140070000Y-101500000D03*
X145080000Y-88100000D03*
X158280000Y-80000000D03*
X142540000Y-106230000D03*
X146760000Y-109590000D03*
X135020000Y-87000000D03*
%TO.N,+3.3V*%
X149440000Y-111440000D03*
X145770000Y-110780000D03*
X142280000Y-114440000D03*
D19*
%TO.N,PB0*%
X138190500Y-98929500D03*
%TO.N,PB1*%
X137060000Y-102440000D03*
%TO.N,PB2*%
X137759500Y-101410000D03*
D18*
%TO.N,PB3*%
X152560000Y-100630500D03*
%TO.N,PB4*%
X153230000Y-100146500D03*
%TO.N,PB5*%
X154250000Y-99620000D03*
%TO.N,PB6*%
X155240000Y-99400000D03*
%TO.N,PB7*%
X155378335Y-98612557D03*
%TO.N,PB8*%
X153436089Y-97396089D03*
%TO.N,PB9*%
X153550500Y-96341459D03*
D19*
%TO.N,PB10*%
X138459500Y-102151155D03*
%TO.N,PB11*%
X139159000Y-102903072D03*
%TO.N,PB12*%
X143752666Y-99029205D03*
%TO.N,PB13*%
X145231000Y-98648494D03*
%TO.N,PB14*%
X145930500Y-97340000D03*
%TO.N,PB15*%
X146630000Y-96250000D03*
D18*
%TO.N,PA8*%
X145070000Y-106620000D03*
%TO.N,PA9*%
X145770000Y-107070000D03*
%TO.N,PA10*%
X146710500Y-106854125D03*
%TO.N,PA11*%
X147290000Y-106220000D03*
%TD*%
D20*
%TO.N,GND*%
X157970000Y-83930000D02*
X158310000Y-83590000D01*
X157850000Y-83930000D02*
X157970000Y-83930000D01*
X153090000Y-88690000D02*
X157850000Y-83930000D01*
X151380000Y-88690000D02*
X153090000Y-88690000D01*
%TO.N,+3.3V*%
X145980000Y-110990000D02*
X145770000Y-110780000D01*
X142280000Y-113660000D02*
X144120000Y-111820000D01*
X145980000Y-111820000D02*
X149060000Y-111820000D01*
X142280000Y-114440000D02*
X142280000Y-113660000D01*
X145980000Y-111820000D02*
X145980000Y-110990000D01*
X144120000Y-111820000D02*
X145980000Y-111820000D01*
X149060000Y-111820000D02*
X149440000Y-111440000D01*
%TO.N,PB0*%
X158895291Y-117080000D02*
X164905000Y-117080000D01*
X138190500Y-98929500D02*
X136300000Y-100820000D01*
X136300000Y-103784314D02*
X138205686Y-105690000D01*
X147505291Y-105690000D02*
X158895291Y-117080000D01*
X136300000Y-100820000D02*
X136300000Y-103784314D01*
X138205686Y-105690000D02*
X147505291Y-105690000D01*
%TO.N,PB1*%
X137060000Y-102440000D02*
X137060000Y-103978628D01*
X156900000Y-114540000D02*
X164905000Y-114540000D01*
X137060000Y-103978628D02*
X138401372Y-105320000D01*
X138401372Y-105320000D02*
X147680000Y-105320000D01*
X147680000Y-105320000D02*
X156900000Y-114540000D01*
%TO.N,PB2*%
X147833000Y-104993000D02*
X154840000Y-112000000D01*
X137760000Y-103100000D02*
X139653000Y-104993000D01*
X137760000Y-101410500D02*
X137760000Y-103100000D01*
X154840000Y-112000000D02*
X164905000Y-112000000D01*
X139653000Y-104993000D02*
X147833000Y-104993000D01*
X137759500Y-101410000D02*
X137760000Y-101410500D01*
%TO.N,PB3*%
X152570000Y-104660000D02*
X157370000Y-109460000D01*
X152560000Y-100630500D02*
X152570000Y-100640500D01*
X157370000Y-109460000D02*
X164905000Y-109460000D01*
X152570000Y-100640500D02*
X152570000Y-104660000D01*
%TO.N,PB4*%
X153210000Y-103560000D02*
X156550000Y-106900000D01*
X156550000Y-106900000D02*
X164885000Y-106900000D01*
X153210000Y-100166500D02*
X153210000Y-103560000D01*
X153230000Y-100146500D02*
X153210000Y-100166500D01*
X164885000Y-106900000D02*
X164905000Y-106920000D01*
%TO.N,PB5*%
X164315000Y-104970000D02*
X164905000Y-104380000D01*
X154250000Y-102890000D02*
X154250000Y-99620000D01*
X156330000Y-104970000D02*
X154250000Y-102890000D01*
X156330000Y-104970000D02*
X164315000Y-104970000D01*
%TO.N,PB6*%
X164905000Y-101840000D02*
X162985000Y-103760000D01*
X162985000Y-103760000D02*
X156410000Y-103760000D01*
X155240000Y-102590000D02*
X155240000Y-99400000D01*
X156410000Y-103760000D02*
X155240000Y-102590000D01*
%TO.N,PB7*%
X155378335Y-98612557D02*
X155378335Y-97981665D01*
X156010000Y-97350000D02*
X162955000Y-97350000D01*
X155378335Y-97981665D02*
X156010000Y-97350000D01*
X162955000Y-97350000D02*
X164905000Y-99300000D01*
%TO.N,PB8*%
X164905000Y-96760000D02*
X154072178Y-96760000D01*
X154072178Y-96760000D02*
X153436089Y-97396089D01*
%TO.N,PB9*%
X155671959Y-94220000D02*
X164905000Y-94220000D01*
X153550500Y-96341459D02*
X155671959Y-94220000D01*
%TO.N,PB10*%
X139415686Y-104190000D02*
X143870000Y-104190000D01*
X143870000Y-104190000D02*
X156380000Y-91680000D01*
X138459500Y-103233814D02*
X139415686Y-104190000D01*
X156380000Y-91680000D02*
X164905000Y-91680000D01*
X138459500Y-102151155D02*
X138459500Y-103233814D01*
%TO.N,PB11*%
X140045928Y-103790000D02*
X143704314Y-103790000D01*
X158354314Y-89140000D02*
X164905000Y-89140000D01*
X143704314Y-103790000D02*
X158354314Y-89140000D01*
X139159000Y-102903072D02*
X140045928Y-103790000D01*
%TO.N,PB12*%
X159122448Y-86600000D02*
X164905000Y-86600000D01*
X146373954Y-99348494D02*
X159122448Y-86600000D01*
X143752666Y-99029205D02*
X144071955Y-99348494D01*
X144071955Y-99348494D02*
X146373954Y-99348494D01*
%TO.N,PB13*%
X145231000Y-98648494D02*
X146611506Y-98648494D01*
X161200000Y-84060000D02*
X164905000Y-84060000D01*
X146611506Y-98648494D02*
X161200000Y-84060000D01*
%TO.N,PB14*%
X161337552Y-83460000D02*
X162965000Y-83460000D01*
X145930500Y-97340000D02*
X147457552Y-97340000D01*
X147457552Y-97340000D02*
X161337552Y-83460000D01*
X162965000Y-83460000D02*
X164905000Y-81520000D01*
D21*
%TO.N,PB15*%
X161785000Y-82100000D02*
X161735000Y-82150000D01*
D20*
X164905000Y-78980000D02*
X161785000Y-82100000D01*
D21*
X146893000Y-82707000D02*
X146893000Y-95987000D01*
X161735000Y-82150000D02*
X147450000Y-82150000D01*
X147450000Y-82150000D02*
X146893000Y-82707000D01*
X146893000Y-95987000D02*
X146630000Y-96250000D01*
D20*
X146600000Y-96220000D02*
X146630000Y-96250000D01*
%TO.N,PA8*%
X139040000Y-107090000D02*
X144600000Y-107090000D01*
X132495000Y-99250000D02*
X134970000Y-101725000D01*
X134970000Y-103020000D02*
X139040000Y-107090000D01*
X144600000Y-107090000D02*
X145160138Y-106529862D01*
X134970000Y-101725000D02*
X134970000Y-103020000D01*
%TO.N,PA9*%
X137870000Y-107165000D02*
X138195000Y-107490000D01*
X146020000Y-107260000D02*
X146020000Y-107110000D01*
X138195000Y-107490000D02*
X145790000Y-107490000D01*
X132495000Y-101790000D02*
X137870000Y-107165000D01*
X145790000Y-107490000D02*
X146020000Y-107260000D01*
%TO.N,PA10*%
X132495000Y-104330000D02*
X136055000Y-107890000D01*
X146170000Y-107890000D02*
X146690000Y-107370000D01*
X136350000Y-107890000D02*
X146170000Y-107890000D01*
X146690000Y-107370000D02*
X146750500Y-107309500D01*
X136055000Y-107890000D02*
X136350000Y-107890000D01*
X146750500Y-107309500D02*
X146750500Y-106674125D01*
%TO.N,PA11*%
X146780000Y-108310000D02*
X134380000Y-108310000D01*
X147290000Y-106220000D02*
X147290000Y-107800000D01*
X132940000Y-106870000D02*
X132495000Y-106870000D01*
X147290000Y-107800000D02*
X146780000Y-108310000D01*
X134380000Y-108310000D02*
X132940000Y-106870000D01*
X147290000Y-106220000D02*
X147290000Y-106120000D01*
X147290000Y-106120000D02*
X147350000Y-106060000D01*
%TD*%
%TA.AperFunction,Conductor*%
%TO.N,GND*%
G36*
X152666606Y-96354817D02*
G01*
X152723501Y-96395186D01*
X152750199Y-96459637D01*
X152756491Y-96515479D01*
X152757283Y-96522506D01*
X152759618Y-96529179D01*
X152759619Y-96529183D01*
X152815119Y-96687794D01*
X152815121Y-96687798D01*
X152817457Y-96694474D01*
X152821219Y-96700462D01*
X152821220Y-96700463D01*
X152832242Y-96718004D01*
X152850761Y-96770929D01*
X152844485Y-96826649D01*
X152814656Y-96874128D01*
X152804983Y-96883802D01*
X152804979Y-96883806D01*
X152799978Y-96888808D01*
X152796215Y-96894795D01*
X152796213Y-96894799D01*
X152706810Y-97037082D01*
X152706806Y-97037089D01*
X152703046Y-97043074D01*
X152700711Y-97049745D01*
X152700708Y-97049753D01*
X152645208Y-97208364D01*
X152645206Y-97208369D01*
X152642872Y-97215042D01*
X152622473Y-97396089D01*
X152642872Y-97577136D01*
X152645207Y-97583809D01*
X152645208Y-97583813D01*
X152700708Y-97742424D01*
X152700710Y-97742428D01*
X152703046Y-97749104D01*
X152706808Y-97755092D01*
X152706810Y-97755095D01*
X152778498Y-97869186D01*
X152799978Y-97903370D01*
X152928808Y-98032200D01*
X152934802Y-98035966D01*
X152934803Y-98035967D01*
X153071846Y-98122077D01*
X153083074Y-98129132D01*
X153255042Y-98189306D01*
X153436089Y-98209705D01*
X153617136Y-98189306D01*
X153789104Y-98129132D01*
X153943370Y-98032200D01*
X154072200Y-97903370D01*
X154169132Y-97749104D01*
X154229306Y-97577136D01*
X154238809Y-97492790D01*
X154250496Y-97452227D01*
X154274924Y-97417801D01*
X154287328Y-97405397D01*
X154328205Y-97378089D01*
X154376418Y-97368500D01*
X154826333Y-97368500D01*
X154892871Y-97387501D01*
X154939340Y-97438775D01*
X154951726Y-97506855D01*
X154926291Y-97571209D01*
X154919968Y-97579448D01*
X154919901Y-97579536D01*
X154919860Y-97579590D01*
X154919858Y-97579593D01*
X154846811Y-97674789D01*
X154843655Y-97682406D01*
X154843652Y-97682413D01*
X154803355Y-97779700D01*
X154788655Y-97815188D01*
X154788653Y-97815195D01*
X154785497Y-97822815D01*
X154784419Y-97830996D01*
X154784419Y-97831000D01*
X154769834Y-97941780D01*
X154769835Y-97941780D01*
X154769835Y-97941785D01*
X154764585Y-97981665D01*
X154765663Y-97989851D01*
X154768535Y-98011671D01*
X154765009Y-98061859D01*
X154743479Y-98104020D01*
X154742224Y-98105276D01*
X154738463Y-98111261D01*
X154738457Y-98111269D01*
X154649056Y-98253550D01*
X154649052Y-98253557D01*
X154645292Y-98259542D01*
X154642957Y-98266213D01*
X154642954Y-98266221D01*
X154587454Y-98424832D01*
X154587452Y-98424837D01*
X154585118Y-98431510D01*
X154584326Y-98438536D01*
X154584326Y-98438538D01*
X154581079Y-98467357D01*
X154564719Y-98612557D01*
X154565511Y-98619586D01*
X154573233Y-98688123D01*
X154565741Y-98747162D01*
X154531989Y-98796177D01*
X154479505Y-98824234D01*
X154431257Y-98824915D01*
X154431047Y-98826783D01*
X154250000Y-98806384D01*
X154242971Y-98807176D01*
X154075981Y-98825991D01*
X154075979Y-98825991D01*
X154068953Y-98826783D01*
X154062280Y-98829117D01*
X154062275Y-98829119D01*
X153903664Y-98884619D01*
X153903656Y-98884622D01*
X153896985Y-98886957D01*
X153891000Y-98890717D01*
X153890993Y-98890721D01*
X153748714Y-98980121D01*
X153748707Y-98980126D01*
X153742719Y-98983889D01*
X153737714Y-98988893D01*
X153737710Y-98988897D01*
X153618897Y-99107710D01*
X153618893Y-99107714D01*
X153613889Y-99112719D01*
X153610126Y-99118707D01*
X153610121Y-99118714D01*
X153520722Y-99260991D01*
X153520717Y-99260999D01*
X153516957Y-99266985D01*
X153514621Y-99273660D01*
X153511709Y-99279708D01*
X153480375Y-99320542D01*
X153435327Y-99345438D01*
X153384081Y-99350244D01*
X153237030Y-99333676D01*
X153237029Y-99333676D01*
X153230000Y-99332884D01*
X153222971Y-99333676D01*
X153055981Y-99352491D01*
X153055979Y-99352491D01*
X153048953Y-99353283D01*
X153042280Y-99355617D01*
X153042275Y-99355619D01*
X152883664Y-99411119D01*
X152883656Y-99411122D01*
X152876985Y-99413457D01*
X152871000Y-99417217D01*
X152870993Y-99417221D01*
X152728714Y-99506621D01*
X152728707Y-99506626D01*
X152722719Y-99510389D01*
X152717714Y-99515393D01*
X152717710Y-99515397D01*
X152598897Y-99634210D01*
X152598893Y-99634214D01*
X152593889Y-99639219D01*
X152590126Y-99645206D01*
X152590124Y-99645210D01*
X152508614Y-99774933D01*
X152468964Y-99814583D01*
X152416037Y-99833103D01*
X152385989Y-99836489D01*
X152385978Y-99836491D01*
X152378953Y-99837283D01*
X152372276Y-99839619D01*
X152372273Y-99839620D01*
X152213664Y-99895119D01*
X152213656Y-99895122D01*
X152206985Y-99897457D01*
X152201000Y-99901217D01*
X152200993Y-99901221D01*
X152058714Y-99990621D01*
X152058707Y-99990626D01*
X152052719Y-99994389D01*
X152047714Y-99999393D01*
X152047710Y-99999397D01*
X151928897Y-100118210D01*
X151928893Y-100118214D01*
X151923889Y-100123219D01*
X151920126Y-100129207D01*
X151920121Y-100129214D01*
X151830721Y-100271493D01*
X151830717Y-100271500D01*
X151826957Y-100277485D01*
X151824622Y-100284156D01*
X151824619Y-100284164D01*
X151769119Y-100442775D01*
X151769117Y-100442780D01*
X151766783Y-100449453D01*
X151765991Y-100456479D01*
X151765991Y-100456481D01*
X151760919Y-100501500D01*
X151746384Y-100630500D01*
X151766783Y-100811547D01*
X151769118Y-100818220D01*
X151769119Y-100818224D01*
X151824619Y-100976835D01*
X151824621Y-100976839D01*
X151826957Y-100983515D01*
X151830719Y-100989503D01*
X151830721Y-100989506D01*
X151882586Y-101072049D01*
X151923889Y-101137781D01*
X151928896Y-101142788D01*
X151933304Y-101148315D01*
X151931906Y-101149429D01*
X151951909Y-101179364D01*
X151961500Y-101227582D01*
X151961500Y-104611864D01*
X151960422Y-104628307D01*
X151956250Y-104660000D01*
X151961500Y-104699880D01*
X151961500Y-104699885D01*
X151970442Y-104767804D01*
X151977162Y-104818851D01*
X151980319Y-104826474D01*
X151980321Y-104826479D01*
X152035315Y-104959246D01*
X152035316Y-104959249D01*
X152038476Y-104966876D01*
X152043502Y-104973427D01*
X152043504Y-104973429D01*
X152111523Y-105062072D01*
X152109813Y-105063384D01*
X152109814Y-105063386D01*
X152111525Y-105062074D01*
X152136013Y-105093987D01*
X152142558Y-105099009D01*
X152142562Y-105099013D01*
X152161379Y-105113452D01*
X152173770Y-105124319D01*
X156905680Y-109856229D01*
X156916547Y-109868619D01*
X156936013Y-109893987D01*
X156967925Y-109918474D01*
X156967928Y-109918477D01*
X157063124Y-109991524D01*
X157211149Y-110052838D01*
X157230543Y-110055391D01*
X157330115Y-110068500D01*
X157330120Y-110068500D01*
X157370000Y-110073750D01*
X157401692Y-110069577D01*
X157418136Y-110068500D01*
X163611629Y-110068500D01*
X163671598Y-110083686D01*
X163717112Y-110125585D01*
X163747064Y-110171431D01*
X163829278Y-110297268D01*
X163832806Y-110301100D01*
X163978227Y-110459069D01*
X163978231Y-110459073D01*
X163981760Y-110462906D01*
X164159424Y-110601189D01*
X164164002Y-110603666D01*
X164164009Y-110603671D01*
X164192680Y-110619187D01*
X164240951Y-110665503D01*
X164258710Y-110730000D01*
X164240951Y-110794497D01*
X164192680Y-110840813D01*
X164164009Y-110856328D01*
X164163993Y-110856338D01*
X164159424Y-110858811D01*
X164155313Y-110862010D01*
X164155311Y-110862012D01*
X163985878Y-110993888D01*
X163985872Y-110993893D01*
X163981760Y-110997094D01*
X163978237Y-111000919D01*
X163978227Y-111000930D01*
X163832806Y-111158899D01*
X163832802Y-111158902D01*
X163829278Y-111162732D01*
X163826430Y-111167090D01*
X163826427Y-111167095D01*
X163717112Y-111334415D01*
X163671598Y-111376314D01*
X163611629Y-111391500D01*
X155144239Y-111391500D01*
X155096021Y-111381909D01*
X155055144Y-111354595D01*
X148297314Y-104596765D01*
X148286446Y-104584373D01*
X148272014Y-104565564D01*
X148272013Y-104565563D01*
X148266987Y-104559013D01*
X148260436Y-104553986D01*
X148260434Y-104553984D01*
X148235075Y-104534526D01*
X148235072Y-104534523D01*
X148146429Y-104466504D01*
X148146427Y-104466502D01*
X148139876Y-104461476D01*
X148132249Y-104458316D01*
X148132246Y-104458315D01*
X147999479Y-104403321D01*
X147999474Y-104403319D01*
X147991851Y-104400162D01*
X147983667Y-104399084D01*
X147983666Y-104399084D01*
X147972456Y-104397608D01*
X147872885Y-104384500D01*
X147872884Y-104384500D01*
X147872876Y-104384499D01*
X147841190Y-104380328D01*
X147841189Y-104380328D01*
X147833000Y-104379250D01*
X147801307Y-104383422D01*
X147784864Y-104384500D01*
X144840239Y-104384500D01*
X144783036Y-104370767D01*
X144738303Y-104332561D01*
X144715790Y-104278211D01*
X144720406Y-104219564D01*
X144751144Y-104169405D01*
X146696343Y-102224206D01*
X152535898Y-96384649D01*
X152596953Y-96350905D01*
X152666606Y-96354817D01*
G37*
%TD.AperFunction*%
%TA.AperFunction,Conductor*%
G36*
X162698979Y-97968091D02*
G01*
X162739856Y-97995405D01*
X163562276Y-98817825D01*
X163594660Y-98873471D01*
X163595326Y-98937850D01*
X163561715Y-99070578D01*
X163561713Y-99070587D01*
X163560436Y-99075632D01*
X163560006Y-99080814D01*
X163560005Y-99080824D01*
X163546417Y-99244811D01*
X163541844Y-99300000D01*
X163542274Y-99305189D01*
X163559692Y-99515397D01*
X163560436Y-99524368D01*
X163615704Y-99742616D01*
X163617797Y-99747389D01*
X163617799Y-99747393D01*
X163661750Y-99847591D01*
X163706140Y-99948791D01*
X163829278Y-100137268D01*
X163832806Y-100141100D01*
X163978227Y-100299069D01*
X163978231Y-100299073D01*
X163981760Y-100302906D01*
X164159424Y-100441189D01*
X164164002Y-100443666D01*
X164164009Y-100443671D01*
X164192680Y-100459187D01*
X164240951Y-100505503D01*
X164258710Y-100570000D01*
X164240951Y-100634497D01*
X164192680Y-100680813D01*
X164164009Y-100696328D01*
X164163993Y-100696338D01*
X164159424Y-100698811D01*
X164155313Y-100702010D01*
X164155311Y-100702012D01*
X163985878Y-100833888D01*
X163985872Y-100833893D01*
X163981760Y-100837094D01*
X163978237Y-100840919D01*
X163978227Y-100840930D01*
X163832806Y-100998899D01*
X163832802Y-100998902D01*
X163829278Y-101002732D01*
X163826430Y-101007090D01*
X163826427Y-101007095D01*
X163708992Y-101186843D01*
X163706140Y-101191209D01*
X163704048Y-101195978D01*
X163704046Y-101195982D01*
X163617799Y-101392606D01*
X163617796Y-101392614D01*
X163615704Y-101397384D01*
X163614423Y-101402440D01*
X163614422Y-101402445D01*
X163610452Y-101418124D01*
X163560436Y-101615632D01*
X163560006Y-101620820D01*
X163560005Y-101620827D01*
X163551373Y-101725000D01*
X163541844Y-101840000D01*
X163542274Y-101845189D01*
X163557942Y-102034278D01*
X163560436Y-102064368D01*
X163561715Y-102069418D01*
X163595326Y-102202147D01*
X163594660Y-102266526D01*
X163562277Y-102322172D01*
X162769856Y-103114595D01*
X162728978Y-103141909D01*
X162680760Y-103151500D01*
X159124500Y-103151500D01*
X159061500Y-103134619D01*
X159015381Y-103088500D01*
X158998500Y-103025500D01*
X158998500Y-101469731D01*
X158998500Y-101466362D01*
X158991989Y-101405799D01*
X158940889Y-101268796D01*
X158934813Y-101260680D01*
X158858659Y-101158950D01*
X158853261Y-101151739D01*
X158839195Y-101141209D01*
X158743417Y-101069510D01*
X158743414Y-101069508D01*
X158736204Y-101064111D01*
X158727765Y-101060963D01*
X158727757Y-101060959D01*
X158621193Y-101021212D01*
X158570859Y-100986648D01*
X158542685Y-100932478D01*
X158543288Y-100871422D01*
X158572523Y-100817821D01*
X158715722Y-100662268D01*
X158838860Y-100473791D01*
X158929296Y-100267616D01*
X158984564Y-100049368D01*
X159003156Y-99825000D01*
X158984564Y-99600632D01*
X158929296Y-99382384D01*
X158838860Y-99176209D01*
X158715722Y-98987732D01*
X158617405Y-98880932D01*
X158566772Y-98825930D01*
X158566767Y-98825925D01*
X158563240Y-98822094D01*
X158385576Y-98683811D01*
X158380997Y-98681333D01*
X158380994Y-98681331D01*
X158192159Y-98579139D01*
X158192156Y-98579137D01*
X158187574Y-98576658D01*
X158182650Y-98574967D01*
X158182642Y-98574964D01*
X157979565Y-98505248D01*
X157979559Y-98505246D01*
X157974635Y-98503556D01*
X157969498Y-98502698D01*
X157969495Y-98502698D01*
X157757706Y-98467357D01*
X157757703Y-98467356D01*
X157752569Y-98466500D01*
X157527431Y-98466500D01*
X157522297Y-98467356D01*
X157522293Y-98467357D01*
X157310504Y-98502698D01*
X157310498Y-98502699D01*
X157305365Y-98503556D01*
X157300443Y-98505245D01*
X157300434Y-98505248D01*
X157097357Y-98574964D01*
X157097344Y-98574969D01*
X157092426Y-98576658D01*
X157087847Y-98579135D01*
X157087840Y-98579139D01*
X156899005Y-98681331D01*
X156898997Y-98681336D01*
X156894424Y-98683811D01*
X156890313Y-98687010D01*
X156890311Y-98687012D01*
X156720878Y-98818888D01*
X156720872Y-98818893D01*
X156716760Y-98822094D01*
X156713237Y-98825919D01*
X156713227Y-98825930D01*
X156567806Y-98983899D01*
X156567802Y-98983902D01*
X156564278Y-98987732D01*
X156561430Y-98992090D01*
X156561427Y-98992095D01*
X156443992Y-99171843D01*
X156441140Y-99176209D01*
X156439048Y-99180978D01*
X156439046Y-99180982D01*
X156352799Y-99377606D01*
X156352796Y-99377614D01*
X156350704Y-99382384D01*
X156349423Y-99387440D01*
X156349422Y-99387445D01*
X156298705Y-99587724D01*
X156295436Y-99600632D01*
X156295006Y-99605820D01*
X156295005Y-99605827D01*
X156279057Y-99798294D01*
X156276844Y-99825000D01*
X156277274Y-99830189D01*
X156288216Y-99962244D01*
X156295436Y-100049368D01*
X156305034Y-100087268D01*
X156347790Y-100256111D01*
X156350704Y-100267616D01*
X156352797Y-100272389D01*
X156352799Y-100272393D01*
X156367589Y-100306111D01*
X156441140Y-100473791D01*
X156564278Y-100662268D01*
X156624099Y-100727250D01*
X156707474Y-100817819D01*
X156736711Y-100871423D01*
X156737314Y-100932478D01*
X156709140Y-100986648D01*
X156658807Y-101021212D01*
X156552240Y-101060960D01*
X156552231Y-101060964D01*
X156543796Y-101064111D01*
X156536588Y-101069506D01*
X156536582Y-101069510D01*
X156433950Y-101146340D01*
X156433946Y-101146343D01*
X156426739Y-101151739D01*
X156421343Y-101158946D01*
X156421340Y-101158950D01*
X156344510Y-101261582D01*
X156344506Y-101261588D01*
X156339111Y-101268796D01*
X156335965Y-101277230D01*
X156335962Y-101277236D01*
X156290763Y-101398419D01*
X156290761Y-101398423D01*
X156288011Y-101405799D01*
X156287169Y-101413625D01*
X156287168Y-101413632D01*
X156281860Y-101463011D01*
X156281500Y-101466362D01*
X156281500Y-101469731D01*
X156281500Y-102466761D01*
X156267767Y-102523964D01*
X156229561Y-102568697D01*
X156175211Y-102591210D01*
X156116564Y-102586594D01*
X156066405Y-102555856D01*
X155885405Y-102374856D01*
X155858091Y-102333979D01*
X155848500Y-102285761D01*
X155848500Y-99984722D01*
X155855571Y-99943106D01*
X155874458Y-99908933D01*
X155876111Y-99907281D01*
X155973043Y-99753015D01*
X156033217Y-99581047D01*
X156053616Y-99400000D01*
X156033217Y-99218953D01*
X156024267Y-99193375D01*
X156017988Y-99137652D01*
X156036507Y-99084727D01*
X156111378Y-98965572D01*
X156171552Y-98793604D01*
X156191951Y-98612557D01*
X156171552Y-98431510D01*
X156111378Y-98259542D01*
X156106811Y-98252273D01*
X156106313Y-98250852D01*
X156104543Y-98247175D01*
X156104957Y-98246975D01*
X156088291Y-98199345D01*
X156094570Y-98143622D01*
X156124401Y-98096146D01*
X156225144Y-97995404D01*
X156266022Y-97968091D01*
X156314240Y-97958500D01*
X162650761Y-97958500D01*
X162698979Y-97968091D01*
G37*
%TD.AperFunction*%
%TA.AperFunction,Conductor*%
G36*
X160875614Y-82822233D02*
G01*
X160920347Y-82860439D01*
X160942860Y-82914789D01*
X160938244Y-82973436D01*
X160908207Y-83022450D01*
X160903565Y-83026013D01*
X160898544Y-83032555D01*
X160898541Y-83032559D01*
X160884097Y-83051382D01*
X160873233Y-83063768D01*
X147764986Y-96172015D01*
X147711802Y-96203694D01*
X147649950Y-96206221D01*
X147594359Y-96178986D01*
X147558448Y-96128563D01*
X147551339Y-96070813D01*
X147551500Y-96070188D01*
X147551500Y-96048742D01*
X147553051Y-96029032D01*
X147553104Y-96028693D01*
X147556406Y-96007848D01*
X147552058Y-95961859D01*
X147551500Y-95950004D01*
X147551500Y-83031950D01*
X147561091Y-82983732D01*
X147588405Y-82942855D01*
X147685855Y-82845405D01*
X147726732Y-82818091D01*
X147774950Y-82808500D01*
X160818411Y-82808500D01*
X160875614Y-82822233D01*
G37*
%TD.AperFunction*%
%TA.AperFunction,Conductor*%
G36*
X167606500Y-76517381D02*
G01*
X167652619Y-76563500D01*
X167669500Y-76626500D01*
X167669500Y-119803500D01*
X167652619Y-119866500D01*
X167606500Y-119912619D01*
X167543500Y-119929500D01*
X129876500Y-119929500D01*
X129813500Y-119912619D01*
X129767381Y-119866500D01*
X129750500Y-119803500D01*
X129750500Y-118283587D01*
X143532000Y-118283587D01*
X143532285Y-118289579D01*
X143546163Y-118434915D01*
X143548424Y-118446649D01*
X143603311Y-118633575D01*
X143607756Y-118644680D01*
X143697025Y-118817838D01*
X143703490Y-118827897D01*
X143823919Y-118981035D01*
X143832169Y-118989687D01*
X143979401Y-119117264D01*
X143989144Y-119124202D01*
X144157858Y-119221609D01*
X144168732Y-119226575D01*
X144352846Y-119290298D01*
X144352891Y-119290308D01*
X144358644Y-119289898D01*
X144361000Y-119279069D01*
X144361000Y-119273490D01*
X144869000Y-119273490D01*
X144871545Y-119284555D01*
X144882903Y-119284420D01*
X144964993Y-119264505D01*
X144976282Y-119260599D01*
X145153503Y-119179665D01*
X145163851Y-119173690D01*
X145322551Y-119060680D01*
X145331580Y-119052857D01*
X145466031Y-118911849D01*
X145473409Y-118902467D01*
X145578742Y-118738565D01*
X145584218Y-118727942D01*
X145656626Y-118547076D01*
X145659992Y-118535612D01*
X145696865Y-118344302D01*
X145698000Y-118332417D01*
X145698000Y-118283587D01*
X151282000Y-118283587D01*
X151282285Y-118289579D01*
X151296163Y-118434915D01*
X151298424Y-118446649D01*
X151353311Y-118633575D01*
X151357756Y-118644680D01*
X151447025Y-118817838D01*
X151453490Y-118827897D01*
X151573919Y-118981035D01*
X151582169Y-118989687D01*
X151729401Y-119117264D01*
X151739144Y-119124202D01*
X151907858Y-119221609D01*
X151918732Y-119226575D01*
X152102846Y-119290298D01*
X152102891Y-119290308D01*
X152108644Y-119289898D01*
X152111000Y-119279069D01*
X152111000Y-119273490D01*
X152619000Y-119273490D01*
X152621545Y-119284555D01*
X152632903Y-119284420D01*
X152714993Y-119264505D01*
X152726282Y-119260599D01*
X152903503Y-119179665D01*
X152913851Y-119173690D01*
X153072551Y-119060680D01*
X153081580Y-119052857D01*
X153216031Y-118911849D01*
X153223409Y-118902467D01*
X153328742Y-118738565D01*
X153334218Y-118727942D01*
X153406626Y-118547076D01*
X153409992Y-118535612D01*
X153446865Y-118344302D01*
X153448000Y-118332417D01*
X153448000Y-118180590D01*
X153444493Y-118167506D01*
X153431410Y-118164000D01*
X152635590Y-118164000D01*
X152622506Y-118167506D01*
X152619000Y-118180590D01*
X152619000Y-119273490D01*
X152111000Y-119273490D01*
X152111000Y-118180590D01*
X152107493Y-118167506D01*
X152094410Y-118164000D01*
X151298590Y-118164000D01*
X151285506Y-118167506D01*
X151282000Y-118180590D01*
X151282000Y-118283587D01*
X145698000Y-118283587D01*
X145698000Y-118180590D01*
X145694493Y-118167506D01*
X145681410Y-118164000D01*
X144885590Y-118164000D01*
X144872506Y-118167506D01*
X144869000Y-118180590D01*
X144869000Y-119273490D01*
X144361000Y-119273490D01*
X144361000Y-118180590D01*
X144357493Y-118167506D01*
X144344410Y-118164000D01*
X143548590Y-118164000D01*
X143535506Y-118167506D01*
X143532000Y-118180590D01*
X143532000Y-118283587D01*
X129750500Y-118283587D01*
X129750500Y-117639410D01*
X143532000Y-117639410D01*
X143535506Y-117652493D01*
X143548590Y-117656000D01*
X144344410Y-117656000D01*
X144357493Y-117652493D01*
X144361000Y-117639410D01*
X144869000Y-117639410D01*
X144872506Y-117652493D01*
X144885590Y-117656000D01*
X145681410Y-117656000D01*
X145694493Y-117652493D01*
X145698000Y-117639410D01*
X151282000Y-117639410D01*
X151285506Y-117652493D01*
X151298590Y-117656000D01*
X152094410Y-117656000D01*
X152107493Y-117652493D01*
X152111000Y-117639410D01*
X152619000Y-117639410D01*
X152622506Y-117652493D01*
X152635590Y-117656000D01*
X153431410Y-117656000D01*
X153444493Y-117652493D01*
X153448000Y-117639410D01*
X153448000Y-117536413D01*
X153447714Y-117530420D01*
X153433836Y-117385084D01*
X153431575Y-117373350D01*
X153376688Y-117186424D01*
X153372243Y-117175319D01*
X153282974Y-117002161D01*
X153276509Y-116992102D01*
X153156080Y-116838964D01*
X153147830Y-116830312D01*
X153000598Y-116702735D01*
X152990855Y-116695797D01*
X152822141Y-116598390D01*
X152811267Y-116593424D01*
X152627153Y-116529701D01*
X152627108Y-116529691D01*
X152621355Y-116530101D01*
X152619000Y-116540931D01*
X152619000Y-117639410D01*
X152111000Y-117639410D01*
X152111000Y-116546510D01*
X152108454Y-116535444D01*
X152097096Y-116535579D01*
X152015006Y-116555494D01*
X152003717Y-116559400D01*
X151826496Y-116640334D01*
X151816148Y-116646309D01*
X151657448Y-116759319D01*
X151648419Y-116767142D01*
X151513968Y-116908150D01*
X151506590Y-116917532D01*
X151401257Y-117081434D01*
X151395781Y-117092057D01*
X151323373Y-117272923D01*
X151320007Y-117284387D01*
X151283134Y-117475697D01*
X151282000Y-117487583D01*
X151282000Y-117639410D01*
X145698000Y-117639410D01*
X145698000Y-117536413D01*
X145697714Y-117530420D01*
X145683836Y-117385084D01*
X145681575Y-117373350D01*
X145626688Y-117186424D01*
X145622243Y-117175319D01*
X145532974Y-117002161D01*
X145526509Y-116992102D01*
X145406080Y-116838964D01*
X145397830Y-116830312D01*
X145250598Y-116702735D01*
X145240855Y-116695797D01*
X145072141Y-116598390D01*
X145061267Y-116593424D01*
X144877153Y-116529701D01*
X144877108Y-116529691D01*
X144871355Y-116530101D01*
X144869000Y-116540931D01*
X144869000Y-117639410D01*
X144361000Y-117639410D01*
X144361000Y-116546510D01*
X144358454Y-116535444D01*
X144347096Y-116535579D01*
X144265006Y-116555494D01*
X144253717Y-116559400D01*
X144076496Y-116640334D01*
X144066148Y-116646309D01*
X143907448Y-116759319D01*
X143898419Y-116767142D01*
X143763968Y-116908150D01*
X143756590Y-116917532D01*
X143651257Y-117081434D01*
X143645781Y-117092057D01*
X143573373Y-117272923D01*
X143570007Y-117284387D01*
X143533134Y-117475697D01*
X143532000Y-117487583D01*
X143532000Y-117639410D01*
X129750500Y-117639410D01*
X129750500Y-114440000D01*
X141466384Y-114440000D01*
X141486783Y-114621047D01*
X141489118Y-114627720D01*
X141489119Y-114627724D01*
X141544619Y-114786335D01*
X141544621Y-114786339D01*
X141546957Y-114793015D01*
X141550719Y-114799003D01*
X141550721Y-114799006D01*
X141629599Y-114924540D01*
X141643889Y-114947281D01*
X141772719Y-115076111D01*
X141778713Y-115079877D01*
X141778714Y-115079878D01*
X141837687Y-115116933D01*
X141926985Y-115173043D01*
X142098953Y-115233217D01*
X142280000Y-115253616D01*
X142461047Y-115233217D01*
X142633015Y-115173043D01*
X142787281Y-115076111D01*
X142916111Y-114947281D01*
X143013043Y-114793015D01*
X143073217Y-114621047D01*
X143093616Y-114440000D01*
X143093341Y-114437556D01*
X143532000Y-114437556D01*
X143532252Y-114443183D01*
X143546403Y-114600412D01*
X143548417Y-114611511D01*
X143604449Y-114814536D01*
X143608413Y-114825099D01*
X143699796Y-115014858D01*
X143705582Y-115024542D01*
X143829384Y-115194941D01*
X143836798Y-115203427D01*
X143989041Y-115348985D01*
X143997851Y-115356011D01*
X144173631Y-115472042D01*
X144183567Y-115477389D01*
X144377239Y-115560169D01*
X144387955Y-115563651D01*
X144497159Y-115588576D01*
X144508480Y-115588576D01*
X144511000Y-115577537D01*
X144511000Y-115576826D01*
X145019000Y-115576826D01*
X145022946Y-115590335D01*
X145036377Y-115592360D01*
X145045859Y-115590196D01*
X145066981Y-115583333D01*
X145119090Y-115577855D01*
X145168921Y-115594046D01*
X145207858Y-115629107D01*
X145223145Y-115650149D01*
X145230325Y-115661205D01*
X145247658Y-115691226D01*
X145247660Y-115691230D01*
X145250960Y-115696944D01*
X145266975Y-115714731D01*
X145278575Y-115727614D01*
X145286873Y-115737862D01*
X145307249Y-115765906D01*
X145311134Y-115771253D01*
X145316039Y-115775669D01*
X145316042Y-115775672D01*
X145341804Y-115798868D01*
X145351131Y-115808195D01*
X145378747Y-115838866D01*
X145384088Y-115842747D01*
X145384091Y-115842749D01*
X145412135Y-115863124D01*
X145422384Y-115871423D01*
X145425191Y-115873950D01*
X145453056Y-115899040D01*
X145458771Y-115902339D01*
X145458773Y-115902341D01*
X145488794Y-115919674D01*
X145499855Y-115926857D01*
X145533248Y-115951118D01*
X145568672Y-115966889D01*
X145570956Y-115967906D01*
X145582710Y-115973896D01*
X145612715Y-115991220D01*
X145612720Y-115991222D01*
X145618444Y-115994527D01*
X145624730Y-115996569D01*
X145624736Y-115996572D01*
X145657698Y-116007282D01*
X145670013Y-116012009D01*
X145707712Y-116028794D01*
X145714174Y-116030167D01*
X145714176Y-116030168D01*
X145724509Y-116032364D01*
X145748076Y-116037373D01*
X145760814Y-116040785D01*
X145778095Y-116046401D01*
X145793790Y-116051501D01*
X145793792Y-116051501D01*
X145800072Y-116053542D01*
X145841128Y-116057857D01*
X145854136Y-116059917D01*
X145894513Y-116068500D01*
X145942390Y-116068500D01*
X146078878Y-116068500D01*
X146085487Y-116068500D01*
X146125860Y-116059918D01*
X146138873Y-116057856D01*
X146179928Y-116053542D01*
X146219178Y-116040787D01*
X146231919Y-116037374D01*
X146232238Y-116037306D01*
X146272288Y-116028794D01*
X146309994Y-116012005D01*
X146322292Y-116007283D01*
X146361556Y-115994527D01*
X146397293Y-115973892D01*
X146409036Y-115967908D01*
X146446752Y-115951118D01*
X146452098Y-115947234D01*
X146480149Y-115926854D01*
X146491202Y-115919675D01*
X146526944Y-115899040D01*
X146557618Y-115871419D01*
X146567857Y-115863128D01*
X146601253Y-115838866D01*
X146628877Y-115808184D01*
X146638184Y-115798877D01*
X146668866Y-115771253D01*
X146693128Y-115737857D01*
X146701419Y-115727618D01*
X146729040Y-115696944D01*
X146749675Y-115661202D01*
X146756854Y-115650149D01*
X146777234Y-115622098D01*
X146777235Y-115622096D01*
X146781118Y-115616752D01*
X146797908Y-115579036D01*
X146803893Y-115567293D01*
X146808006Y-115560169D01*
X146824527Y-115531556D01*
X146837283Y-115492292D01*
X146842008Y-115479987D01*
X146843165Y-115477389D01*
X146858794Y-115442288D01*
X146867373Y-115401919D01*
X146870789Y-115389174D01*
X146883542Y-115349928D01*
X146887856Y-115308873D01*
X146889919Y-115295856D01*
X146898500Y-115255487D01*
X146898500Y-115214216D01*
X146899190Y-115201045D01*
X146902814Y-115166565D01*
X146903504Y-115160000D01*
X150076496Y-115160000D01*
X150077186Y-115166565D01*
X150080810Y-115201045D01*
X150081500Y-115214216D01*
X150081500Y-115255487D01*
X150082871Y-115261941D01*
X150082873Y-115261952D01*
X150090079Y-115295856D01*
X150092141Y-115308874D01*
X150095766Y-115343355D01*
X150095767Y-115343359D01*
X150096458Y-115349928D01*
X150098497Y-115356204D01*
X150098499Y-115356212D01*
X150109212Y-115389183D01*
X150112625Y-115401919D01*
X150121206Y-115442288D01*
X150123890Y-115448317D01*
X150123891Y-115448319D01*
X150137994Y-115479995D01*
X150142721Y-115492309D01*
X150153377Y-115525108D01*
X150155473Y-115531556D01*
X150158770Y-115537267D01*
X150158773Y-115537273D01*
X150176107Y-115567296D01*
X150182094Y-115579045D01*
X150198882Y-115616752D01*
X150202761Y-115622092D01*
X150202764Y-115622096D01*
X150223144Y-115650148D01*
X150230325Y-115661205D01*
X150247658Y-115691226D01*
X150247660Y-115691230D01*
X150250960Y-115696944D01*
X150266975Y-115714731D01*
X150278575Y-115727614D01*
X150286873Y-115737862D01*
X150307249Y-115765906D01*
X150311134Y-115771253D01*
X150316039Y-115775669D01*
X150316042Y-115775672D01*
X150341804Y-115798868D01*
X150351131Y-115808195D01*
X150378747Y-115838866D01*
X150384088Y-115842747D01*
X150384091Y-115842749D01*
X150412135Y-115863124D01*
X150422384Y-115871423D01*
X150425191Y-115873950D01*
X150453056Y-115899040D01*
X150458771Y-115902339D01*
X150458773Y-115902341D01*
X150488794Y-115919674D01*
X150499855Y-115926857D01*
X150533248Y-115951118D01*
X150568672Y-115966889D01*
X150570956Y-115967906D01*
X150582710Y-115973896D01*
X150612715Y-115991220D01*
X150612720Y-115991222D01*
X150618444Y-115994527D01*
X150624730Y-115996569D01*
X150624736Y-115996572D01*
X150657698Y-116007282D01*
X150670013Y-116012009D01*
X150707712Y-116028794D01*
X150714174Y-116030167D01*
X150714176Y-116030168D01*
X150724509Y-116032364D01*
X150748076Y-116037373D01*
X150760814Y-116040785D01*
X150778095Y-116046401D01*
X150793790Y-116051501D01*
X150793792Y-116051501D01*
X150800072Y-116053542D01*
X150841128Y-116057857D01*
X150854136Y-116059917D01*
X150894513Y-116068500D01*
X150942390Y-116068500D01*
X151078878Y-116068500D01*
X151085487Y-116068500D01*
X151125860Y-116059918D01*
X151138873Y-116057856D01*
X151179928Y-116053542D01*
X151219178Y-116040787D01*
X151231919Y-116037374D01*
X151232238Y-116037306D01*
X151272288Y-116028794D01*
X151309994Y-116012005D01*
X151322292Y-116007283D01*
X151361556Y-115994527D01*
X151397293Y-115973892D01*
X151409036Y-115967908D01*
X151446752Y-115951118D01*
X151452098Y-115947234D01*
X151480149Y-115926854D01*
X151491202Y-115919675D01*
X151526944Y-115899040D01*
X151557618Y-115871419D01*
X151567857Y-115863128D01*
X151601253Y-115838866D01*
X151628877Y-115808184D01*
X151638184Y-115798877D01*
X151668866Y-115771253D01*
X151693128Y-115737857D01*
X151701419Y-115727618D01*
X151729040Y-115696944D01*
X151749675Y-115661202D01*
X151756853Y-115650150D01*
X151773408Y-115627364D01*
X151809108Y-115594239D01*
X151854703Y-115577127D01*
X151903381Y-115578584D01*
X151947159Y-115588576D01*
X151958480Y-115588576D01*
X151961000Y-115577537D01*
X151961000Y-115576826D01*
X152469000Y-115576826D01*
X152472946Y-115590335D01*
X152486376Y-115592360D01*
X152495864Y-115590194D01*
X152696180Y-115525108D01*
X152706537Y-115520682D01*
X152892023Y-115420866D01*
X152901421Y-115414663D01*
X153066103Y-115283333D01*
X153074247Y-115275546D01*
X153212824Y-115116933D01*
X153219453Y-115107809D01*
X153327485Y-114926993D01*
X153332371Y-114916848D01*
X153406383Y-114719644D01*
X153409381Y-114708781D01*
X153446988Y-114501544D01*
X153448000Y-114490310D01*
X153448000Y-114380590D01*
X153444493Y-114367506D01*
X153431410Y-114364000D01*
X152485590Y-114364000D01*
X152472506Y-114367506D01*
X152469000Y-114380590D01*
X152469000Y-115576826D01*
X151961000Y-115576826D01*
X151961000Y-114380590D01*
X151957493Y-114367506D01*
X151944410Y-114364000D01*
X151462568Y-114364000D01*
X151411301Y-114353098D01*
X151409029Y-114352086D01*
X151397296Y-114346107D01*
X151367273Y-114328773D01*
X151367267Y-114328770D01*
X151361556Y-114325473D01*
X151355282Y-114323434D01*
X151355279Y-114323433D01*
X151331269Y-114315632D01*
X151322305Y-114312719D01*
X151309995Y-114307994D01*
X151278319Y-114293891D01*
X151278317Y-114293890D01*
X151272288Y-114291206D01*
X151243005Y-114284981D01*
X151231919Y-114282625D01*
X151219183Y-114279212D01*
X151186212Y-114268499D01*
X151186204Y-114268497D01*
X151179928Y-114266458D01*
X151173364Y-114265768D01*
X151173355Y-114265766D01*
X151138874Y-114262141D01*
X151125856Y-114260079D01*
X151091952Y-114252873D01*
X151091941Y-114252871D01*
X151085487Y-114251500D01*
X150894513Y-114251500D01*
X150888059Y-114252871D01*
X150888056Y-114252872D01*
X150854143Y-114260080D01*
X150841125Y-114262141D01*
X150806646Y-114265766D01*
X150806637Y-114265767D01*
X150800072Y-114266458D01*
X150793798Y-114268496D01*
X150793786Y-114268499D01*
X150760817Y-114279212D01*
X150748080Y-114282625D01*
X150714168Y-114289833D01*
X150714161Y-114289834D01*
X150707712Y-114291206D01*
X150701690Y-114293887D01*
X150701678Y-114293891D01*
X150670004Y-114307993D01*
X150657699Y-114312717D01*
X150624726Y-114323431D01*
X150624719Y-114323433D01*
X150618444Y-114325473D01*
X150612724Y-114328775D01*
X150612718Y-114328778D01*
X150582705Y-114346105D01*
X150570961Y-114352089D01*
X150539285Y-114366193D01*
X150539276Y-114366197D01*
X150533248Y-114368882D01*
X150527913Y-114372757D01*
X150527904Y-114372763D01*
X150499849Y-114393145D01*
X150488799Y-114400321D01*
X150458773Y-114417658D01*
X150458765Y-114417663D01*
X150453056Y-114420960D01*
X150448155Y-114425372D01*
X150448149Y-114425377D01*
X150422383Y-114448576D01*
X150412143Y-114456869D01*
X150384094Y-114477249D01*
X150378747Y-114481134D01*
X150374337Y-114486031D01*
X150374330Y-114486038D01*
X150351129Y-114511806D01*
X150341806Y-114521129D01*
X150316038Y-114544330D01*
X150316031Y-114544337D01*
X150311134Y-114548747D01*
X150307257Y-114554082D01*
X150307257Y-114554083D01*
X150286869Y-114582143D01*
X150278576Y-114592383D01*
X150255377Y-114618149D01*
X150255375Y-114618152D01*
X150250960Y-114623056D01*
X150247663Y-114628765D01*
X150247658Y-114628773D01*
X150230321Y-114658799D01*
X150223145Y-114669849D01*
X150202763Y-114697904D01*
X150202757Y-114697913D01*
X150198882Y-114703248D01*
X150196197Y-114709276D01*
X150196193Y-114709285D01*
X150182089Y-114740961D01*
X150176105Y-114752705D01*
X150158778Y-114782718D01*
X150158775Y-114782724D01*
X150155473Y-114788444D01*
X150153433Y-114794719D01*
X150153431Y-114794726D01*
X150142717Y-114827699D01*
X150137993Y-114840004D01*
X150123891Y-114871678D01*
X150123887Y-114871690D01*
X150121206Y-114877712D01*
X150119834Y-114884161D01*
X150119833Y-114884168D01*
X150112625Y-114918080D01*
X150109212Y-114930817D01*
X150098499Y-114963786D01*
X150098496Y-114963798D01*
X150096458Y-114970072D01*
X150095767Y-114976637D01*
X150095766Y-114976646D01*
X150092141Y-115011125D01*
X150090080Y-115024143D01*
X150081500Y-115064513D01*
X150081500Y-115071118D01*
X150081500Y-115105784D01*
X150080810Y-115118954D01*
X150076496Y-115160000D01*
X146903504Y-115160000D01*
X146899189Y-115118954D01*
X146898500Y-115105784D01*
X146898500Y-115071113D01*
X146898500Y-115064513D01*
X146889917Y-115024136D01*
X146887857Y-115011128D01*
X146883542Y-114970072D01*
X146881499Y-114963786D01*
X146870787Y-114930819D01*
X146870786Y-114930817D01*
X146870785Y-114930814D01*
X146867372Y-114918072D01*
X146860168Y-114884176D01*
X146860167Y-114884174D01*
X146858794Y-114877712D01*
X146842009Y-114840013D01*
X146837282Y-114827698D01*
X146826572Y-114794736D01*
X146826568Y-114794726D01*
X146824527Y-114788444D01*
X146821221Y-114782718D01*
X146821220Y-114782715D01*
X146803896Y-114752710D01*
X146797906Y-114740956D01*
X146796889Y-114738672D01*
X146781118Y-114703248D01*
X146756853Y-114669849D01*
X146749674Y-114658794D01*
X146732341Y-114628773D01*
X146732339Y-114628771D01*
X146729040Y-114623056D01*
X146701422Y-114592383D01*
X146693124Y-114582135D01*
X146672749Y-114554091D01*
X146672747Y-114554088D01*
X146668866Y-114548747D01*
X146638193Y-114521129D01*
X146628868Y-114511804D01*
X146605672Y-114486042D01*
X146601253Y-114481134D01*
X146595906Y-114477249D01*
X146567862Y-114456873D01*
X146557614Y-114448575D01*
X146544731Y-114436975D01*
X146526944Y-114420960D01*
X146521230Y-114417660D01*
X146521226Y-114417658D01*
X146491205Y-114400325D01*
X146480148Y-114393144D01*
X146452096Y-114372764D01*
X146452092Y-114372761D01*
X146446752Y-114368882D01*
X146409045Y-114352094D01*
X146397296Y-114346107D01*
X146367273Y-114328773D01*
X146367267Y-114328770D01*
X146361556Y-114325473D01*
X146355282Y-114323434D01*
X146355279Y-114323433D01*
X146331269Y-114315632D01*
X146322305Y-114312719D01*
X146309995Y-114307994D01*
X146278319Y-114293891D01*
X146278317Y-114293890D01*
X146272288Y-114291206D01*
X146243005Y-114284981D01*
X146231919Y-114282625D01*
X146219183Y-114279212D01*
X146186212Y-114268499D01*
X146186204Y-114268497D01*
X146179928Y-114266458D01*
X146173364Y-114265768D01*
X146173355Y-114265766D01*
X146138874Y-114262141D01*
X146125856Y-114260079D01*
X146091952Y-114252873D01*
X146091941Y-114252871D01*
X146085487Y-114251500D01*
X145894513Y-114251500D01*
X145888059Y-114252871D01*
X145888056Y-114252872D01*
X145854143Y-114260080D01*
X145841125Y-114262141D01*
X145806646Y-114265766D01*
X145806637Y-114265767D01*
X145800072Y-114266458D01*
X145793798Y-114268496D01*
X145793786Y-114268499D01*
X145760817Y-114279212D01*
X145748080Y-114282625D01*
X145714168Y-114289833D01*
X145714161Y-114289834D01*
X145707712Y-114291206D01*
X145701690Y-114293887D01*
X145701678Y-114293891D01*
X145670004Y-114307993D01*
X145657699Y-114312717D01*
X145624726Y-114323431D01*
X145624719Y-114323433D01*
X145618444Y-114325473D01*
X145612732Y-114328770D01*
X145612727Y-114328773D01*
X145582708Y-114346105D01*
X145570996Y-114352074D01*
X145568716Y-114353090D01*
X145517430Y-114364000D01*
X145035590Y-114364000D01*
X145022506Y-114367506D01*
X145019000Y-114380590D01*
X145019000Y-115576826D01*
X144511000Y-115576826D01*
X144511000Y-114380590D01*
X144507493Y-114367506D01*
X144494410Y-114364000D01*
X143548590Y-114364000D01*
X143535506Y-114367506D01*
X143532000Y-114380590D01*
X143532000Y-114437556D01*
X143093341Y-114437556D01*
X143073217Y-114258953D01*
X143013043Y-114086985D01*
X142950939Y-113988147D01*
X142932418Y-113935219D01*
X142938697Y-113879496D01*
X142968529Y-113832018D01*
X143347934Y-113452613D01*
X143402417Y-113420556D01*
X143465615Y-113418996D01*
X143521617Y-113448326D01*
X143556325Y-113501163D01*
X143561002Y-113564207D01*
X143533011Y-113718453D01*
X143532000Y-113729690D01*
X143532000Y-113839410D01*
X143535506Y-113852493D01*
X143548590Y-113856000D01*
X145981410Y-113856000D01*
X145994493Y-113852493D01*
X145998000Y-113839410D01*
X150982000Y-113839410D01*
X150985506Y-113852493D01*
X150998590Y-113856000D01*
X151944410Y-113856000D01*
X151957493Y-113852493D01*
X151961000Y-113839410D01*
X152469000Y-113839410D01*
X152472506Y-113852493D01*
X152485590Y-113856000D01*
X153431410Y-113856000D01*
X153444493Y-113852493D01*
X153448000Y-113839410D01*
X153448000Y-113782444D01*
X153447747Y-113776816D01*
X153433596Y-113619587D01*
X153431582Y-113608488D01*
X153375550Y-113405463D01*
X153371586Y-113394900D01*
X153280203Y-113205141D01*
X153274417Y-113195457D01*
X153150615Y-113025058D01*
X153143201Y-113016572D01*
X152990958Y-112871014D01*
X152982148Y-112863988D01*
X152806368Y-112747957D01*
X152796432Y-112742610D01*
X152602760Y-112659830D01*
X152592044Y-112656348D01*
X152482841Y-112631424D01*
X152471520Y-112631424D01*
X152469000Y-112642463D01*
X152469000Y-113839410D01*
X151961000Y-113839410D01*
X151961000Y-112643174D01*
X151957053Y-112629664D01*
X151943623Y-112627639D01*
X151934135Y-112629805D01*
X151733819Y-112694891D01*
X151723462Y-112699317D01*
X151537976Y-112799133D01*
X151528578Y-112805336D01*
X151363896Y-112936666D01*
X151355752Y-112944453D01*
X151217175Y-113103066D01*
X151210546Y-113112190D01*
X151102514Y-113293006D01*
X151097628Y-113303151D01*
X151023616Y-113500355D01*
X151020618Y-113511218D01*
X150983011Y-113718455D01*
X150982000Y-113729690D01*
X150982000Y-113839410D01*
X145998000Y-113839410D01*
X145998000Y-113782444D01*
X145997747Y-113776816D01*
X145983596Y-113619587D01*
X145981582Y-113608488D01*
X145925550Y-113405463D01*
X145921586Y-113394900D01*
X145830203Y-113205141D01*
X145824417Y-113195457D01*
X145700615Y-113025058D01*
X145693201Y-113016572D01*
X145540958Y-112871014D01*
X145532148Y-112863988D01*
X145356368Y-112747957D01*
X145346432Y-112742610D01*
X145177395Y-112670360D01*
X145124319Y-112627643D01*
X145101241Y-112563540D01*
X145114907Y-112496794D01*
X145161322Y-112446920D01*
X145226916Y-112428500D01*
X145931857Y-112428500D01*
X145948303Y-112429578D01*
X145980000Y-112433751D01*
X145988188Y-112432673D01*
X146011697Y-112429578D01*
X146028143Y-112428500D01*
X149011864Y-112428500D01*
X149028307Y-112429577D01*
X149060000Y-112433750D01*
X149099880Y-112428500D01*
X149099885Y-112428500D01*
X149199456Y-112415391D01*
X149218851Y-112412838D01*
X149366876Y-112351524D01*
X149462072Y-112278477D01*
X149462073Y-112278475D01*
X149476054Y-112267747D01*
X149538652Y-112242500D01*
X149621047Y-112233217D01*
X149793015Y-112173043D01*
X149947281Y-112076111D01*
X150076111Y-111947281D01*
X150173043Y-111793015D01*
X150233217Y-111621047D01*
X150253616Y-111440000D01*
X150233217Y-111258953D01*
X150173043Y-111086985D01*
X150142349Y-111038136D01*
X150079878Y-110938714D01*
X150079877Y-110938713D01*
X150076111Y-110932719D01*
X149947281Y-110803889D01*
X149941287Y-110800123D01*
X149941285Y-110800121D01*
X149799006Y-110710721D01*
X149799003Y-110710719D01*
X149793015Y-110706957D01*
X149786339Y-110704621D01*
X149786335Y-110704619D01*
X149627724Y-110649119D01*
X149627720Y-110649118D01*
X149621047Y-110646783D01*
X149440000Y-110626384D01*
X149432971Y-110627176D01*
X149265981Y-110645991D01*
X149265979Y-110645991D01*
X149258953Y-110646783D01*
X149252280Y-110649117D01*
X149252275Y-110649119D01*
X149093664Y-110704619D01*
X149093656Y-110704622D01*
X149086985Y-110706957D01*
X149081000Y-110710717D01*
X149080993Y-110710721D01*
X148938714Y-110800121D01*
X148938707Y-110800126D01*
X148932719Y-110803889D01*
X148927714Y-110808893D01*
X148927710Y-110808897D01*
X148808897Y-110927710D01*
X148808893Y-110927714D01*
X148803889Y-110932719D01*
X148800126Y-110938707D01*
X148800121Y-110938714D01*
X148710721Y-111080993D01*
X148710717Y-111081000D01*
X148706957Y-111086985D01*
X148704622Y-111093657D01*
X148704619Y-111093664D01*
X148692915Y-111127115D01*
X148666351Y-111171202D01*
X148624372Y-111200987D01*
X148573986Y-111211500D01*
X146714500Y-111211500D01*
X146651500Y-111194619D01*
X146605381Y-111148500D01*
X146588500Y-111085500D01*
X146588500Y-111038136D01*
X146589578Y-111021690D01*
X146592672Y-110998188D01*
X146593750Y-110990000D01*
X146588500Y-110950120D01*
X146588500Y-110950115D01*
X146577548Y-110866934D01*
X146577263Y-110836381D01*
X146582824Y-110787029D01*
X146583616Y-110780000D01*
X146563217Y-110598953D01*
X146503043Y-110426985D01*
X146406111Y-110272719D01*
X146277281Y-110143889D01*
X146271287Y-110140123D01*
X146271285Y-110140121D01*
X146129006Y-110050721D01*
X146129003Y-110050719D01*
X146123015Y-110046957D01*
X146116339Y-110044621D01*
X146116335Y-110044619D01*
X145957724Y-109989119D01*
X145957720Y-109989118D01*
X145951047Y-109986783D01*
X145770000Y-109966384D01*
X145762971Y-109967176D01*
X145595981Y-109985991D01*
X145595979Y-109985991D01*
X145588953Y-109986783D01*
X145582280Y-109989117D01*
X145582275Y-109989119D01*
X145423664Y-110044619D01*
X145423656Y-110044622D01*
X145416985Y-110046957D01*
X145411000Y-110050717D01*
X145410993Y-110050721D01*
X145268714Y-110140121D01*
X145268707Y-110140126D01*
X145262719Y-110143889D01*
X145257714Y-110148893D01*
X145257710Y-110148897D01*
X145138897Y-110267710D01*
X145138893Y-110267714D01*
X145133889Y-110272719D01*
X145130126Y-110278707D01*
X145130121Y-110278714D01*
X145040721Y-110420993D01*
X145040717Y-110421000D01*
X145036957Y-110426985D01*
X145034622Y-110433656D01*
X145034619Y-110433664D01*
X144979119Y-110592275D01*
X144979117Y-110592280D01*
X144976783Y-110598953D01*
X144956384Y-110780000D01*
X144976783Y-110961047D01*
X144979118Y-110967720D01*
X144979119Y-110967724D01*
X145005769Y-111043885D01*
X145011603Y-111103114D01*
X144989601Y-111158413D01*
X144944672Y-111197444D01*
X144886840Y-111211500D01*
X144168136Y-111211500D01*
X144151692Y-111210422D01*
X144120000Y-111206250D01*
X144111811Y-111207328D01*
X144111810Y-111207328D01*
X144080123Y-111211499D01*
X144080114Y-111211499D01*
X144080115Y-111211500D01*
X143980543Y-111224608D01*
X143969339Y-111226083D01*
X143969335Y-111226083D01*
X143961149Y-111227162D01*
X143953523Y-111230320D01*
X143953518Y-111230322D01*
X143820753Y-111285315D01*
X143820747Y-111285318D01*
X143813124Y-111288476D01*
X143806575Y-111293500D01*
X143806570Y-111293504D01*
X143732768Y-111350136D01*
X143692559Y-111380989D01*
X143692554Y-111380993D01*
X143686013Y-111386013D01*
X143680992Y-111392555D01*
X143680989Y-111392559D01*
X143666542Y-111411386D01*
X143655678Y-111423772D01*
X141883767Y-113195682D01*
X141871380Y-113206546D01*
X141852562Y-113220986D01*
X141852555Y-113220992D01*
X141846013Y-113226013D01*
X141840992Y-113232555D01*
X141840989Y-113232559D01*
X141821576Y-113257858D01*
X141821525Y-113257925D01*
X141821523Y-113257928D01*
X141748476Y-113353124D01*
X141746249Y-113358500D01*
X141745315Y-113360752D01*
X141745314Y-113360756D01*
X141690322Y-113493520D01*
X141687162Y-113501150D01*
X141686085Y-113509330D01*
X141686083Y-113509338D01*
X141678860Y-113564207D01*
X141671500Y-113620115D01*
X141671500Y-113620120D01*
X141666250Y-113660000D01*
X141667328Y-113668188D01*
X141670422Y-113691690D01*
X141671500Y-113708136D01*
X141671500Y-113855278D01*
X141664429Y-113896894D01*
X141645541Y-113931066D01*
X141643889Y-113932719D01*
X141640129Y-113938702D01*
X141640125Y-113938708D01*
X141550721Y-114080993D01*
X141550717Y-114081000D01*
X141546957Y-114086985D01*
X141544622Y-114093656D01*
X141544619Y-114093664D01*
X141489119Y-114252275D01*
X141489117Y-114252280D01*
X141486783Y-114258953D01*
X141485991Y-114265979D01*
X141485991Y-114265981D01*
X141479518Y-114323431D01*
X141466384Y-114440000D01*
X129750500Y-114440000D01*
X129750500Y-106870000D01*
X131131844Y-106870000D01*
X131132274Y-106875189D01*
X131148118Y-107066405D01*
X131150436Y-107094368D01*
X131151717Y-107099426D01*
X131195395Y-107271909D01*
X131205704Y-107312616D01*
X131296140Y-107518791D01*
X131419278Y-107707268D01*
X131422806Y-107711100D01*
X131568227Y-107869069D01*
X131568231Y-107869073D01*
X131571760Y-107872906D01*
X131749424Y-108011189D01*
X131947426Y-108118342D01*
X131952355Y-108120034D01*
X131952357Y-108120035D01*
X131968282Y-108125502D01*
X132160365Y-108191444D01*
X132382431Y-108228500D01*
X132602358Y-108228500D01*
X132607569Y-108228500D01*
X132829635Y-108191444D01*
X133042574Y-108118342D01*
X133145012Y-108062905D01*
X133196305Y-108048018D01*
X133249160Y-108055718D01*
X133294075Y-108084624D01*
X133915680Y-108706229D01*
X133926547Y-108718619D01*
X133946013Y-108743987D01*
X133977925Y-108768474D01*
X133977929Y-108768478D01*
X133977954Y-108768497D01*
X133977955Y-108768498D01*
X134038029Y-108814595D01*
X134073124Y-108841524D01*
X134221150Y-108902838D01*
X134380000Y-108923751D01*
X134411698Y-108919577D01*
X134428144Y-108918500D01*
X146731864Y-108918500D01*
X146748307Y-108919577D01*
X146780000Y-108923750D01*
X146819880Y-108918500D01*
X146819885Y-108918500D01*
X146919456Y-108905391D01*
X146938851Y-108902838D01*
X147086876Y-108841524D01*
X147182072Y-108768477D01*
X147182074Y-108768474D01*
X147213987Y-108743987D01*
X147233454Y-108718616D01*
X147244305Y-108706242D01*
X147686237Y-108264309D01*
X147698625Y-108253447D01*
X147723987Y-108233987D01*
X147759863Y-108187231D01*
X147821524Y-108106876D01*
X147882838Y-107958851D01*
X147891902Y-107890000D01*
X147898500Y-107839885D01*
X147898500Y-107839880D01*
X147903750Y-107800000D01*
X147899577Y-107768307D01*
X147898500Y-107751864D01*
X147898500Y-107247948D01*
X147912233Y-107190745D01*
X147950439Y-107146012D01*
X148004789Y-107123499D01*
X148063436Y-107128115D01*
X148113595Y-107158853D01*
X158430971Y-117476229D01*
X158441838Y-117488619D01*
X158461304Y-117513987D01*
X158493216Y-117538474D01*
X158493219Y-117538477D01*
X158562609Y-117591721D01*
X158588416Y-117611524D01*
X158596047Y-117614684D01*
X158596049Y-117614686D01*
X158643581Y-117634374D01*
X158736441Y-117672838D01*
X158855406Y-117688500D01*
X158855413Y-117688500D01*
X158895291Y-117693750D01*
X158926983Y-117689577D01*
X158943427Y-117688500D01*
X163420500Y-117688500D01*
X163483500Y-117705381D01*
X163529619Y-117751500D01*
X163546500Y-117814500D01*
X163546500Y-117978638D01*
X163546859Y-117981985D01*
X163546860Y-117981988D01*
X163552168Y-118031367D01*
X163552169Y-118031373D01*
X163553011Y-118039201D01*
X163555762Y-118046578D01*
X163555763Y-118046580D01*
X163600962Y-118167763D01*
X163600964Y-118167766D01*
X163604111Y-118176204D01*
X163609508Y-118183414D01*
X163609510Y-118183417D01*
X163684497Y-118283587D01*
X163691739Y-118293261D01*
X163698950Y-118298659D01*
X163759921Y-118344302D01*
X163808796Y-118380889D01*
X163945799Y-118431989D01*
X164006362Y-118438500D01*
X165800269Y-118438500D01*
X165803638Y-118438500D01*
X165864201Y-118431989D01*
X166001204Y-118380889D01*
X166118261Y-118293261D01*
X166205889Y-118176204D01*
X166256989Y-118039201D01*
X166263500Y-117978638D01*
X166263500Y-116181362D01*
X166256989Y-116120799D01*
X166210275Y-115995556D01*
X166209037Y-115992236D01*
X166209036Y-115992235D01*
X166205889Y-115983796D01*
X166181426Y-115951118D01*
X166140988Y-115897098D01*
X166118261Y-115866739D01*
X166111049Y-115861340D01*
X166008417Y-115784510D01*
X166008414Y-115784508D01*
X166001204Y-115779111D01*
X165992765Y-115775963D01*
X165992757Y-115775959D01*
X165886193Y-115736212D01*
X165835859Y-115701648D01*
X165807685Y-115647478D01*
X165808288Y-115586422D01*
X165837523Y-115532821D01*
X165980722Y-115377268D01*
X166103860Y-115188791D01*
X166194296Y-114982616D01*
X166249564Y-114764368D01*
X166268156Y-114540000D01*
X166249564Y-114315632D01*
X166194296Y-114097384D01*
X166103860Y-113891209D01*
X165980722Y-113702732D01*
X165904181Y-113619587D01*
X165831772Y-113540930D01*
X165831767Y-113540925D01*
X165828240Y-113537094D01*
X165650576Y-113398811D01*
X165646002Y-113396336D01*
X165645995Y-113396331D01*
X165617320Y-113380814D01*
X165569048Y-113334498D01*
X165551289Y-113270000D01*
X165569048Y-113205502D01*
X165617320Y-113159186D01*
X165645990Y-113143671D01*
X165650576Y-113141189D01*
X165828240Y-113002906D01*
X165980722Y-112837268D01*
X166103860Y-112648791D01*
X166194296Y-112442616D01*
X166249564Y-112224368D01*
X166268156Y-112000000D01*
X166249564Y-111775632D01*
X166194296Y-111557384D01*
X166103860Y-111351209D01*
X165980722Y-111162732D01*
X165871315Y-111043885D01*
X165831772Y-111000930D01*
X165831767Y-111000925D01*
X165828240Y-110997094D01*
X165650576Y-110858811D01*
X165646002Y-110856336D01*
X165645995Y-110856331D01*
X165617320Y-110840814D01*
X165569048Y-110794498D01*
X165551289Y-110730000D01*
X165569048Y-110665502D01*
X165617320Y-110619186D01*
X165645990Y-110603671D01*
X165650576Y-110601189D01*
X165828240Y-110462906D01*
X165980722Y-110297268D01*
X166103860Y-110108791D01*
X166194296Y-109902616D01*
X166249564Y-109684368D01*
X166268156Y-109460000D01*
X166249564Y-109235632D01*
X166194296Y-109017384D01*
X166103860Y-108811209D01*
X165980722Y-108622732D01*
X165919956Y-108556723D01*
X165831772Y-108460930D01*
X165831767Y-108460925D01*
X165828240Y-108457094D01*
X165650576Y-108318811D01*
X165646002Y-108316336D01*
X165645995Y-108316331D01*
X165617320Y-108300814D01*
X165569048Y-108254498D01*
X165551289Y-108190000D01*
X165569048Y-108125502D01*
X165617320Y-108079186D01*
X165645990Y-108063671D01*
X165650576Y-108061189D01*
X165828240Y-107922906D01*
X165980722Y-107757268D01*
X166103860Y-107568791D01*
X166194296Y-107362616D01*
X166249564Y-107144368D01*
X166268156Y-106920000D01*
X166249564Y-106695632D01*
X166194296Y-106477384D01*
X166103860Y-106271209D01*
X165980722Y-106082732D01*
X165919956Y-106016723D01*
X165831772Y-105920930D01*
X165831767Y-105920925D01*
X165828240Y-105917094D01*
X165650576Y-105778811D01*
X165646002Y-105776336D01*
X165645995Y-105776331D01*
X165617320Y-105760814D01*
X165569048Y-105714498D01*
X165551289Y-105650000D01*
X165569048Y-105585502D01*
X165617320Y-105539186D01*
X165645995Y-105523668D01*
X165645994Y-105523668D01*
X165650576Y-105521189D01*
X165828240Y-105382906D01*
X165980722Y-105217268D01*
X166103860Y-105028791D01*
X166194296Y-104822616D01*
X166249564Y-104604368D01*
X166268156Y-104380000D01*
X166249564Y-104155632D01*
X166194296Y-103937384D01*
X166103860Y-103731209D01*
X165980722Y-103542732D01*
X165919956Y-103476723D01*
X165831772Y-103380930D01*
X165831767Y-103380925D01*
X165828240Y-103377094D01*
X165650576Y-103238811D01*
X165646002Y-103236336D01*
X165645995Y-103236331D01*
X165617320Y-103220814D01*
X165569048Y-103174498D01*
X165551289Y-103110000D01*
X165569048Y-103045502D01*
X165617320Y-102999186D01*
X165630152Y-102992242D01*
X165650576Y-102981189D01*
X165828240Y-102842906D01*
X165980722Y-102677268D01*
X166103860Y-102488791D01*
X166194296Y-102282616D01*
X166249564Y-102064368D01*
X166268156Y-101840000D01*
X166249564Y-101615632D01*
X166194296Y-101397384D01*
X166103860Y-101191209D01*
X165980722Y-101002732D01*
X165861346Y-100873056D01*
X165831772Y-100840930D01*
X165831767Y-100840925D01*
X165828240Y-100837094D01*
X165650576Y-100698811D01*
X165646002Y-100696336D01*
X165645995Y-100696331D01*
X165617320Y-100680814D01*
X165569048Y-100634498D01*
X165551289Y-100570000D01*
X165569048Y-100505502D01*
X165617320Y-100459186D01*
X165622319Y-100456481D01*
X165650576Y-100441189D01*
X165828240Y-100302906D01*
X165980722Y-100137268D01*
X166103860Y-99948791D01*
X166194296Y-99742616D01*
X166249564Y-99524368D01*
X166268156Y-99300000D01*
X166249564Y-99075632D01*
X166194296Y-98857384D01*
X166103860Y-98651209D01*
X165980722Y-98462732D01*
X165877256Y-98350339D01*
X165831772Y-98300930D01*
X165831767Y-98300925D01*
X165828240Y-98297094D01*
X165650576Y-98158811D01*
X165646002Y-98156336D01*
X165645995Y-98156331D01*
X165617320Y-98140814D01*
X165569048Y-98094498D01*
X165551289Y-98030000D01*
X165569048Y-97965502D01*
X165617320Y-97919186D01*
X165624128Y-97915502D01*
X165650576Y-97901189D01*
X165828240Y-97762906D01*
X165980722Y-97597268D01*
X166103860Y-97408791D01*
X166194296Y-97202616D01*
X166249564Y-96984368D01*
X166268156Y-96760000D01*
X166249564Y-96535632D01*
X166194296Y-96317384D01*
X166103860Y-96111209D01*
X165980722Y-95922732D01*
X165919956Y-95856723D01*
X165831772Y-95760930D01*
X165831767Y-95760925D01*
X165828240Y-95757094D01*
X165650576Y-95618811D01*
X165646002Y-95616336D01*
X165645995Y-95616331D01*
X165617320Y-95600814D01*
X165569048Y-95554498D01*
X165551289Y-95490000D01*
X165569048Y-95425502D01*
X165617320Y-95379186D01*
X165645990Y-95363671D01*
X165650576Y-95361189D01*
X165828240Y-95222906D01*
X165980722Y-95057268D01*
X166103860Y-94868791D01*
X166194296Y-94662616D01*
X166249564Y-94444368D01*
X166268156Y-94220000D01*
X166249564Y-93995632D01*
X166194296Y-93777384D01*
X166103860Y-93571209D01*
X165980722Y-93382732D01*
X165919956Y-93316723D01*
X165831772Y-93220930D01*
X165831767Y-93220925D01*
X165828240Y-93217094D01*
X165650576Y-93078811D01*
X165646002Y-93076336D01*
X165645995Y-93076331D01*
X165617320Y-93060814D01*
X165569048Y-93014498D01*
X165551289Y-92950000D01*
X165569048Y-92885502D01*
X165617320Y-92839186D01*
X165645990Y-92823671D01*
X165650576Y-92821189D01*
X165828240Y-92682906D01*
X165980722Y-92517268D01*
X166103860Y-92328791D01*
X166194296Y-92122616D01*
X166249564Y-91904368D01*
X166268156Y-91680000D01*
X166249564Y-91455632D01*
X166194296Y-91237384D01*
X166103860Y-91031209D01*
X165980722Y-90842732D01*
X165919956Y-90776723D01*
X165831772Y-90680930D01*
X165831767Y-90680925D01*
X165828240Y-90677094D01*
X165650576Y-90538811D01*
X165645997Y-90536333D01*
X165645994Y-90536331D01*
X165617318Y-90520812D01*
X165569047Y-90474494D01*
X165551289Y-90409996D01*
X165569050Y-90345499D01*
X165617321Y-90299185D01*
X165650576Y-90281189D01*
X165828240Y-90142906D01*
X165980722Y-89977268D01*
X166103860Y-89788791D01*
X166194296Y-89582616D01*
X166249564Y-89364368D01*
X166268156Y-89140000D01*
X166249564Y-88915632D01*
X166194296Y-88697384D01*
X166103860Y-88491209D01*
X165980722Y-88302732D01*
X165919956Y-88236723D01*
X165831772Y-88140930D01*
X165831767Y-88140925D01*
X165828240Y-88137094D01*
X165650576Y-87998811D01*
X165646002Y-87996336D01*
X165645995Y-87996331D01*
X165617320Y-87980814D01*
X165569048Y-87934498D01*
X165551289Y-87870000D01*
X165569048Y-87805502D01*
X165617320Y-87759186D01*
X165624128Y-87755502D01*
X165650576Y-87741189D01*
X165828240Y-87602906D01*
X165980722Y-87437268D01*
X166103860Y-87248791D01*
X166194296Y-87042616D01*
X166249564Y-86824368D01*
X166268156Y-86600000D01*
X166249564Y-86375632D01*
X166194296Y-86157384D01*
X166103860Y-85951209D01*
X165980722Y-85762732D01*
X165919956Y-85696723D01*
X165831772Y-85600930D01*
X165831767Y-85600925D01*
X165828240Y-85597094D01*
X165650576Y-85458811D01*
X165646002Y-85456336D01*
X165645995Y-85456331D01*
X165617320Y-85440814D01*
X165569048Y-85394498D01*
X165551289Y-85330000D01*
X165569048Y-85265502D01*
X165617320Y-85219186D01*
X165624128Y-85215502D01*
X165650576Y-85201189D01*
X165828240Y-85062906D01*
X165980722Y-84897268D01*
X166103860Y-84708791D01*
X166194296Y-84502616D01*
X166249564Y-84284368D01*
X166268156Y-84060000D01*
X166249564Y-83835632D01*
X166194296Y-83617384D01*
X166103860Y-83411209D01*
X165980722Y-83222732D01*
X165919956Y-83156723D01*
X165831772Y-83060930D01*
X165831767Y-83060925D01*
X165828240Y-83057094D01*
X165650576Y-82918811D01*
X165646002Y-82916336D01*
X165645995Y-82916331D01*
X165617320Y-82900814D01*
X165569048Y-82854498D01*
X165551289Y-82790000D01*
X165569048Y-82725502D01*
X165617320Y-82679186D01*
X165645995Y-82663668D01*
X165645994Y-82663668D01*
X165650576Y-82661189D01*
X165828240Y-82522906D01*
X165980722Y-82357268D01*
X166103860Y-82168791D01*
X166194296Y-81962616D01*
X166249564Y-81744368D01*
X166268156Y-81520000D01*
X166249564Y-81295632D01*
X166194296Y-81077384D01*
X166103860Y-80871209D01*
X165980722Y-80682732D01*
X165919956Y-80616723D01*
X165831772Y-80520930D01*
X165831767Y-80520925D01*
X165828240Y-80517094D01*
X165650576Y-80378811D01*
X165646002Y-80376336D01*
X165645995Y-80376331D01*
X165617320Y-80360814D01*
X165569048Y-80314498D01*
X165551289Y-80250000D01*
X165569048Y-80185502D01*
X165617320Y-80139186D01*
X165645995Y-80123668D01*
X165645994Y-80123668D01*
X165650576Y-80121189D01*
X165828240Y-79982906D01*
X165980722Y-79817268D01*
X166103860Y-79628791D01*
X166194296Y-79422616D01*
X166249564Y-79204368D01*
X166268156Y-78980000D01*
X166249564Y-78755632D01*
X166194296Y-78537384D01*
X166103860Y-78331209D01*
X165980722Y-78142732D01*
X165875113Y-78028011D01*
X165831772Y-77980930D01*
X165831767Y-77980925D01*
X165828240Y-77977094D01*
X165650576Y-77838811D01*
X165645997Y-77836333D01*
X165645994Y-77836331D01*
X165457159Y-77734139D01*
X165457156Y-77734137D01*
X165452574Y-77731658D01*
X165447650Y-77729967D01*
X165447642Y-77729964D01*
X165244565Y-77660248D01*
X165244559Y-77660246D01*
X165239635Y-77658556D01*
X165234498Y-77657698D01*
X165234495Y-77657698D01*
X165022706Y-77622357D01*
X165022703Y-77622356D01*
X165017569Y-77621500D01*
X164792431Y-77621500D01*
X164787297Y-77622356D01*
X164787293Y-77622357D01*
X164575504Y-77657698D01*
X164575498Y-77657699D01*
X164570365Y-77658556D01*
X164565443Y-77660245D01*
X164565434Y-77660248D01*
X164362357Y-77729964D01*
X164362344Y-77729969D01*
X164357426Y-77731658D01*
X164352847Y-77734135D01*
X164352840Y-77734139D01*
X164164005Y-77836331D01*
X164163997Y-77836336D01*
X164159424Y-77838811D01*
X164155313Y-77842010D01*
X164155311Y-77842012D01*
X163985878Y-77973888D01*
X163985872Y-77973893D01*
X163981760Y-77977094D01*
X163978237Y-77980919D01*
X163978227Y-77980930D01*
X163832806Y-78138899D01*
X163832802Y-78138902D01*
X163829278Y-78142732D01*
X163826430Y-78147090D01*
X163826427Y-78147095D01*
X163725700Y-78301270D01*
X163706140Y-78331209D01*
X163704048Y-78335978D01*
X163704046Y-78335982D01*
X163617799Y-78532606D01*
X163617796Y-78532614D01*
X163615704Y-78537384D01*
X163614423Y-78542440D01*
X163614422Y-78542445D01*
X163594384Y-78621574D01*
X163560436Y-78755632D01*
X163560006Y-78760820D01*
X163560005Y-78760827D01*
X163553080Y-78844405D01*
X163541844Y-78980000D01*
X163560436Y-79204368D01*
X163561717Y-79209426D01*
X163595326Y-79342146D01*
X163594661Y-79406526D01*
X163562277Y-79462172D01*
X161569855Y-81454595D01*
X161528978Y-81481909D01*
X161480760Y-81491500D01*
X147532056Y-81491500D01*
X147520200Y-81490941D01*
X147520196Y-81490940D01*
X147512463Y-81489212D01*
X147504548Y-81489460D01*
X147504541Y-81489460D01*
X147441631Y-81491438D01*
X147437673Y-81491500D01*
X147408568Y-81491500D01*
X147404652Y-81491994D01*
X147404643Y-81491995D01*
X147404157Y-81492057D01*
X147392345Y-81492986D01*
X147354092Y-81494188D01*
X147354084Y-81494189D01*
X147346169Y-81494438D01*
X147338558Y-81496648D01*
X147338551Y-81496650D01*
X147325570Y-81500421D01*
X147306224Y-81504428D01*
X147292799Y-81506124D01*
X147292795Y-81506124D01*
X147284936Y-81507118D01*
X147277573Y-81510032D01*
X147277565Y-81510035D01*
X147241972Y-81524127D01*
X147230750Y-81527969D01*
X147194011Y-81538643D01*
X147194006Y-81538644D01*
X147186400Y-81540855D01*
X147179583Y-81544886D01*
X147179570Y-81544892D01*
X147167933Y-81551774D01*
X147150194Y-81560465D01*
X147137617Y-81565445D01*
X147137612Y-81565447D01*
X147130244Y-81568365D01*
X147123833Y-81573022D01*
X147123829Y-81573025D01*
X147092872Y-81595517D01*
X147082952Y-81602033D01*
X147050017Y-81621511D01*
X147043193Y-81625547D01*
X147037590Y-81631149D01*
X147037587Y-81631152D01*
X147028021Y-81640718D01*
X147012999Y-81653548D01*
X147002052Y-81661502D01*
X147002050Y-81661503D01*
X146995643Y-81666159D01*
X146990597Y-81672257D01*
X146990593Y-81672262D01*
X146966192Y-81701757D01*
X146958204Y-81710534D01*
X146485396Y-82183342D01*
X146476622Y-82191327D01*
X146476605Y-82191340D01*
X146469920Y-82195584D01*
X146464503Y-82201352D01*
X146464495Y-82201359D01*
X146421393Y-82247258D01*
X146418645Y-82250094D01*
X146398073Y-82270667D01*
X146395647Y-82273793D01*
X146395625Y-82273819D01*
X146395325Y-82274206D01*
X146387649Y-82283191D01*
X146361454Y-82311088D01*
X146361451Y-82311091D01*
X146356028Y-82316867D01*
X146352212Y-82323806D01*
X146352205Y-82323817D01*
X146345689Y-82335669D01*
X146334844Y-82352179D01*
X146326556Y-82362864D01*
X146326550Y-82362872D01*
X146321696Y-82369132D01*
X146318549Y-82376402D01*
X146318547Y-82376407D01*
X146303351Y-82411523D01*
X146298131Y-82422178D01*
X146279697Y-82455710D01*
X146279693Y-82455718D01*
X146275876Y-82462663D01*
X146273905Y-82470336D01*
X146273902Y-82470346D01*
X146270541Y-82483438D01*
X146264140Y-82502134D01*
X146258767Y-82514550D01*
X146258765Y-82514554D01*
X146255620Y-82521824D01*
X146254381Y-82529641D01*
X146254380Y-82529648D01*
X146248393Y-82567452D01*
X146245986Y-82579073D01*
X146236471Y-82616130D01*
X146236469Y-82616140D01*
X146234500Y-82623812D01*
X146234500Y-82631741D01*
X146234500Y-82645259D01*
X146232949Y-82664968D01*
X146229594Y-82686152D01*
X146230339Y-82694043D01*
X146230340Y-82694043D01*
X146233941Y-82732138D01*
X146234500Y-82743996D01*
X146234500Y-95351569D01*
X146217620Y-95414568D01*
X146173354Y-95458834D01*
X146173248Y-95458882D01*
X146167905Y-95462763D01*
X146167903Y-95462765D01*
X146024091Y-95567250D01*
X146024083Y-95567256D01*
X146018747Y-95571134D01*
X146014330Y-95576039D01*
X146014325Y-95576044D01*
X145978051Y-95616331D01*
X145890960Y-95713056D01*
X145887661Y-95718769D01*
X145887658Y-95718774D01*
X145800984Y-95868899D01*
X145795473Y-95878444D01*
X145793434Y-95884718D01*
X145793430Y-95884728D01*
X145738497Y-96053794D01*
X145738495Y-96053801D01*
X145736458Y-96060072D01*
X145735768Y-96066633D01*
X145735768Y-96066635D01*
X145731542Y-96106843D01*
X145716496Y-96250000D01*
X145717186Y-96256565D01*
X145726131Y-96341675D01*
X145719224Y-96397936D01*
X145688354Y-96445476D01*
X145647648Y-96469939D01*
X145648212Y-96471206D01*
X145479778Y-96546197D01*
X145479775Y-96546198D01*
X145473748Y-96548882D01*
X145468407Y-96552762D01*
X145468406Y-96552763D01*
X145324591Y-96657250D01*
X145324583Y-96657256D01*
X145319247Y-96661134D01*
X145314830Y-96666039D01*
X145314825Y-96666044D01*
X145220387Y-96770929D01*
X145191460Y-96803056D01*
X145188161Y-96808769D01*
X145188158Y-96808774D01*
X145099277Y-96962721D01*
X145095973Y-96968444D01*
X145093934Y-96974718D01*
X145093930Y-96974728D01*
X145038997Y-97143794D01*
X145038995Y-97143801D01*
X145036958Y-97150072D01*
X145036268Y-97156633D01*
X145036268Y-97156635D01*
X145031435Y-97202616D01*
X145016996Y-97340000D01*
X145017686Y-97346565D01*
X145027377Y-97438775D01*
X145036958Y-97529928D01*
X145038995Y-97536200D01*
X145038997Y-97536205D01*
X145063927Y-97612930D01*
X145066351Y-97682348D01*
X145031622Y-97742502D01*
X144970292Y-97775112D01*
X144955176Y-97778325D01*
X144955167Y-97778327D01*
X144948712Y-97779700D01*
X144942682Y-97782384D01*
X144942681Y-97782385D01*
X144780278Y-97854691D01*
X144780275Y-97854692D01*
X144774248Y-97857376D01*
X144768907Y-97861256D01*
X144768906Y-97861257D01*
X144625091Y-97965744D01*
X144625083Y-97965750D01*
X144619747Y-97969628D01*
X144615330Y-97974533D01*
X144615325Y-97974538D01*
X144497609Y-98105276D01*
X144491960Y-98111550D01*
X144488661Y-98117263D01*
X144488661Y-98117264D01*
X144426966Y-98224122D01*
X144377000Y-98272373D01*
X144309057Y-98286814D01*
X144243786Y-98263057D01*
X144214759Y-98241967D01*
X144214755Y-98241965D01*
X144209418Y-98238087D01*
X144034954Y-98160411D01*
X144028501Y-98159039D01*
X144028497Y-98159038D01*
X143854609Y-98122077D01*
X143854606Y-98122076D01*
X143848153Y-98120705D01*
X143657179Y-98120705D01*
X143650726Y-98122076D01*
X143650722Y-98122077D01*
X143476834Y-98159038D01*
X143476827Y-98159040D01*
X143470378Y-98160411D01*
X143464348Y-98163095D01*
X143464347Y-98163096D01*
X143301944Y-98235402D01*
X143301941Y-98235403D01*
X143295914Y-98238087D01*
X143290573Y-98241967D01*
X143290572Y-98241968D01*
X143146757Y-98346455D01*
X143146749Y-98346461D01*
X143141413Y-98350339D01*
X143136996Y-98355244D01*
X143136991Y-98355249D01*
X143018045Y-98487353D01*
X143013626Y-98492261D01*
X143010327Y-98497974D01*
X143010324Y-98497979D01*
X142924378Y-98646843D01*
X142918139Y-98657649D01*
X142916100Y-98663923D01*
X142916096Y-98663933D01*
X142861163Y-98832999D01*
X142861161Y-98833006D01*
X142859124Y-98839277D01*
X142858434Y-98845838D01*
X142858434Y-98845840D01*
X142848951Y-98936065D01*
X142839162Y-99029205D01*
X142839852Y-99035770D01*
X142854612Y-99176209D01*
X142859124Y-99219133D01*
X142861161Y-99225405D01*
X142861163Y-99225410D01*
X142916096Y-99394476D01*
X142916099Y-99394483D01*
X142918139Y-99400761D01*
X143013626Y-99566149D01*
X143141413Y-99708071D01*
X143146755Y-99711952D01*
X143146757Y-99711954D01*
X143174586Y-99732173D01*
X143295914Y-99820323D01*
X143470378Y-99897999D01*
X143657179Y-99937705D01*
X143841544Y-99937705D01*
X143848153Y-99937705D01*
X143854619Y-99936330D01*
X143861178Y-99935641D01*
X143861397Y-99937731D01*
X143907275Y-99938917D01*
X143913104Y-99941332D01*
X143932498Y-99943885D01*
X144032070Y-99956994D01*
X144032075Y-99956994D01*
X144071955Y-99962244D01*
X144103647Y-99958071D01*
X144120091Y-99956994D01*
X146325818Y-99956994D01*
X146342261Y-99958071D01*
X146373954Y-99962244D01*
X146373954Y-99962243D01*
X146373955Y-99962244D01*
X146373922Y-99962489D01*
X146425612Y-99974899D01*
X146470345Y-100013105D01*
X146492858Y-100067455D01*
X146488242Y-100126102D01*
X146457504Y-100176261D01*
X143489170Y-103144595D01*
X143448293Y-103171909D01*
X143400075Y-103181500D01*
X140350167Y-103181500D01*
X140301949Y-103171909D01*
X140261072Y-103144595D01*
X140108719Y-102992242D01*
X140081405Y-102951365D01*
X140072260Y-102905390D01*
X140072504Y-102903072D01*
X140052542Y-102713144D01*
X139993527Y-102531516D01*
X139898040Y-102366128D01*
X139770253Y-102224206D01*
X139764911Y-102220325D01*
X139764908Y-102220322D01*
X139671071Y-102152146D01*
X139615752Y-102111954D01*
X139497201Y-102059172D01*
X139447317Y-102036962D01*
X139447314Y-102036961D01*
X139441288Y-102034278D01*
X139434837Y-102032906D01*
X139430480Y-102031491D01*
X139380323Y-102000753D01*
X139349587Y-101950595D01*
X139346191Y-101940144D01*
X139294027Y-101779599D01*
X139198540Y-101614211D01*
X139070753Y-101472289D01*
X139065411Y-101468408D01*
X139065408Y-101468405D01*
X138969080Y-101398419D01*
X138916252Y-101360037D01*
X138876122Y-101342170D01*
X138747820Y-101285046D01*
X138747814Y-101285044D01*
X138741788Y-101282361D01*
X138735328Y-101280987D01*
X138729052Y-101278949D01*
X138729707Y-101276932D01*
X138681233Y-101252226D01*
X138645719Y-101197534D01*
X138594027Y-101038444D01*
X138498540Y-100873056D01*
X138370753Y-100731134D01*
X138365411Y-100727253D01*
X138365408Y-100727250D01*
X138261851Y-100652012D01*
X138216252Y-100618882D01*
X138041788Y-100541206D01*
X138035335Y-100539834D01*
X138035331Y-100539833D01*
X137861443Y-100502872D01*
X137861440Y-100502871D01*
X137854987Y-100501500D01*
X137783239Y-100501500D01*
X137726036Y-100487767D01*
X137681303Y-100449561D01*
X137658790Y-100395211D01*
X137663406Y-100336564D01*
X137694144Y-100286404D01*
X137804288Y-100176261D01*
X138105644Y-99874904D01*
X138146522Y-99847591D01*
X138194740Y-99838000D01*
X138279384Y-99838000D01*
X138285987Y-99838000D01*
X138472788Y-99798294D01*
X138647252Y-99720618D01*
X138801753Y-99608366D01*
X138929540Y-99466444D01*
X139025027Y-99301056D01*
X139084042Y-99119428D01*
X139104004Y-98929500D01*
X139084042Y-98739572D01*
X139025027Y-98557944D01*
X138929540Y-98392556D01*
X138801753Y-98250634D01*
X138796411Y-98246753D01*
X138796408Y-98246750D01*
X138714126Y-98186969D01*
X138647252Y-98138382D01*
X138472788Y-98060706D01*
X138466335Y-98059334D01*
X138466331Y-98059333D01*
X138292443Y-98022372D01*
X138292440Y-98022371D01*
X138285987Y-98021000D01*
X138095013Y-98021000D01*
X138088560Y-98022371D01*
X138088556Y-98022372D01*
X137914668Y-98059333D01*
X137914661Y-98059335D01*
X137908212Y-98060706D01*
X137902182Y-98063390D01*
X137902181Y-98063391D01*
X137739778Y-98135697D01*
X137739775Y-98135698D01*
X137733748Y-98138382D01*
X137728407Y-98142262D01*
X137728406Y-98142263D01*
X137584591Y-98246750D01*
X137584583Y-98246756D01*
X137579247Y-98250634D01*
X137574830Y-98255539D01*
X137574825Y-98255544D01*
X137455879Y-98387648D01*
X137451460Y-98392556D01*
X137448161Y-98398269D01*
X137448158Y-98398274D01*
X137393895Y-98492261D01*
X137355973Y-98557944D01*
X137353934Y-98564218D01*
X137353930Y-98564228D01*
X137298997Y-98733294D01*
X137298995Y-98733301D01*
X137296958Y-98739572D01*
X137296268Y-98746133D01*
X137296268Y-98746135D01*
X137282885Y-98873471D01*
X137276996Y-98929500D01*
X137277239Y-98931818D01*
X137268095Y-98977792D01*
X137240781Y-99018669D01*
X135903767Y-100355682D01*
X135891380Y-100366546D01*
X135872562Y-100380986D01*
X135872555Y-100380992D01*
X135866013Y-100386013D01*
X135860992Y-100392555D01*
X135860989Y-100392559D01*
X135848230Y-100409187D01*
X135841525Y-100417925D01*
X135841523Y-100417928D01*
X135809864Y-100459187D01*
X135774325Y-100505502D01*
X135768476Y-100513124D01*
X135765318Y-100520747D01*
X135765315Y-100520753D01*
X135710322Y-100653518D01*
X135710320Y-100653523D01*
X135707162Y-100661149D01*
X135704608Y-100680543D01*
X135691500Y-100780115D01*
X135691500Y-100780120D01*
X135686250Y-100820000D01*
X135687328Y-100828188D01*
X135690422Y-100851690D01*
X135691500Y-100868136D01*
X135691500Y-101294522D01*
X135676231Y-101354644D01*
X135634125Y-101400194D01*
X135575386Y-101420134D01*
X135514252Y-101409629D01*
X135465538Y-101371226D01*
X135428498Y-101322955D01*
X135428497Y-101322954D01*
X135428478Y-101322929D01*
X135428474Y-101322925D01*
X135403987Y-101291013D01*
X135378619Y-101271547D01*
X135366229Y-101260680D01*
X133837722Y-99732173D01*
X133805338Y-99676527D01*
X133804673Y-99612146D01*
X133839564Y-99474368D01*
X133858156Y-99250000D01*
X133839564Y-99025632D01*
X133784296Y-98807384D01*
X133693860Y-98601209D01*
X133570722Y-98412732D01*
X133464269Y-98297094D01*
X133421772Y-98250930D01*
X133421767Y-98250925D01*
X133418240Y-98247094D01*
X133240576Y-98108811D01*
X133236002Y-98106336D01*
X133235995Y-98106331D01*
X133207320Y-98090814D01*
X133159048Y-98044498D01*
X133141289Y-97980000D01*
X133159048Y-97915502D01*
X133207320Y-97869186D01*
X133235990Y-97853671D01*
X133240576Y-97851189D01*
X133418240Y-97712906D01*
X133570722Y-97547268D01*
X133693860Y-97358791D01*
X133784296Y-97152616D01*
X133839564Y-96934368D01*
X133858156Y-96710000D01*
X133839564Y-96485632D01*
X133784296Y-96267384D01*
X133693860Y-96061209D01*
X133570722Y-95872732D01*
X133464269Y-95757094D01*
X133421772Y-95710930D01*
X133421767Y-95710925D01*
X133418240Y-95707094D01*
X133240576Y-95568811D01*
X133235997Y-95566333D01*
X133235994Y-95566331D01*
X133207318Y-95550812D01*
X133159047Y-95504494D01*
X133141289Y-95439996D01*
X133159050Y-95375499D01*
X133207321Y-95329185D01*
X133240576Y-95311189D01*
X133418240Y-95172906D01*
X133570722Y-95007268D01*
X133693860Y-94818791D01*
X133784296Y-94612616D01*
X133839564Y-94394368D01*
X133858156Y-94170000D01*
X133839564Y-93945632D01*
X133784296Y-93727384D01*
X133693860Y-93521209D01*
X133570722Y-93332732D01*
X133464269Y-93217094D01*
X133421772Y-93170930D01*
X133421767Y-93170925D01*
X133418240Y-93167094D01*
X133240576Y-93028811D01*
X133235997Y-93026333D01*
X133235994Y-93026331D01*
X133207318Y-93010812D01*
X133159047Y-92964494D01*
X133141289Y-92899996D01*
X133159050Y-92835499D01*
X133207321Y-92789185D01*
X133240576Y-92771189D01*
X133418240Y-92632906D01*
X133570722Y-92467268D01*
X133693860Y-92278791D01*
X133784296Y-92072616D01*
X133839564Y-91854368D01*
X133858156Y-91630000D01*
X133839564Y-91405632D01*
X133784296Y-91187384D01*
X133693860Y-90981209D01*
X133570722Y-90792732D01*
X133464269Y-90677094D01*
X133421772Y-90630930D01*
X133421767Y-90630925D01*
X133418240Y-90627094D01*
X133240576Y-90488811D01*
X133236002Y-90486336D01*
X133235995Y-90486331D01*
X133207320Y-90470814D01*
X133159048Y-90424498D01*
X133141289Y-90360000D01*
X133159048Y-90295502D01*
X133207320Y-90249186D01*
X133235990Y-90233671D01*
X133240576Y-90231189D01*
X133418240Y-90092906D01*
X133570722Y-89927268D01*
X133693860Y-89738791D01*
X133784296Y-89532616D01*
X133839564Y-89314368D01*
X133858156Y-89090000D01*
X133839564Y-88865632D01*
X133784296Y-88647384D01*
X133693860Y-88441209D01*
X133570722Y-88252732D01*
X133464269Y-88137094D01*
X133421772Y-88090930D01*
X133421767Y-88090925D01*
X133418240Y-88087094D01*
X133240576Y-87948811D01*
X133236002Y-87946336D01*
X133235995Y-87946331D01*
X133207320Y-87930814D01*
X133159048Y-87884498D01*
X133141289Y-87820000D01*
X133159048Y-87755502D01*
X133207320Y-87709186D01*
X133235990Y-87693671D01*
X133240576Y-87691189D01*
X133418240Y-87552906D01*
X133570722Y-87387268D01*
X133693860Y-87198791D01*
X133784296Y-86992616D01*
X133839564Y-86774368D01*
X133858156Y-86550000D01*
X133839564Y-86325632D01*
X133784296Y-86107384D01*
X133693860Y-85901209D01*
X133570722Y-85712732D01*
X133464269Y-85597094D01*
X133421772Y-85550930D01*
X133421767Y-85550925D01*
X133418240Y-85547094D01*
X133240576Y-85408811D01*
X133236002Y-85406336D01*
X133235995Y-85406331D01*
X133207320Y-85390814D01*
X133159048Y-85344498D01*
X133141289Y-85280000D01*
X133159048Y-85215502D01*
X133207320Y-85169186D01*
X133235990Y-85153671D01*
X133240576Y-85151189D01*
X133418240Y-85012906D01*
X133570722Y-84847268D01*
X133693860Y-84658791D01*
X133784296Y-84452616D01*
X133839564Y-84234368D01*
X133858156Y-84010000D01*
X133839564Y-83785632D01*
X133784296Y-83567384D01*
X133693860Y-83361209D01*
X133570722Y-83172732D01*
X133464269Y-83057094D01*
X133421772Y-83010930D01*
X133421767Y-83010925D01*
X133418240Y-83007094D01*
X133240576Y-82868811D01*
X133235997Y-82866333D01*
X133235994Y-82866331D01*
X133207318Y-82850812D01*
X133159047Y-82804494D01*
X133141289Y-82739996D01*
X133159050Y-82675499D01*
X133207321Y-82629185D01*
X133240576Y-82611189D01*
X133418240Y-82472906D01*
X133570722Y-82307268D01*
X133693860Y-82118791D01*
X133784296Y-81912616D01*
X133839564Y-81694368D01*
X133858156Y-81470000D01*
X133839564Y-81245632D01*
X133784296Y-81027384D01*
X133693860Y-80821209D01*
X133570722Y-80632732D01*
X133427525Y-80477180D01*
X133398288Y-80423576D01*
X133397685Y-80362520D01*
X133425859Y-80308350D01*
X133476191Y-80273786D01*
X133591204Y-80230889D01*
X133708261Y-80143261D01*
X133795889Y-80026204D01*
X133846989Y-79889201D01*
X133853500Y-79828638D01*
X133853500Y-78301270D01*
X154969500Y-78301270D01*
X154971321Y-78308661D01*
X154971322Y-78308663D01*
X155008967Y-78461395D01*
X155008968Y-78461399D01*
X155010792Y-78468797D01*
X155014335Y-78475548D01*
X155014336Y-78475550D01*
X155087431Y-78614820D01*
X155090976Y-78621574D01*
X155205391Y-78750723D01*
X155347389Y-78848737D01*
X155508717Y-78909921D01*
X155637025Y-78925500D01*
X155719165Y-78925500D01*
X155722975Y-78925500D01*
X155851283Y-78909921D01*
X156012611Y-78848737D01*
X156154609Y-78750723D01*
X156269024Y-78621574D01*
X156349208Y-78468797D01*
X156390500Y-78301270D01*
X157969500Y-78301270D01*
X157971321Y-78308661D01*
X157971322Y-78308663D01*
X158008967Y-78461395D01*
X158008968Y-78461399D01*
X158010792Y-78468797D01*
X158014335Y-78475548D01*
X158014336Y-78475550D01*
X158087431Y-78614820D01*
X158090976Y-78621574D01*
X158205391Y-78750723D01*
X158347389Y-78848737D01*
X158508717Y-78909921D01*
X158637025Y-78925500D01*
X158719165Y-78925500D01*
X158722975Y-78925500D01*
X158851283Y-78909921D01*
X159012611Y-78848737D01*
X159154609Y-78750723D01*
X159269024Y-78621574D01*
X159349208Y-78468797D01*
X159390500Y-78301270D01*
X159390500Y-78128730D01*
X159349208Y-77961203D01*
X159269024Y-77808426D01*
X159154609Y-77679277D01*
X159148336Y-77674947D01*
X159148335Y-77674946D01*
X159018886Y-77585594D01*
X159018884Y-77585593D01*
X159012611Y-77581263D01*
X159005483Y-77578559D01*
X159005480Y-77578558D01*
X158858409Y-77522781D01*
X158858404Y-77522779D01*
X158851283Y-77520079D01*
X158839999Y-77518709D01*
X158726760Y-77504959D01*
X158726750Y-77504958D01*
X158722975Y-77504500D01*
X158637025Y-77504500D01*
X158633250Y-77504958D01*
X158633239Y-77504959D01*
X158516285Y-77519160D01*
X158516284Y-77519160D01*
X158508717Y-77520079D01*
X158501597Y-77522779D01*
X158501590Y-77522781D01*
X158354519Y-77578558D01*
X158354512Y-77578561D01*
X158347389Y-77581263D01*
X158341119Y-77585590D01*
X158341113Y-77585594D01*
X158211664Y-77674946D01*
X158211658Y-77674950D01*
X158205391Y-77679277D01*
X158200339Y-77684978D01*
X158200336Y-77684982D01*
X158096032Y-77802718D01*
X158096029Y-77802722D01*
X158090976Y-77808426D01*
X158087434Y-77815174D01*
X158087431Y-77815179D01*
X158014336Y-77954449D01*
X158014333Y-77954454D01*
X158010792Y-77961203D01*
X158008969Y-77968597D01*
X158008967Y-77968604D01*
X157971322Y-78121336D01*
X157969500Y-78128730D01*
X157969500Y-78301270D01*
X156390500Y-78301270D01*
X156390500Y-78128730D01*
X156349208Y-77961203D01*
X156269024Y-77808426D01*
X156154609Y-77679277D01*
X156148336Y-77674947D01*
X156148335Y-77674946D01*
X156018886Y-77585594D01*
X156018884Y-77585593D01*
X156012611Y-77581263D01*
X156005483Y-77578559D01*
X156005480Y-77578558D01*
X155858409Y-77522781D01*
X155858404Y-77522779D01*
X155851283Y-77520079D01*
X155839999Y-77518709D01*
X155726760Y-77504959D01*
X155726750Y-77504958D01*
X155722975Y-77504500D01*
X155637025Y-77504500D01*
X155633250Y-77504958D01*
X155633239Y-77504959D01*
X155516285Y-77519160D01*
X155516284Y-77519160D01*
X155508717Y-77520079D01*
X155501597Y-77522779D01*
X155501590Y-77522781D01*
X155354519Y-77578558D01*
X155354512Y-77578561D01*
X155347389Y-77581263D01*
X155341119Y-77585590D01*
X155341113Y-77585594D01*
X155211664Y-77674946D01*
X155211658Y-77674950D01*
X155205391Y-77679277D01*
X155200339Y-77684978D01*
X155200336Y-77684982D01*
X155096032Y-77802718D01*
X155096029Y-77802722D01*
X155090976Y-77808426D01*
X155087434Y-77815174D01*
X155087431Y-77815179D01*
X155014336Y-77954449D01*
X155014333Y-77954454D01*
X155010792Y-77961203D01*
X155008969Y-77968597D01*
X155008967Y-77968604D01*
X154971322Y-78121336D01*
X154969500Y-78128730D01*
X154969500Y-78301270D01*
X133853500Y-78301270D01*
X133853500Y-78031362D01*
X133846989Y-77970799D01*
X133795889Y-77833796D01*
X133781952Y-77815179D01*
X133730988Y-77747098D01*
X133708261Y-77716739D01*
X133658218Y-77679277D01*
X133598417Y-77634510D01*
X133598414Y-77634508D01*
X133591204Y-77629111D01*
X133582766Y-77625964D01*
X133582763Y-77625962D01*
X133461580Y-77580763D01*
X133461578Y-77580762D01*
X133454201Y-77578011D01*
X133446373Y-77577169D01*
X133446367Y-77577168D01*
X133396988Y-77571860D01*
X133396985Y-77571859D01*
X133393638Y-77571500D01*
X131596362Y-77571500D01*
X131593015Y-77571859D01*
X131593011Y-77571860D01*
X131543632Y-77577168D01*
X131543625Y-77577169D01*
X131535799Y-77578011D01*
X131528423Y-77580761D01*
X131528419Y-77580763D01*
X131407236Y-77625962D01*
X131407230Y-77625965D01*
X131398796Y-77629111D01*
X131391588Y-77634506D01*
X131391582Y-77634510D01*
X131288950Y-77711340D01*
X131288946Y-77711343D01*
X131281739Y-77716739D01*
X131276343Y-77723946D01*
X131276340Y-77723950D01*
X131199510Y-77826582D01*
X131199506Y-77826588D01*
X131194111Y-77833796D01*
X131190965Y-77842230D01*
X131190962Y-77842236D01*
X131145763Y-77963419D01*
X131145761Y-77963423D01*
X131143011Y-77970799D01*
X131142169Y-77978625D01*
X131142168Y-77978632D01*
X131136860Y-78028011D01*
X131136500Y-78031362D01*
X131136500Y-79828638D01*
X131136859Y-79831985D01*
X131136860Y-79831988D01*
X131142168Y-79881367D01*
X131142169Y-79881373D01*
X131143011Y-79889201D01*
X131145762Y-79896578D01*
X131145763Y-79896580D01*
X131190962Y-80017763D01*
X131190964Y-80017766D01*
X131194111Y-80026204D01*
X131199508Y-80033414D01*
X131199510Y-80033417D01*
X131262819Y-80117987D01*
X131281739Y-80143261D01*
X131398796Y-80230889D01*
X131407235Y-80234036D01*
X131407236Y-80234037D01*
X131513806Y-80273786D01*
X131564140Y-80308350D01*
X131592314Y-80362520D01*
X131591711Y-80423576D01*
X131562474Y-80477180D01*
X131422806Y-80628899D01*
X131422802Y-80628902D01*
X131419278Y-80632732D01*
X131416430Y-80637090D01*
X131416427Y-80637095D01*
X131298992Y-80816843D01*
X131296140Y-80821209D01*
X131294048Y-80825978D01*
X131294046Y-80825982D01*
X131207799Y-81022606D01*
X131207796Y-81022614D01*
X131205704Y-81027384D01*
X131204423Y-81032440D01*
X131204422Y-81032445D01*
X131175252Y-81147635D01*
X131150436Y-81245632D01*
X131150006Y-81250820D01*
X131150005Y-81250827D01*
X131145862Y-81300827D01*
X131131844Y-81470000D01*
X131132274Y-81475189D01*
X131147712Y-81661502D01*
X131150436Y-81694368D01*
X131205704Y-81912616D01*
X131207797Y-81917389D01*
X131207799Y-81917393D01*
X131283147Y-82089170D01*
X131296140Y-82118791D01*
X131419278Y-82307268D01*
X131422806Y-82311100D01*
X131568227Y-82469069D01*
X131568231Y-82469073D01*
X131571760Y-82472906D01*
X131749424Y-82611189D01*
X131754002Y-82613666D01*
X131754009Y-82613671D01*
X131782680Y-82629187D01*
X131830951Y-82675503D01*
X131848710Y-82740000D01*
X131830951Y-82804497D01*
X131782680Y-82850813D01*
X131754009Y-82866328D01*
X131753993Y-82866338D01*
X131749424Y-82868811D01*
X131745313Y-82872010D01*
X131745311Y-82872012D01*
X131575878Y-83003888D01*
X131575872Y-83003893D01*
X131571760Y-83007094D01*
X131568237Y-83010919D01*
X131568227Y-83010930D01*
X131422806Y-83168899D01*
X131422802Y-83168902D01*
X131419278Y-83172732D01*
X131416430Y-83177090D01*
X131416427Y-83177095D01*
X131298992Y-83356843D01*
X131296140Y-83361209D01*
X131294048Y-83365978D01*
X131294046Y-83365982D01*
X131207799Y-83562606D01*
X131207796Y-83562614D01*
X131205704Y-83567384D01*
X131204423Y-83572440D01*
X131204422Y-83572445D01*
X131151717Y-83780573D01*
X131150436Y-83785632D01*
X131150006Y-83790820D01*
X131150005Y-83790827D01*
X131145862Y-83840827D01*
X131131844Y-84010000D01*
X131150436Y-84234368D01*
X131205704Y-84452616D01*
X131296140Y-84658791D01*
X131419278Y-84847268D01*
X131422806Y-84851100D01*
X131568227Y-85009069D01*
X131568231Y-85009073D01*
X131571760Y-85012906D01*
X131749424Y-85151189D01*
X131754002Y-85153666D01*
X131754009Y-85153671D01*
X131782680Y-85169187D01*
X131830951Y-85215503D01*
X131848710Y-85280000D01*
X131830951Y-85344497D01*
X131782680Y-85390813D01*
X131754009Y-85406328D01*
X131753993Y-85406338D01*
X131749424Y-85408811D01*
X131745313Y-85412010D01*
X131745311Y-85412012D01*
X131575878Y-85543888D01*
X131575872Y-85543893D01*
X131571760Y-85547094D01*
X131568237Y-85550919D01*
X131568227Y-85550930D01*
X131422806Y-85708899D01*
X131422802Y-85708902D01*
X131419278Y-85712732D01*
X131416430Y-85717090D01*
X131416427Y-85717095D01*
X131306592Y-85885211D01*
X131296140Y-85901209D01*
X131294048Y-85905978D01*
X131294046Y-85905982D01*
X131207799Y-86102606D01*
X131207796Y-86102614D01*
X131205704Y-86107384D01*
X131204423Y-86112440D01*
X131204422Y-86112445D01*
X131151717Y-86320573D01*
X131150436Y-86325632D01*
X131150006Y-86330820D01*
X131150005Y-86330827D01*
X131145862Y-86380827D01*
X131131844Y-86550000D01*
X131150436Y-86774368D01*
X131205704Y-86992616D01*
X131296140Y-87198791D01*
X131419278Y-87387268D01*
X131422806Y-87391100D01*
X131568227Y-87549069D01*
X131568231Y-87549073D01*
X131571760Y-87552906D01*
X131749424Y-87691189D01*
X131754002Y-87693666D01*
X131754009Y-87693671D01*
X131782680Y-87709187D01*
X131830951Y-87755503D01*
X131848710Y-87820000D01*
X131830951Y-87884497D01*
X131782680Y-87930813D01*
X131754009Y-87946328D01*
X131753993Y-87946338D01*
X131749424Y-87948811D01*
X131745313Y-87952010D01*
X131745311Y-87952012D01*
X131575878Y-88083888D01*
X131575872Y-88083893D01*
X131571760Y-88087094D01*
X131568237Y-88090919D01*
X131568227Y-88090930D01*
X131422806Y-88248899D01*
X131422802Y-88248902D01*
X131419278Y-88252732D01*
X131416430Y-88257090D01*
X131416427Y-88257095D01*
X131347634Y-88362391D01*
X131296140Y-88441209D01*
X131294048Y-88445978D01*
X131294046Y-88445982D01*
X131207799Y-88642606D01*
X131207796Y-88642614D01*
X131205704Y-88647384D01*
X131204423Y-88652440D01*
X131204422Y-88652445D01*
X131151717Y-88860573D01*
X131150436Y-88865632D01*
X131150006Y-88870820D01*
X131150005Y-88870827D01*
X131145862Y-88920827D01*
X131131844Y-89090000D01*
X131150436Y-89314368D01*
X131205704Y-89532616D01*
X131296140Y-89738791D01*
X131419278Y-89927268D01*
X131422806Y-89931100D01*
X131568227Y-90089069D01*
X131568231Y-90089073D01*
X131571760Y-90092906D01*
X131749424Y-90231189D01*
X131754002Y-90233666D01*
X131754009Y-90233671D01*
X131782680Y-90249187D01*
X131830951Y-90295503D01*
X131848710Y-90360000D01*
X131830951Y-90424497D01*
X131782680Y-90470813D01*
X131754009Y-90486328D01*
X131753993Y-90486338D01*
X131749424Y-90488811D01*
X131745313Y-90492010D01*
X131745311Y-90492012D01*
X131575878Y-90623888D01*
X131575872Y-90623893D01*
X131571760Y-90627094D01*
X131568237Y-90630919D01*
X131568227Y-90630930D01*
X131422806Y-90788899D01*
X131422802Y-90788902D01*
X131419278Y-90792732D01*
X131416430Y-90797090D01*
X131416427Y-90797095D01*
X131306592Y-90965211D01*
X131296140Y-90981209D01*
X131294048Y-90985978D01*
X131294046Y-90985982D01*
X131207799Y-91182606D01*
X131207796Y-91182614D01*
X131205704Y-91187384D01*
X131204423Y-91192440D01*
X131204422Y-91192445D01*
X131151717Y-91400573D01*
X131150436Y-91405632D01*
X131150006Y-91410820D01*
X131150005Y-91410827D01*
X131145862Y-91460827D01*
X131131844Y-91630000D01*
X131150436Y-91854368D01*
X131205704Y-92072616D01*
X131296140Y-92278791D01*
X131419278Y-92467268D01*
X131422806Y-92471100D01*
X131568227Y-92629069D01*
X131568231Y-92629073D01*
X131571760Y-92632906D01*
X131749424Y-92771189D01*
X131782680Y-92789186D01*
X131830950Y-92835499D01*
X131848710Y-92899996D01*
X131830953Y-92964494D01*
X131782683Y-93010811D01*
X131754005Y-93026331D01*
X131753997Y-93026336D01*
X131749424Y-93028811D01*
X131745313Y-93032010D01*
X131745311Y-93032012D01*
X131575878Y-93163888D01*
X131575872Y-93163893D01*
X131571760Y-93167094D01*
X131568237Y-93170919D01*
X131568227Y-93170930D01*
X131422806Y-93328899D01*
X131422802Y-93328902D01*
X131419278Y-93332732D01*
X131416430Y-93337090D01*
X131416427Y-93337095D01*
X131301315Y-93513288D01*
X131296140Y-93521209D01*
X131294048Y-93525978D01*
X131294046Y-93525982D01*
X131207799Y-93722606D01*
X131207796Y-93722614D01*
X131205704Y-93727384D01*
X131204423Y-93732440D01*
X131204422Y-93732445D01*
X131151717Y-93940573D01*
X131150436Y-93945632D01*
X131150006Y-93950820D01*
X131150005Y-93950827D01*
X131145862Y-94000827D01*
X131131844Y-94170000D01*
X131150436Y-94394368D01*
X131205704Y-94612616D01*
X131296140Y-94818791D01*
X131419278Y-95007268D01*
X131422806Y-95011100D01*
X131568227Y-95169069D01*
X131568231Y-95169073D01*
X131571760Y-95172906D01*
X131749424Y-95311189D01*
X131754002Y-95313666D01*
X131754009Y-95313671D01*
X131782680Y-95329187D01*
X131830951Y-95375503D01*
X131848710Y-95440000D01*
X131830951Y-95504497D01*
X131782680Y-95550813D01*
X131754009Y-95566328D01*
X131753993Y-95566338D01*
X131749424Y-95568811D01*
X131745313Y-95572010D01*
X131745311Y-95572012D01*
X131575878Y-95703888D01*
X131575872Y-95703893D01*
X131571760Y-95707094D01*
X131568237Y-95710919D01*
X131568227Y-95710930D01*
X131422806Y-95868899D01*
X131422802Y-95868902D01*
X131419278Y-95872732D01*
X131416430Y-95877090D01*
X131416427Y-95877095D01*
X131331002Y-96007848D01*
X131296140Y-96061209D01*
X131294048Y-96065978D01*
X131294046Y-96065982D01*
X131207799Y-96262606D01*
X131207796Y-96262614D01*
X131205704Y-96267384D01*
X131204423Y-96272440D01*
X131204422Y-96272445D01*
X131162010Y-96439928D01*
X131150436Y-96485632D01*
X131150006Y-96490820D01*
X131150005Y-96490827D01*
X131144873Y-96552763D01*
X131131844Y-96710000D01*
X131132274Y-96715189D01*
X131146660Y-96888808D01*
X131150436Y-96934368D01*
X131205704Y-97152616D01*
X131296140Y-97358791D01*
X131419278Y-97547268D01*
X131446774Y-97577136D01*
X131568227Y-97709069D01*
X131568231Y-97709073D01*
X131571760Y-97712906D01*
X131749424Y-97851189D01*
X131754002Y-97853666D01*
X131754009Y-97853671D01*
X131782680Y-97869187D01*
X131830951Y-97915503D01*
X131848710Y-97980000D01*
X131830951Y-98044497D01*
X131782680Y-98090813D01*
X131754009Y-98106328D01*
X131753993Y-98106338D01*
X131749424Y-98108811D01*
X131745313Y-98112010D01*
X131745311Y-98112012D01*
X131575878Y-98243888D01*
X131575872Y-98243893D01*
X131571760Y-98247094D01*
X131568237Y-98250919D01*
X131568227Y-98250930D01*
X131422806Y-98408899D01*
X131422802Y-98408902D01*
X131419278Y-98412732D01*
X131416430Y-98417090D01*
X131416427Y-98417095D01*
X131310559Y-98579139D01*
X131296140Y-98601209D01*
X131294048Y-98605978D01*
X131294046Y-98605982D01*
X131207799Y-98802606D01*
X131207796Y-98802614D01*
X131205704Y-98807384D01*
X131204423Y-98812440D01*
X131204422Y-98812445D01*
X131158929Y-98992095D01*
X131150436Y-99025632D01*
X131150006Y-99030820D01*
X131150005Y-99030827D01*
X131137563Y-99180982D01*
X131131844Y-99250000D01*
X131132274Y-99255189D01*
X131150005Y-99469172D01*
X131150005Y-99469177D01*
X131150436Y-99474368D01*
X131205704Y-99692616D01*
X131207797Y-99697389D01*
X131207799Y-99697393D01*
X131269160Y-99837283D01*
X131296140Y-99898791D01*
X131419278Y-100087268D01*
X131452374Y-100123219D01*
X131568227Y-100249069D01*
X131568231Y-100249073D01*
X131571760Y-100252906D01*
X131749424Y-100391189D01*
X131754002Y-100393666D01*
X131754009Y-100393671D01*
X131782680Y-100409187D01*
X131830951Y-100455503D01*
X131848710Y-100520000D01*
X131830951Y-100584497D01*
X131782680Y-100630813D01*
X131754009Y-100646328D01*
X131753993Y-100646338D01*
X131749424Y-100648811D01*
X131745313Y-100652010D01*
X131745311Y-100652012D01*
X131575878Y-100783888D01*
X131575872Y-100783893D01*
X131571760Y-100787094D01*
X131568237Y-100790919D01*
X131568227Y-100790930D01*
X131422806Y-100948899D01*
X131422802Y-100948902D01*
X131419278Y-100952732D01*
X131416430Y-100957090D01*
X131416427Y-100957095D01*
X131342983Y-101069510D01*
X131296140Y-101141209D01*
X131294048Y-101145978D01*
X131294046Y-101145982D01*
X131207799Y-101342606D01*
X131207796Y-101342614D01*
X131205704Y-101347384D01*
X131204423Y-101352440D01*
X131204422Y-101352445D01*
X131172830Y-101477199D01*
X131150436Y-101565632D01*
X131150006Y-101570820D01*
X131150005Y-101570827D01*
X131141030Y-101679144D01*
X131131844Y-101790000D01*
X131132274Y-101795189D01*
X131150005Y-102009172D01*
X131150005Y-102009177D01*
X131150436Y-102014368D01*
X131205704Y-102232616D01*
X131207797Y-102237389D01*
X131207799Y-102237393D01*
X131251908Y-102337951D01*
X131296140Y-102438791D01*
X131419278Y-102627268D01*
X131422806Y-102631100D01*
X131568227Y-102789069D01*
X131568231Y-102789073D01*
X131571760Y-102792906D01*
X131749424Y-102931189D01*
X131754002Y-102933666D01*
X131754009Y-102933671D01*
X131782680Y-102949187D01*
X131830951Y-102995503D01*
X131848710Y-103060000D01*
X131830951Y-103124497D01*
X131782680Y-103170813D01*
X131754009Y-103186328D01*
X131753993Y-103186338D01*
X131749424Y-103188811D01*
X131745313Y-103192010D01*
X131745311Y-103192012D01*
X131575878Y-103323888D01*
X131575872Y-103323893D01*
X131571760Y-103327094D01*
X131568237Y-103330919D01*
X131568227Y-103330930D01*
X131422806Y-103488899D01*
X131422802Y-103488902D01*
X131419278Y-103492732D01*
X131416430Y-103497090D01*
X131416427Y-103497095D01*
X131298992Y-103676843D01*
X131296140Y-103681209D01*
X131294048Y-103685978D01*
X131294046Y-103685982D01*
X131207799Y-103882606D01*
X131207796Y-103882614D01*
X131205704Y-103887384D01*
X131204423Y-103892440D01*
X131204422Y-103892445D01*
X131187914Y-103957635D01*
X131150436Y-104105632D01*
X131150006Y-104110820D01*
X131150005Y-104110827D01*
X131141085Y-104218474D01*
X131131844Y-104330000D01*
X131132274Y-104335189D01*
X131150005Y-104549172D01*
X131150005Y-104549177D01*
X131150436Y-104554368D01*
X131205704Y-104772616D01*
X131296140Y-104978791D01*
X131419278Y-105167268D01*
X131422806Y-105171100D01*
X131568227Y-105329069D01*
X131568231Y-105329073D01*
X131571760Y-105332906D01*
X131749424Y-105471189D01*
X131782680Y-105489186D01*
X131830950Y-105535499D01*
X131848710Y-105599996D01*
X131830953Y-105664494D01*
X131782683Y-105710811D01*
X131754005Y-105726331D01*
X131753997Y-105726336D01*
X131749424Y-105728811D01*
X131745313Y-105732010D01*
X131745311Y-105732012D01*
X131575878Y-105863888D01*
X131575872Y-105863893D01*
X131571760Y-105867094D01*
X131568237Y-105870919D01*
X131568227Y-105870930D01*
X131422806Y-106028899D01*
X131422802Y-106028902D01*
X131419278Y-106032732D01*
X131416430Y-106037090D01*
X131416427Y-106037095D01*
X131298992Y-106216843D01*
X131296140Y-106221209D01*
X131294048Y-106225978D01*
X131294046Y-106225982D01*
X131207799Y-106422606D01*
X131207796Y-106422614D01*
X131205704Y-106427384D01*
X131204423Y-106432440D01*
X131204422Y-106432445D01*
X131187914Y-106497635D01*
X131150436Y-106645632D01*
X131150006Y-106650820D01*
X131150005Y-106650827D01*
X131141030Y-106759144D01*
X131131844Y-106870000D01*
X129750500Y-106870000D01*
X129750500Y-76626500D01*
X129767381Y-76563500D01*
X129813500Y-76517381D01*
X129876500Y-76500500D01*
X167543500Y-76500500D01*
X167606500Y-76517381D01*
G37*
%TD.AperFunction*%
%TD*%
M02*
